M48
; DRILL file {KiCad 5.1.6} date Sat Sep  5 15:39:44 2020
; FORMAT={-:-/ absolute / inch / decimal}
; #@! TF.CreationDate,2020-09-05T15:39:44+02:00
; #@! TF.GenerationSoftware,Kicad,Pcbnew,5.1.6
; #@! TF.FileFunction,Plated,1,2,PTH
FMAT,2
INCH
T1C0.0118
T2C0.0157
T3C0.0315
T4C0.0394
%
G90
G05
T1
X4.748Y-2.6142
X4.748Y-3.0157
X4.748Y-3.2677
X4.748Y-2.3858
X4.811Y-3.0157
X4.8189Y-3.2283
X4.8519Y-2.8089
X4.9449Y-3.0787
X5.0157Y-2.6142
X5.0551Y-2.3858
X5.0866Y-3.5197
X5.1102Y-3.0709
X5.1102Y-3.2756
X5.1181Y-2.5984
X5.1811Y-3.0315
X5.1811Y-3.1181
X5.2191Y-3.5183
X5.2205Y-2.7323
X5.2235Y-2.8473
X5.2283Y-3.3386
X5.2283Y-3.3858
X5.2283Y-3.4173
X5.2283Y-3.4488
X5.2441Y-2.4803
X5.2906Y-3.4785
X5.3027Y-2.7559
X5.3038Y-2.7239
X5.3307Y-2.9291
X5.3307Y-2.9921
X5.3318Y-2.7568
X5.3535Y-2.5424
X5.3622Y-2.7559
X5.3622Y-3.3858
X5.3625Y-2.6775
X5.3701Y-3.0866
X5.38Y-3.1987
X5.3858Y-2.9921
X5.3937Y-2.7559
X5.3991Y-2.4857
X5.4016Y-2.3858
X5.4016Y-2.4488
X5.4252Y-2.6457
X5.4252Y-2.8661
X5.4319Y-2.5555
X5.4411Y-2.5839
X5.4418Y-2.527
X5.4567Y-2.7559
X5.4646Y-2.9291
X5.4724Y-2.5984
X5.4882Y-2.4488
X5.4882Y-2.6457
X5.4882Y-2.7559
X5.4961Y-3.4724
X5.5154Y-2.8619
X5.5197Y-2.6457
X5.5197Y-3.0945
X5.5276Y-3.0079
X5.5276Y-3.0472
X5.5512Y-2.9213
X5.5669Y-3.2677
X5.5748Y-2.4488
X5.5748Y-2.6772
X5.5827Y-3.4409
X5.6142Y-3.5197
X5.622Y-2.8031
X5.6299Y-3.1181
X5.6535Y-2.7638
X5.6535Y-3.189
X5.6693Y-2.3858
X5.6693Y-3.0157
X5.6693Y-3.1575
X5.6875Y-2.8844
X5.7165Y-3.189
X5.7795Y-2.5512
X5.7874Y-2.7795
X5.7953Y-2.9055
X5.7953Y-3.0236
X5.7953Y-3.0709
X5.8346Y-3.0
X5.8346Y-3.0709
X5.8425Y-3.2598
X5.8898Y-2.7795
X5.9449Y-3.0315
X5.9449Y-3.5197
X5.9478Y-3.375
X5.9685Y-2.8976
X5.9764Y-2.3858
X5.9843Y-2.7087
X6.0472Y-2.5039
X6.0945Y-2.6063
X6.1102Y-2.5039
X6.1181Y-3.1575
X6.126Y-3.3228
X6.1339Y-3.0236
X6.1417Y-2.7087
X6.1575Y-2.6063
X6.1654Y-2.8976
X6.1969Y-2.7087
X6.2047Y-3.0236
X6.2598Y-2.4488
X6.2756Y-3.0787
X6.2756Y-3.5197
T2
X4.7874Y-2.6142
X4.8504Y-2.6142
X5.0157Y-2.7244
X5.2835Y-3.1339
X5.3307Y-3.0787
X5.5118Y-2.9685
X5.6457Y-3.4409
X6.2677Y-3.2835
T3
X5.085Y-2.95
X5.085Y-3.1421
X5.93Y-2.555
X5.93Y-2.855
X6.03Y-2.555
X6.03Y-2.855
X6.13Y-2.555
X6.13Y-2.855
X6.23Y-2.555
X6.23Y-2.855
T4
X6.02Y-3.47
X6.12Y-3.47
X6.22Y-3.47
X4.8031Y-2.4409
X4.8031Y-2.5409
X4.9031Y-2.4409
X4.9031Y-2.5409
X5.0031Y-2.4409
X5.0031Y-2.5409
X5.1031Y-2.4409
X5.1031Y-2.5409
X5.2031Y-2.4409
X5.2031Y-2.5409
X5.3031Y-2.4409
X5.3031Y-2.5409
X6.0732Y-2.4409
X6.1732Y-2.4409
X4.9496Y-3.365
X4.9496Y-3.465
X5.0496Y-3.365
X5.0496Y-3.465
X5.1496Y-3.365
X5.1496Y-3.465
X4.8268Y-3.365
X4.8268Y-3.465
T0
M30
