G04 #@! TF.GenerationSoftware,KiCad,Pcbnew,5.1.6*
G04 #@! TF.CreationDate,2020-09-05T15:44:09+02:00*
G04 #@! TF.ProjectId,usynth-jlcpcb,7573796e-7468-42d6-9a6c-637063622e6b,2*
G04 #@! TF.SameCoordinates,Original*
G04 #@! TF.FileFunction,Soldermask,Bot*
G04 #@! TF.FilePolarity,Negative*
%FSLAX46Y46*%
G04 Gerber Fmt 4.6, Leading zero omitted, Abs format (unit mm)*
G04 Created by KiCad (PCBNEW 5.1.6) date 2020-09-05 15:44:09*
%MOMM*%
%LPD*%
G01*
G04 APERTURE LIST*
%ADD10C,0.100000*%
G04 APERTURE END LIST*
D10*
G36*
X121122321Y-88385047D02*
G01*
X121182889Y-88397095D01*
X121239943Y-88420728D01*
X121296997Y-88444360D01*
X121399687Y-88512975D01*
X121487025Y-88600313D01*
X121555640Y-88703003D01*
X121559513Y-88712353D01*
X121602905Y-88817111D01*
X121607031Y-88837853D01*
X121627000Y-88938245D01*
X121627000Y-89061755D01*
X121602905Y-89182888D01*
X121555640Y-89296997D01*
X121487025Y-89399687D01*
X121399687Y-89487025D01*
X121296997Y-89555640D01*
X121239943Y-89579272D01*
X121182889Y-89602905D01*
X121122321Y-89614953D01*
X121061755Y-89627000D01*
X120938245Y-89627000D01*
X120877679Y-89614953D01*
X120817111Y-89602905D01*
X120760058Y-89579273D01*
X120703003Y-89555640D01*
X120600313Y-89487025D01*
X120512975Y-89399687D01*
X120444360Y-89296997D01*
X120397095Y-89182888D01*
X120373000Y-89061755D01*
X120373000Y-88938245D01*
X120392969Y-88837853D01*
X120397095Y-88817111D01*
X120440487Y-88712353D01*
X120444360Y-88703003D01*
X120512975Y-88600313D01*
X120600313Y-88512975D01*
X120703003Y-88444360D01*
X120760057Y-88420728D01*
X120817111Y-88397095D01*
X120877678Y-88385048D01*
X120938245Y-88373000D01*
X121061755Y-88373000D01*
X121122321Y-88385047D01*
G37*
G36*
X158889000Y-89039000D02*
G01*
X157087000Y-89039000D01*
X157087000Y-87237000D01*
X158889000Y-87237000D01*
X158889000Y-89039000D01*
G37*
G36*
X155561512Y-87241927D02*
G01*
X155710812Y-87271624D01*
X155874784Y-87339544D01*
X156022354Y-87438147D01*
X156147853Y-87563646D01*
X156246456Y-87711216D01*
X156314376Y-87875188D01*
X156349000Y-88049259D01*
X156349000Y-88226741D01*
X156314376Y-88400812D01*
X156246456Y-88564784D01*
X156147853Y-88712354D01*
X156022354Y-88837853D01*
X155874784Y-88936456D01*
X155710812Y-89004376D01*
X155561512Y-89034073D01*
X155536742Y-89039000D01*
X155359258Y-89039000D01*
X155334488Y-89034073D01*
X155185188Y-89004376D01*
X155021216Y-88936456D01*
X154873646Y-88837853D01*
X154748147Y-88712354D01*
X154649544Y-88564784D01*
X154581624Y-88400812D01*
X154547000Y-88226741D01*
X154547000Y-88049259D01*
X154581624Y-87875188D01*
X154649544Y-87711216D01*
X154748147Y-87563646D01*
X154873646Y-87438147D01*
X155021216Y-87339544D01*
X155185188Y-87271624D01*
X155334488Y-87241927D01*
X155359258Y-87237000D01*
X155536742Y-87237000D01*
X155561512Y-87241927D01*
G37*
G36*
X153021512Y-87241927D02*
G01*
X153170812Y-87271624D01*
X153334784Y-87339544D01*
X153482354Y-87438147D01*
X153607853Y-87563646D01*
X153706456Y-87711216D01*
X153774376Y-87875188D01*
X153809000Y-88049259D01*
X153809000Y-88226741D01*
X153774376Y-88400812D01*
X153706456Y-88564784D01*
X153607853Y-88712354D01*
X153482354Y-88837853D01*
X153334784Y-88936456D01*
X153170812Y-89004376D01*
X153021512Y-89034073D01*
X152996742Y-89039000D01*
X152819258Y-89039000D01*
X152794488Y-89034073D01*
X152645188Y-89004376D01*
X152481216Y-88936456D01*
X152333646Y-88837853D01*
X152208147Y-88712354D01*
X152109544Y-88564784D01*
X152041624Y-88400812D01*
X152007000Y-88226741D01*
X152007000Y-88049259D01*
X152041624Y-87875188D01*
X152109544Y-87711216D01*
X152208147Y-87563646D01*
X152333646Y-87438147D01*
X152481216Y-87339544D01*
X152645188Y-87271624D01*
X152794488Y-87241927D01*
X152819258Y-87237000D01*
X152996742Y-87237000D01*
X153021512Y-87241927D01*
G37*
G36*
X122713512Y-87114927D02*
G01*
X122862812Y-87144624D01*
X123026784Y-87212544D01*
X123174354Y-87311147D01*
X123299853Y-87436646D01*
X123398456Y-87584216D01*
X123466376Y-87748188D01*
X123501000Y-87922259D01*
X123501000Y-88099741D01*
X123466376Y-88273812D01*
X123398456Y-88437784D01*
X123299853Y-88585354D01*
X123174354Y-88710853D01*
X123026784Y-88809456D01*
X122862812Y-88877376D01*
X122713512Y-88907073D01*
X122688742Y-88912000D01*
X122511258Y-88912000D01*
X122486488Y-88907073D01*
X122337188Y-88877376D01*
X122173216Y-88809456D01*
X122025646Y-88710853D01*
X121900147Y-88585354D01*
X121801544Y-88437784D01*
X121733624Y-88273812D01*
X121699000Y-88099741D01*
X121699000Y-87922259D01*
X121733624Y-87748188D01*
X121801544Y-87584216D01*
X121900147Y-87436646D01*
X122025646Y-87311147D01*
X122173216Y-87212544D01*
X122337188Y-87144624D01*
X122486488Y-87114927D01*
X122511258Y-87110000D01*
X122688742Y-87110000D01*
X122713512Y-87114927D01*
G37*
G36*
X125833512Y-87114927D02*
G01*
X125982812Y-87144624D01*
X126146784Y-87212544D01*
X126294354Y-87311147D01*
X126419853Y-87436646D01*
X126518456Y-87584216D01*
X126586376Y-87748188D01*
X126621000Y-87922259D01*
X126621000Y-88099741D01*
X126586376Y-88273812D01*
X126518456Y-88437784D01*
X126419853Y-88585354D01*
X126294354Y-88710853D01*
X126146784Y-88809456D01*
X125982812Y-88877376D01*
X125833512Y-88907073D01*
X125808742Y-88912000D01*
X125631258Y-88912000D01*
X125606488Y-88907073D01*
X125457188Y-88877376D01*
X125293216Y-88809456D01*
X125145646Y-88710853D01*
X125020147Y-88585354D01*
X124921544Y-88437784D01*
X124853624Y-88273812D01*
X124819000Y-88099741D01*
X124819000Y-87922259D01*
X124853624Y-87748188D01*
X124921544Y-87584216D01*
X125020147Y-87436646D01*
X125145646Y-87311147D01*
X125293216Y-87212544D01*
X125457188Y-87144624D01*
X125606488Y-87114927D01*
X125631258Y-87110000D01*
X125808742Y-87110000D01*
X125833512Y-87114927D01*
G37*
G36*
X131701000Y-88912000D02*
G01*
X129899000Y-88912000D01*
X129899000Y-87110000D01*
X131701000Y-87110000D01*
X131701000Y-88912000D01*
G37*
G36*
X128373512Y-87114927D02*
G01*
X128522812Y-87144624D01*
X128686784Y-87212544D01*
X128834354Y-87311147D01*
X128959853Y-87436646D01*
X129058456Y-87584216D01*
X129126376Y-87748188D01*
X129161000Y-87922259D01*
X129161000Y-88099741D01*
X129126376Y-88273812D01*
X129058456Y-88437784D01*
X128959853Y-88585354D01*
X128834354Y-88710853D01*
X128686784Y-88809456D01*
X128522812Y-88877376D01*
X128373512Y-88907073D01*
X128348742Y-88912000D01*
X128171258Y-88912000D01*
X128146488Y-88907073D01*
X127997188Y-88877376D01*
X127833216Y-88809456D01*
X127685646Y-88710853D01*
X127560147Y-88585354D01*
X127461544Y-88437784D01*
X127393624Y-88273812D01*
X127359000Y-88099741D01*
X127359000Y-87922259D01*
X127393624Y-87748188D01*
X127461544Y-87584216D01*
X127560147Y-87436646D01*
X127685646Y-87311147D01*
X127833216Y-87212544D01*
X127997188Y-87144624D01*
X128146488Y-87114927D01*
X128171258Y-87110000D01*
X128348742Y-87110000D01*
X128373512Y-87114927D01*
G37*
G36*
X128373512Y-84574927D02*
G01*
X128522812Y-84604624D01*
X128686784Y-84672544D01*
X128834354Y-84771147D01*
X128959853Y-84896646D01*
X129058456Y-85044216D01*
X129126376Y-85208188D01*
X129161000Y-85382259D01*
X129161000Y-85559741D01*
X129126376Y-85733812D01*
X129058456Y-85897784D01*
X128959853Y-86045354D01*
X128834354Y-86170853D01*
X128686784Y-86269456D01*
X128522812Y-86337376D01*
X128373512Y-86367073D01*
X128348742Y-86372000D01*
X128171258Y-86372000D01*
X128146488Y-86367073D01*
X127997188Y-86337376D01*
X127833216Y-86269456D01*
X127685646Y-86170853D01*
X127560147Y-86045354D01*
X127461544Y-85897784D01*
X127393624Y-85733812D01*
X127359000Y-85559741D01*
X127359000Y-85382259D01*
X127393624Y-85208188D01*
X127461544Y-85044216D01*
X127560147Y-84896646D01*
X127685646Y-84771147D01*
X127833216Y-84672544D01*
X127997188Y-84604624D01*
X128146488Y-84574927D01*
X128171258Y-84570000D01*
X128348742Y-84570000D01*
X128373512Y-84574927D01*
G37*
G36*
X125833512Y-84574927D02*
G01*
X125982812Y-84604624D01*
X126146784Y-84672544D01*
X126294354Y-84771147D01*
X126419853Y-84896646D01*
X126518456Y-85044216D01*
X126586376Y-85208188D01*
X126621000Y-85382259D01*
X126621000Y-85559741D01*
X126586376Y-85733812D01*
X126518456Y-85897784D01*
X126419853Y-86045354D01*
X126294354Y-86170853D01*
X126146784Y-86269456D01*
X125982812Y-86337376D01*
X125833512Y-86367073D01*
X125808742Y-86372000D01*
X125631258Y-86372000D01*
X125606488Y-86367073D01*
X125457188Y-86337376D01*
X125293216Y-86269456D01*
X125145646Y-86170853D01*
X125020147Y-86045354D01*
X124921544Y-85897784D01*
X124853624Y-85733812D01*
X124819000Y-85559741D01*
X124819000Y-85382259D01*
X124853624Y-85208188D01*
X124921544Y-85044216D01*
X125020147Y-84896646D01*
X125145646Y-84771147D01*
X125293216Y-84672544D01*
X125457188Y-84604624D01*
X125606488Y-84574927D01*
X125631258Y-84570000D01*
X125808742Y-84570000D01*
X125833512Y-84574927D01*
G37*
G36*
X130913512Y-84574927D02*
G01*
X131062812Y-84604624D01*
X131226784Y-84672544D01*
X131374354Y-84771147D01*
X131499853Y-84896646D01*
X131598456Y-85044216D01*
X131666376Y-85208188D01*
X131701000Y-85382259D01*
X131701000Y-85559741D01*
X131666376Y-85733812D01*
X131598456Y-85897784D01*
X131499853Y-86045354D01*
X131374354Y-86170853D01*
X131226784Y-86269456D01*
X131062812Y-86337376D01*
X130913512Y-86367073D01*
X130888742Y-86372000D01*
X130711258Y-86372000D01*
X130686488Y-86367073D01*
X130537188Y-86337376D01*
X130373216Y-86269456D01*
X130225646Y-86170853D01*
X130100147Y-86045354D01*
X130001544Y-85897784D01*
X129933624Y-85733812D01*
X129899000Y-85559741D01*
X129899000Y-85382259D01*
X129933624Y-85208188D01*
X130001544Y-85044216D01*
X130100147Y-84896646D01*
X130225646Y-84771147D01*
X130373216Y-84672544D01*
X130537188Y-84604624D01*
X130686488Y-84574927D01*
X130711258Y-84570000D01*
X130888742Y-84570000D01*
X130913512Y-84574927D01*
G37*
G36*
X123501000Y-86372000D02*
G01*
X121699000Y-86372000D01*
X121699000Y-84570000D01*
X123501000Y-84570000D01*
X123501000Y-86372000D01*
G37*
G36*
X129392642Y-79039781D02*
G01*
X129538414Y-79100162D01*
X129538416Y-79100163D01*
X129669608Y-79187822D01*
X129781178Y-79299392D01*
X129868837Y-79430584D01*
X129868838Y-79430586D01*
X129929219Y-79576358D01*
X129960000Y-79731107D01*
X129960000Y-79888893D01*
X129929219Y-80043642D01*
X129868838Y-80189414D01*
X129868837Y-80189416D01*
X129781178Y-80320608D01*
X129669608Y-80432178D01*
X129538416Y-80519837D01*
X129538415Y-80519838D01*
X129538414Y-80519838D01*
X129392642Y-80580219D01*
X129237893Y-80611000D01*
X129080107Y-80611000D01*
X128925358Y-80580219D01*
X128779586Y-80519838D01*
X128779585Y-80519838D01*
X128779584Y-80519837D01*
X128648392Y-80432178D01*
X128536822Y-80320608D01*
X128449163Y-80189416D01*
X128449162Y-80189414D01*
X128388781Y-80043642D01*
X128358000Y-79888893D01*
X128358000Y-79731107D01*
X128388781Y-79576358D01*
X128449162Y-79430586D01*
X128449163Y-79430584D01*
X128536822Y-79299392D01*
X128648392Y-79187822D01*
X128779584Y-79100163D01*
X128779586Y-79100162D01*
X128925358Y-79039781D01*
X129080107Y-79009000D01*
X129237893Y-79009000D01*
X129392642Y-79039781D01*
G37*
G36*
X129392642Y-74159781D02*
G01*
X129538414Y-74220162D01*
X129538416Y-74220163D01*
X129669608Y-74307822D01*
X129781178Y-74419392D01*
X129868837Y-74550584D01*
X129868838Y-74550586D01*
X129929219Y-74696358D01*
X129960000Y-74851107D01*
X129960000Y-75008893D01*
X129929219Y-75163642D01*
X129868838Y-75309414D01*
X129868837Y-75309416D01*
X129781178Y-75440608D01*
X129669608Y-75552178D01*
X129538416Y-75639837D01*
X129538415Y-75639838D01*
X129538414Y-75639838D01*
X129392642Y-75700219D01*
X129237893Y-75731000D01*
X129080107Y-75731000D01*
X128925358Y-75700219D01*
X128779586Y-75639838D01*
X128779585Y-75639838D01*
X128779584Y-75639837D01*
X128648392Y-75552178D01*
X128536822Y-75440608D01*
X128449163Y-75309416D01*
X128449162Y-75309414D01*
X128388781Y-75163642D01*
X128358000Y-75008893D01*
X128358000Y-74851107D01*
X128388781Y-74696358D01*
X128449162Y-74550586D01*
X128449163Y-74550584D01*
X128536822Y-74419392D01*
X128648392Y-74307822D01*
X128779584Y-74220163D01*
X128779586Y-74220162D01*
X128925358Y-74159781D01*
X129080107Y-74129000D01*
X129237893Y-74129000D01*
X129392642Y-74159781D01*
G37*
G36*
X153410228Y-71698703D02*
G01*
X153565100Y-71762853D01*
X153704481Y-71855985D01*
X153823015Y-71974519D01*
X153916147Y-72113900D01*
X153980297Y-72268772D01*
X154013000Y-72433184D01*
X154013000Y-72600816D01*
X153980297Y-72765228D01*
X153916147Y-72920100D01*
X153823015Y-73059481D01*
X153704481Y-73178015D01*
X153565100Y-73271147D01*
X153410228Y-73335297D01*
X153245816Y-73368000D01*
X153078184Y-73368000D01*
X152913772Y-73335297D01*
X152758900Y-73271147D01*
X152619519Y-73178015D01*
X152500985Y-73059481D01*
X152407853Y-72920100D01*
X152343703Y-72765228D01*
X152311000Y-72600816D01*
X152311000Y-72433184D01*
X152343703Y-72268772D01*
X152407853Y-72113900D01*
X152500985Y-71974519D01*
X152619519Y-71855985D01*
X152758900Y-71762853D01*
X152913772Y-71698703D01*
X153078184Y-71666000D01*
X153245816Y-71666000D01*
X153410228Y-71698703D01*
G37*
G36*
X150870228Y-71698703D02*
G01*
X151025100Y-71762853D01*
X151164481Y-71855985D01*
X151283015Y-71974519D01*
X151376147Y-72113900D01*
X151440297Y-72268772D01*
X151473000Y-72433184D01*
X151473000Y-72600816D01*
X151440297Y-72765228D01*
X151376147Y-72920100D01*
X151283015Y-73059481D01*
X151164481Y-73178015D01*
X151025100Y-73271147D01*
X150870228Y-73335297D01*
X150705816Y-73368000D01*
X150538184Y-73368000D01*
X150373772Y-73335297D01*
X150218900Y-73271147D01*
X150079519Y-73178015D01*
X149960985Y-73059481D01*
X149867853Y-72920100D01*
X149803703Y-72765228D01*
X149771000Y-72600816D01*
X149771000Y-72433184D01*
X149803703Y-72268772D01*
X149867853Y-72113900D01*
X149960985Y-71974519D01*
X150079519Y-71855985D01*
X150218900Y-71762853D01*
X150373772Y-71698703D01*
X150538184Y-71666000D01*
X150705816Y-71666000D01*
X150870228Y-71698703D01*
G37*
G36*
X155950228Y-71698703D02*
G01*
X156105100Y-71762853D01*
X156244481Y-71855985D01*
X156363015Y-71974519D01*
X156456147Y-72113900D01*
X156520297Y-72268772D01*
X156553000Y-72433184D01*
X156553000Y-72600816D01*
X156520297Y-72765228D01*
X156456147Y-72920100D01*
X156363015Y-73059481D01*
X156244481Y-73178015D01*
X156105100Y-73271147D01*
X155950228Y-73335297D01*
X155785816Y-73368000D01*
X155618184Y-73368000D01*
X155453772Y-73335297D01*
X155298900Y-73271147D01*
X155159519Y-73178015D01*
X155040985Y-73059481D01*
X154947853Y-72920100D01*
X154883703Y-72765228D01*
X154851000Y-72600816D01*
X154851000Y-72433184D01*
X154883703Y-72268772D01*
X154947853Y-72113900D01*
X155040985Y-71974519D01*
X155159519Y-71855985D01*
X155298900Y-71762853D01*
X155453772Y-71698703D01*
X155618184Y-71666000D01*
X155785816Y-71666000D01*
X155950228Y-71698703D01*
G37*
G36*
X158490228Y-71698703D02*
G01*
X158645100Y-71762853D01*
X158784481Y-71855985D01*
X158903015Y-71974519D01*
X158996147Y-72113900D01*
X159060297Y-72268772D01*
X159093000Y-72433184D01*
X159093000Y-72600816D01*
X159060297Y-72765228D01*
X158996147Y-72920100D01*
X158903015Y-73059481D01*
X158784481Y-73178015D01*
X158645100Y-73271147D01*
X158490228Y-73335297D01*
X158325816Y-73368000D01*
X158158184Y-73368000D01*
X157993772Y-73335297D01*
X157838900Y-73271147D01*
X157699519Y-73178015D01*
X157580985Y-73059481D01*
X157487853Y-72920100D01*
X157423703Y-72765228D01*
X157391000Y-72600816D01*
X157391000Y-72433184D01*
X157423703Y-72268772D01*
X157487853Y-72113900D01*
X157580985Y-71974519D01*
X157699519Y-71855985D01*
X157838900Y-71762853D01*
X157993772Y-71698703D01*
X158158184Y-71666000D01*
X158325816Y-71666000D01*
X158490228Y-71698703D01*
G37*
G36*
X153410228Y-64078703D02*
G01*
X153565100Y-64142853D01*
X153704481Y-64235985D01*
X153823015Y-64354519D01*
X153916147Y-64493900D01*
X153980297Y-64648772D01*
X154013000Y-64813184D01*
X154013000Y-64980816D01*
X153980297Y-65145228D01*
X153916147Y-65300100D01*
X153823015Y-65439481D01*
X153704481Y-65558015D01*
X153565100Y-65651147D01*
X153410228Y-65715297D01*
X153245816Y-65748000D01*
X153078184Y-65748000D01*
X152913772Y-65715297D01*
X152758900Y-65651147D01*
X152619519Y-65558015D01*
X152500985Y-65439481D01*
X152407853Y-65300100D01*
X152343703Y-65145228D01*
X152311000Y-64980816D01*
X152311000Y-64813184D01*
X152343703Y-64648772D01*
X152407853Y-64493900D01*
X152500985Y-64354519D01*
X152619519Y-64235985D01*
X152758900Y-64142853D01*
X152913772Y-64078703D01*
X153078184Y-64046000D01*
X153245816Y-64046000D01*
X153410228Y-64078703D01*
G37*
G36*
X158490228Y-64078703D02*
G01*
X158645100Y-64142853D01*
X158784481Y-64235985D01*
X158903015Y-64354519D01*
X158996147Y-64493900D01*
X159060297Y-64648772D01*
X159093000Y-64813184D01*
X159093000Y-64980816D01*
X159060297Y-65145228D01*
X158996147Y-65300100D01*
X158903015Y-65439481D01*
X158784481Y-65558015D01*
X158645100Y-65651147D01*
X158490228Y-65715297D01*
X158325816Y-65748000D01*
X158158184Y-65748000D01*
X157993772Y-65715297D01*
X157838900Y-65651147D01*
X157699519Y-65558015D01*
X157580985Y-65439481D01*
X157487853Y-65300100D01*
X157423703Y-65145228D01*
X157391000Y-64980816D01*
X157391000Y-64813184D01*
X157423703Y-64648772D01*
X157487853Y-64493900D01*
X157580985Y-64354519D01*
X157699519Y-64235985D01*
X157838900Y-64142853D01*
X157993772Y-64078703D01*
X158158184Y-64046000D01*
X158325816Y-64046000D01*
X158490228Y-64078703D01*
G37*
G36*
X151473000Y-65748000D02*
G01*
X149771000Y-65748000D01*
X149771000Y-64046000D01*
X151473000Y-64046000D01*
X151473000Y-65748000D01*
G37*
G36*
X155950228Y-64078703D02*
G01*
X156105100Y-64142853D01*
X156244481Y-64235985D01*
X156363015Y-64354519D01*
X156456147Y-64493900D01*
X156520297Y-64648772D01*
X156553000Y-64813184D01*
X156553000Y-64980816D01*
X156520297Y-65145228D01*
X156456147Y-65300100D01*
X156363015Y-65439481D01*
X156244481Y-65558015D01*
X156105100Y-65651147D01*
X155950228Y-65715297D01*
X155785816Y-65748000D01*
X155618184Y-65748000D01*
X155453772Y-65715297D01*
X155298900Y-65651147D01*
X155159519Y-65558015D01*
X155040985Y-65439481D01*
X154947853Y-65300100D01*
X154883703Y-65145228D01*
X154851000Y-64980816D01*
X154851000Y-64813184D01*
X154883703Y-64648772D01*
X154947853Y-64493900D01*
X155040985Y-64354519D01*
X155159519Y-64235985D01*
X155298900Y-64142853D01*
X155453772Y-64078703D01*
X155618184Y-64046000D01*
X155785816Y-64046000D01*
X155950228Y-64078703D01*
G37*
G36*
X129733512Y-63643927D02*
G01*
X129882812Y-63673624D01*
X130046784Y-63741544D01*
X130194354Y-63840147D01*
X130319853Y-63965646D01*
X130418456Y-64113216D01*
X130486376Y-64277188D01*
X130521000Y-64451259D01*
X130521000Y-64628741D01*
X130486376Y-64802812D01*
X130418456Y-64966784D01*
X130319853Y-65114354D01*
X130194354Y-65239853D01*
X130046784Y-65338456D01*
X129882812Y-65406376D01*
X129733512Y-65436073D01*
X129708742Y-65441000D01*
X129531258Y-65441000D01*
X129506488Y-65436073D01*
X129357188Y-65406376D01*
X129193216Y-65338456D01*
X129045646Y-65239853D01*
X128920147Y-65114354D01*
X128821544Y-64966784D01*
X128753624Y-64802812D01*
X128719000Y-64628741D01*
X128719000Y-64451259D01*
X128753624Y-64277188D01*
X128821544Y-64113216D01*
X128920147Y-63965646D01*
X129045646Y-63840147D01*
X129193216Y-63741544D01*
X129357188Y-63673624D01*
X129506488Y-63643927D01*
X129531258Y-63639000D01*
X129708742Y-63639000D01*
X129733512Y-63643927D01*
G37*
G36*
X122113512Y-63643927D02*
G01*
X122262812Y-63673624D01*
X122426784Y-63741544D01*
X122574354Y-63840147D01*
X122699853Y-63965646D01*
X122798456Y-64113216D01*
X122866376Y-64277188D01*
X122901000Y-64451259D01*
X122901000Y-64628741D01*
X122866376Y-64802812D01*
X122798456Y-64966784D01*
X122699853Y-65114354D01*
X122574354Y-65239853D01*
X122426784Y-65338456D01*
X122262812Y-65406376D01*
X122113512Y-65436073D01*
X122088742Y-65441000D01*
X121911258Y-65441000D01*
X121886488Y-65436073D01*
X121737188Y-65406376D01*
X121573216Y-65338456D01*
X121425646Y-65239853D01*
X121300147Y-65114354D01*
X121201544Y-64966784D01*
X121133624Y-64802812D01*
X121099000Y-64628741D01*
X121099000Y-64451259D01*
X121133624Y-64277188D01*
X121201544Y-64113216D01*
X121300147Y-63965646D01*
X121425646Y-63840147D01*
X121573216Y-63741544D01*
X121737188Y-63673624D01*
X121886488Y-63643927D01*
X121911258Y-63639000D01*
X122088742Y-63639000D01*
X122113512Y-63643927D01*
G37*
G36*
X124653512Y-63643927D02*
G01*
X124802812Y-63673624D01*
X124966784Y-63741544D01*
X125114354Y-63840147D01*
X125239853Y-63965646D01*
X125338456Y-64113216D01*
X125406376Y-64277188D01*
X125441000Y-64451259D01*
X125441000Y-64628741D01*
X125406376Y-64802812D01*
X125338456Y-64966784D01*
X125239853Y-65114354D01*
X125114354Y-65239853D01*
X124966784Y-65338456D01*
X124802812Y-65406376D01*
X124653512Y-65436073D01*
X124628742Y-65441000D01*
X124451258Y-65441000D01*
X124426488Y-65436073D01*
X124277188Y-65406376D01*
X124113216Y-65338456D01*
X123965646Y-65239853D01*
X123840147Y-65114354D01*
X123741544Y-64966784D01*
X123673624Y-64802812D01*
X123639000Y-64628741D01*
X123639000Y-64451259D01*
X123673624Y-64277188D01*
X123741544Y-64113216D01*
X123840147Y-63965646D01*
X123965646Y-63840147D01*
X124113216Y-63741544D01*
X124277188Y-63673624D01*
X124426488Y-63643927D01*
X124451258Y-63639000D01*
X124628742Y-63639000D01*
X124653512Y-63643927D01*
G37*
G36*
X127193512Y-63643927D02*
G01*
X127342812Y-63673624D01*
X127506784Y-63741544D01*
X127654354Y-63840147D01*
X127779853Y-63965646D01*
X127878456Y-64113216D01*
X127946376Y-64277188D01*
X127981000Y-64451259D01*
X127981000Y-64628741D01*
X127946376Y-64802812D01*
X127878456Y-64966784D01*
X127779853Y-65114354D01*
X127654354Y-65239853D01*
X127506784Y-65338456D01*
X127342812Y-65406376D01*
X127193512Y-65436073D01*
X127168742Y-65441000D01*
X126991258Y-65441000D01*
X126966488Y-65436073D01*
X126817188Y-65406376D01*
X126653216Y-65338456D01*
X126505646Y-65239853D01*
X126380147Y-65114354D01*
X126281544Y-64966784D01*
X126213624Y-64802812D01*
X126179000Y-64628741D01*
X126179000Y-64451259D01*
X126213624Y-64277188D01*
X126281544Y-64113216D01*
X126380147Y-63965646D01*
X126505646Y-63840147D01*
X126653216Y-63741544D01*
X126817188Y-63673624D01*
X126966488Y-63643927D01*
X126991258Y-63639000D01*
X127168742Y-63639000D01*
X127193512Y-63643927D01*
G37*
G36*
X132273512Y-63643927D02*
G01*
X132422812Y-63673624D01*
X132586784Y-63741544D01*
X132734354Y-63840147D01*
X132859853Y-63965646D01*
X132958456Y-64113216D01*
X133026376Y-64277188D01*
X133061000Y-64451259D01*
X133061000Y-64628741D01*
X133026376Y-64802812D01*
X132958456Y-64966784D01*
X132859853Y-65114354D01*
X132734354Y-65239853D01*
X132586784Y-65338456D01*
X132422812Y-65406376D01*
X132273512Y-65436073D01*
X132248742Y-65441000D01*
X132071258Y-65441000D01*
X132046488Y-65436073D01*
X131897188Y-65406376D01*
X131733216Y-65338456D01*
X131585646Y-65239853D01*
X131460147Y-65114354D01*
X131361544Y-64966784D01*
X131293624Y-64802812D01*
X131259000Y-64628741D01*
X131259000Y-64451259D01*
X131293624Y-64277188D01*
X131361544Y-64113216D01*
X131460147Y-63965646D01*
X131585646Y-63840147D01*
X131733216Y-63741544D01*
X131897188Y-63673624D01*
X132046488Y-63643927D01*
X132071258Y-63639000D01*
X132248742Y-63639000D01*
X132273512Y-63643927D01*
G37*
G36*
X135601000Y-65441000D02*
G01*
X133799000Y-65441000D01*
X133799000Y-63639000D01*
X135601000Y-63639000D01*
X135601000Y-65441000D01*
G37*
G36*
X143384468Y-62603565D02*
G01*
X143423138Y-62615296D01*
X143458777Y-62634346D01*
X143490017Y-62659983D01*
X143515654Y-62691223D01*
X143534704Y-62726862D01*
X143546435Y-62765532D01*
X143551000Y-62811888D01*
X143551000Y-63463112D01*
X143546435Y-63509468D01*
X143534704Y-63548138D01*
X143515654Y-63583777D01*
X143490017Y-63615017D01*
X143458777Y-63640654D01*
X143423138Y-63659704D01*
X143384468Y-63671435D01*
X143338112Y-63676000D01*
X142261888Y-63676000D01*
X142215532Y-63671435D01*
X142176862Y-63659704D01*
X142141223Y-63640654D01*
X142109983Y-63615017D01*
X142084346Y-63583777D01*
X142065296Y-63548138D01*
X142053565Y-63509468D01*
X142049000Y-63463112D01*
X142049000Y-62811888D01*
X142053565Y-62765532D01*
X142065296Y-62726862D01*
X142084346Y-62691223D01*
X142109983Y-62659983D01*
X142141223Y-62634346D01*
X142176862Y-62615296D01*
X142215532Y-62603565D01*
X142261888Y-62599000D01*
X143338112Y-62599000D01*
X143384468Y-62603565D01*
G37*
G36*
X141184468Y-62603565D02*
G01*
X141223138Y-62615296D01*
X141258777Y-62634346D01*
X141290017Y-62659983D01*
X141315654Y-62691223D01*
X141334704Y-62726862D01*
X141346435Y-62765532D01*
X141351000Y-62811888D01*
X141351000Y-63463112D01*
X141346435Y-63509468D01*
X141334704Y-63548138D01*
X141315654Y-63583777D01*
X141290017Y-63615017D01*
X141258777Y-63640654D01*
X141223138Y-63659704D01*
X141184468Y-63671435D01*
X141138112Y-63676000D01*
X140061888Y-63676000D01*
X140015532Y-63671435D01*
X139976862Y-63659704D01*
X139941223Y-63640654D01*
X139909983Y-63615017D01*
X139884346Y-63583777D01*
X139865296Y-63548138D01*
X139853565Y-63509468D01*
X139849000Y-63463112D01*
X139849000Y-62811888D01*
X139853565Y-62765532D01*
X139865296Y-62726862D01*
X139884346Y-62691223D01*
X139909983Y-62659983D01*
X139941223Y-62634346D01*
X139976862Y-62615296D01*
X140015532Y-62603565D01*
X140061888Y-62599000D01*
X141138112Y-62599000D01*
X141184468Y-62603565D01*
G37*
G36*
X138984468Y-62603565D02*
G01*
X139023138Y-62615296D01*
X139058777Y-62634346D01*
X139090017Y-62659983D01*
X139115654Y-62691223D01*
X139134704Y-62726862D01*
X139146435Y-62765532D01*
X139151000Y-62811888D01*
X139151000Y-63463112D01*
X139146435Y-63509468D01*
X139134704Y-63548138D01*
X139115654Y-63583777D01*
X139090017Y-63615017D01*
X139058777Y-63640654D01*
X139023138Y-63659704D01*
X138984468Y-63671435D01*
X138938112Y-63676000D01*
X137861888Y-63676000D01*
X137815532Y-63671435D01*
X137776862Y-63659704D01*
X137741223Y-63640654D01*
X137709983Y-63615017D01*
X137684346Y-63583777D01*
X137665296Y-63548138D01*
X137653565Y-63509468D01*
X137649000Y-63463112D01*
X137649000Y-62811888D01*
X137653565Y-62765532D01*
X137665296Y-62726862D01*
X137684346Y-62691223D01*
X137709983Y-62659983D01*
X137741223Y-62634346D01*
X137776862Y-62615296D01*
X137815532Y-62603565D01*
X137861888Y-62599000D01*
X138938112Y-62599000D01*
X138984468Y-62603565D01*
G37*
G36*
X129733512Y-61103927D02*
G01*
X129882812Y-61133624D01*
X130046784Y-61201544D01*
X130194354Y-61300147D01*
X130319853Y-61425646D01*
X130418456Y-61573216D01*
X130486376Y-61737188D01*
X130521000Y-61911259D01*
X130521000Y-62088741D01*
X130486376Y-62262812D01*
X130418456Y-62426784D01*
X130319853Y-62574354D01*
X130194354Y-62699853D01*
X130046784Y-62798456D01*
X129882812Y-62866376D01*
X129733512Y-62896073D01*
X129708742Y-62901000D01*
X129531258Y-62901000D01*
X129506488Y-62896073D01*
X129357188Y-62866376D01*
X129193216Y-62798456D01*
X129045646Y-62699853D01*
X128920147Y-62574354D01*
X128821544Y-62426784D01*
X128753624Y-62262812D01*
X128719000Y-62088741D01*
X128719000Y-61911259D01*
X128753624Y-61737188D01*
X128821544Y-61573216D01*
X128920147Y-61425646D01*
X129045646Y-61300147D01*
X129193216Y-61201544D01*
X129357188Y-61133624D01*
X129506488Y-61103927D01*
X129531258Y-61099000D01*
X129708742Y-61099000D01*
X129733512Y-61103927D01*
G37*
G36*
X122113512Y-61103927D02*
G01*
X122262812Y-61133624D01*
X122426784Y-61201544D01*
X122574354Y-61300147D01*
X122699853Y-61425646D01*
X122798456Y-61573216D01*
X122866376Y-61737188D01*
X122901000Y-61911259D01*
X122901000Y-62088741D01*
X122866376Y-62262812D01*
X122798456Y-62426784D01*
X122699853Y-62574354D01*
X122574354Y-62699853D01*
X122426784Y-62798456D01*
X122262812Y-62866376D01*
X122113512Y-62896073D01*
X122088742Y-62901000D01*
X121911258Y-62901000D01*
X121886488Y-62896073D01*
X121737188Y-62866376D01*
X121573216Y-62798456D01*
X121425646Y-62699853D01*
X121300147Y-62574354D01*
X121201544Y-62426784D01*
X121133624Y-62262812D01*
X121099000Y-62088741D01*
X121099000Y-61911259D01*
X121133624Y-61737188D01*
X121201544Y-61573216D01*
X121300147Y-61425646D01*
X121425646Y-61300147D01*
X121573216Y-61201544D01*
X121737188Y-61133624D01*
X121886488Y-61103927D01*
X121911258Y-61099000D01*
X122088742Y-61099000D01*
X122113512Y-61103927D01*
G37*
G36*
X124653512Y-61103927D02*
G01*
X124802812Y-61133624D01*
X124966784Y-61201544D01*
X125114354Y-61300147D01*
X125239853Y-61425646D01*
X125338456Y-61573216D01*
X125406376Y-61737188D01*
X125441000Y-61911259D01*
X125441000Y-62088741D01*
X125406376Y-62262812D01*
X125338456Y-62426784D01*
X125239853Y-62574354D01*
X125114354Y-62699853D01*
X124966784Y-62798456D01*
X124802812Y-62866376D01*
X124653512Y-62896073D01*
X124628742Y-62901000D01*
X124451258Y-62901000D01*
X124426488Y-62896073D01*
X124277188Y-62866376D01*
X124113216Y-62798456D01*
X123965646Y-62699853D01*
X123840147Y-62574354D01*
X123741544Y-62426784D01*
X123673624Y-62262812D01*
X123639000Y-62088741D01*
X123639000Y-61911259D01*
X123673624Y-61737188D01*
X123741544Y-61573216D01*
X123840147Y-61425646D01*
X123965646Y-61300147D01*
X124113216Y-61201544D01*
X124277188Y-61133624D01*
X124426488Y-61103927D01*
X124451258Y-61099000D01*
X124628742Y-61099000D01*
X124653512Y-61103927D01*
G37*
G36*
X134813512Y-61103927D02*
G01*
X134962812Y-61133624D01*
X135126784Y-61201544D01*
X135274354Y-61300147D01*
X135399853Y-61425646D01*
X135498456Y-61573216D01*
X135566376Y-61737188D01*
X135601000Y-61911259D01*
X135601000Y-62088741D01*
X135566376Y-62262812D01*
X135498456Y-62426784D01*
X135399853Y-62574354D01*
X135274354Y-62699853D01*
X135126784Y-62798456D01*
X134962812Y-62866376D01*
X134813512Y-62896073D01*
X134788742Y-62901000D01*
X134611258Y-62901000D01*
X134586488Y-62896073D01*
X134437188Y-62866376D01*
X134273216Y-62798456D01*
X134125646Y-62699853D01*
X134000147Y-62574354D01*
X133901544Y-62426784D01*
X133833624Y-62262812D01*
X133799000Y-62088741D01*
X133799000Y-61911259D01*
X133833624Y-61737188D01*
X133901544Y-61573216D01*
X134000147Y-61425646D01*
X134125646Y-61300147D01*
X134273216Y-61201544D01*
X134437188Y-61133624D01*
X134586488Y-61103927D01*
X134611258Y-61099000D01*
X134788742Y-61099000D01*
X134813512Y-61103927D01*
G37*
G36*
X154373512Y-61103927D02*
G01*
X154522812Y-61133624D01*
X154686784Y-61201544D01*
X154834354Y-61300147D01*
X154959853Y-61425646D01*
X155058456Y-61573216D01*
X155126376Y-61737188D01*
X155161000Y-61911259D01*
X155161000Y-62088741D01*
X155126376Y-62262812D01*
X155058456Y-62426784D01*
X154959853Y-62574354D01*
X154834354Y-62699853D01*
X154686784Y-62798456D01*
X154522812Y-62866376D01*
X154373512Y-62896073D01*
X154348742Y-62901000D01*
X154171258Y-62901000D01*
X154146488Y-62896073D01*
X153997188Y-62866376D01*
X153833216Y-62798456D01*
X153685646Y-62699853D01*
X153560147Y-62574354D01*
X153461544Y-62426784D01*
X153393624Y-62262812D01*
X153359000Y-62088741D01*
X153359000Y-61911259D01*
X153393624Y-61737188D01*
X153461544Y-61573216D01*
X153560147Y-61425646D01*
X153685646Y-61300147D01*
X153833216Y-61201544D01*
X153997188Y-61133624D01*
X154146488Y-61103927D01*
X154171258Y-61099000D01*
X154348742Y-61099000D01*
X154373512Y-61103927D01*
G37*
G36*
X157701000Y-62901000D02*
G01*
X155899000Y-62901000D01*
X155899000Y-61099000D01*
X157701000Y-61099000D01*
X157701000Y-62901000D01*
G37*
G36*
X132273512Y-61103927D02*
G01*
X132422812Y-61133624D01*
X132586784Y-61201544D01*
X132734354Y-61300147D01*
X132859853Y-61425646D01*
X132958456Y-61573216D01*
X133026376Y-61737188D01*
X133061000Y-61911259D01*
X133061000Y-62088741D01*
X133026376Y-62262812D01*
X132958456Y-62426784D01*
X132859853Y-62574354D01*
X132734354Y-62699853D01*
X132586784Y-62798456D01*
X132422812Y-62866376D01*
X132273512Y-62896073D01*
X132248742Y-62901000D01*
X132071258Y-62901000D01*
X132046488Y-62896073D01*
X131897188Y-62866376D01*
X131733216Y-62798456D01*
X131585646Y-62699853D01*
X131460147Y-62574354D01*
X131361544Y-62426784D01*
X131293624Y-62262812D01*
X131259000Y-62088741D01*
X131259000Y-61911259D01*
X131293624Y-61737188D01*
X131361544Y-61573216D01*
X131460147Y-61425646D01*
X131585646Y-61300147D01*
X131733216Y-61201544D01*
X131897188Y-61133624D01*
X132046488Y-61103927D01*
X132071258Y-61099000D01*
X132248742Y-61099000D01*
X132273512Y-61103927D01*
G37*
G36*
X127193512Y-61103927D02*
G01*
X127342812Y-61133624D01*
X127506784Y-61201544D01*
X127654354Y-61300147D01*
X127779853Y-61425646D01*
X127878456Y-61573216D01*
X127946376Y-61737188D01*
X127981000Y-61911259D01*
X127981000Y-62088741D01*
X127946376Y-62262812D01*
X127878456Y-62426784D01*
X127779853Y-62574354D01*
X127654354Y-62699853D01*
X127506784Y-62798456D01*
X127342812Y-62866376D01*
X127193512Y-62896073D01*
X127168742Y-62901000D01*
X126991258Y-62901000D01*
X126966488Y-62896073D01*
X126817188Y-62866376D01*
X126653216Y-62798456D01*
X126505646Y-62699853D01*
X126380147Y-62574354D01*
X126281544Y-62426784D01*
X126213624Y-62262812D01*
X126179000Y-62088741D01*
X126179000Y-61911259D01*
X126213624Y-61737188D01*
X126281544Y-61573216D01*
X126380147Y-61425646D01*
X126505646Y-61300147D01*
X126653216Y-61201544D01*
X126817188Y-61133624D01*
X126966488Y-61103927D01*
X126991258Y-61099000D01*
X127168742Y-61099000D01*
X127193512Y-61103927D01*
G37*
G36*
X141184468Y-60728565D02*
G01*
X141223138Y-60740296D01*
X141258777Y-60759346D01*
X141290017Y-60784983D01*
X141315654Y-60816223D01*
X141334704Y-60851862D01*
X141346435Y-60890532D01*
X141351000Y-60936888D01*
X141351000Y-61588112D01*
X141346435Y-61634468D01*
X141334704Y-61673138D01*
X141315654Y-61708777D01*
X141290017Y-61740017D01*
X141258777Y-61765654D01*
X141223138Y-61784704D01*
X141184468Y-61796435D01*
X141138112Y-61801000D01*
X140061888Y-61801000D01*
X140015532Y-61796435D01*
X139976862Y-61784704D01*
X139941223Y-61765654D01*
X139909983Y-61740017D01*
X139884346Y-61708777D01*
X139865296Y-61673138D01*
X139853565Y-61634468D01*
X139849000Y-61588112D01*
X139849000Y-60936888D01*
X139853565Y-60890532D01*
X139865296Y-60851862D01*
X139884346Y-60816223D01*
X139909983Y-60784983D01*
X139941223Y-60759346D01*
X139976862Y-60740296D01*
X140015532Y-60728565D01*
X140061888Y-60724000D01*
X141138112Y-60724000D01*
X141184468Y-60728565D01*
G37*
G36*
X143384468Y-60728565D02*
G01*
X143423138Y-60740296D01*
X143458777Y-60759346D01*
X143490017Y-60784983D01*
X143515654Y-60816223D01*
X143534704Y-60851862D01*
X143546435Y-60890532D01*
X143551000Y-60936888D01*
X143551000Y-61588112D01*
X143546435Y-61634468D01*
X143534704Y-61673138D01*
X143515654Y-61708777D01*
X143490017Y-61740017D01*
X143458777Y-61765654D01*
X143423138Y-61784704D01*
X143384468Y-61796435D01*
X143338112Y-61801000D01*
X142261888Y-61801000D01*
X142215532Y-61796435D01*
X142176862Y-61784704D01*
X142141223Y-61765654D01*
X142109983Y-61740017D01*
X142084346Y-61708777D01*
X142065296Y-61673138D01*
X142053565Y-61634468D01*
X142049000Y-61588112D01*
X142049000Y-60936888D01*
X142053565Y-60890532D01*
X142065296Y-60851862D01*
X142084346Y-60816223D01*
X142109983Y-60784983D01*
X142141223Y-60759346D01*
X142176862Y-60740296D01*
X142215532Y-60728565D01*
X142261888Y-60724000D01*
X143338112Y-60724000D01*
X143384468Y-60728565D01*
G37*
G36*
X138984468Y-60728565D02*
G01*
X139023138Y-60740296D01*
X139058777Y-60759346D01*
X139090017Y-60784983D01*
X139115654Y-60816223D01*
X139134704Y-60851862D01*
X139146435Y-60890532D01*
X139151000Y-60936888D01*
X139151000Y-61588112D01*
X139146435Y-61634468D01*
X139134704Y-61673138D01*
X139115654Y-61708777D01*
X139090017Y-61740017D01*
X139058777Y-61765654D01*
X139023138Y-61784704D01*
X138984468Y-61796435D01*
X138938112Y-61801000D01*
X137861888Y-61801000D01*
X137815532Y-61796435D01*
X137776862Y-61784704D01*
X137741223Y-61765654D01*
X137709983Y-61740017D01*
X137684346Y-61708777D01*
X137665296Y-61673138D01*
X137653565Y-61634468D01*
X137649000Y-61588112D01*
X137649000Y-60936888D01*
X137653565Y-60890532D01*
X137665296Y-60851862D01*
X137684346Y-60816223D01*
X137709983Y-60784983D01*
X137741223Y-60759346D01*
X137776862Y-60740296D01*
X137815532Y-60728565D01*
X137861888Y-60724000D01*
X138938112Y-60724000D01*
X138984468Y-60728565D01*
G37*
G36*
X159122322Y-60385048D02*
G01*
X159182889Y-60397095D01*
X159239942Y-60420727D01*
X159296997Y-60444360D01*
X159399687Y-60512975D01*
X159487025Y-60600313D01*
X159555640Y-60703003D01*
X159602905Y-60817112D01*
X159627000Y-60938245D01*
X159627000Y-61061755D01*
X159602905Y-61182888D01*
X159555640Y-61296997D01*
X159487025Y-61399687D01*
X159399687Y-61487025D01*
X159296997Y-61555640D01*
X159239943Y-61579272D01*
X159182889Y-61602905D01*
X159122321Y-61614953D01*
X159061755Y-61627000D01*
X158938245Y-61627000D01*
X158877679Y-61614953D01*
X158817111Y-61602905D01*
X158760058Y-61579273D01*
X158703003Y-61555640D01*
X158600313Y-61487025D01*
X158512975Y-61399687D01*
X158444360Y-61296997D01*
X158397095Y-61182888D01*
X158373000Y-61061755D01*
X158373000Y-60938245D01*
X158397095Y-60817112D01*
X158444360Y-60703003D01*
X158512975Y-60600313D01*
X158600313Y-60512975D01*
X158703003Y-60444360D01*
X158760057Y-60420728D01*
X158817111Y-60397095D01*
X158877678Y-60385048D01*
X158938245Y-60373000D01*
X159061755Y-60373000D01*
X159122322Y-60385048D01*
G37*
M02*
