G04 #@! TF.GenerationSoftware,KiCad,Pcbnew,5.1.6*
G04 #@! TF.CreationDate,2020-09-05T13:36:47+02:00*
G04 #@! TF.ProjectId,usynth,7573796e-7468-42e6-9b69-6361645f7063,2*
G04 #@! TF.SameCoordinates,Original*
G04 #@! TF.FileFunction,Soldermask,Top*
G04 #@! TF.FilePolarity,Negative*
%FSLAX46Y46*%
G04 Gerber Fmt 4.6, Leading zero omitted, Abs format (unit mm)*
G04 Created by KiCad (PCBNEW 5.1.6) date 2020-09-05 13:36:47*
%MOMM*%
%LPD*%
G01*
G04 APERTURE LIST*
%ADD10C,0.100000*%
G04 APERTURE END LIST*
D10*
G36*
X145234468Y-87753565D02*
G01*
X145273138Y-87765296D01*
X145308777Y-87784346D01*
X145340017Y-87809983D01*
X145365654Y-87841223D01*
X145384704Y-87876862D01*
X145396435Y-87915532D01*
X145401000Y-87961888D01*
X145401000Y-89038112D01*
X145396435Y-89084468D01*
X145384704Y-89123138D01*
X145365654Y-89158777D01*
X145340017Y-89190017D01*
X145308777Y-89215654D01*
X145273138Y-89234704D01*
X145234468Y-89246435D01*
X145188112Y-89251000D01*
X144536888Y-89251000D01*
X144490532Y-89246435D01*
X144451862Y-89234704D01*
X144416223Y-89215654D01*
X144384983Y-89190017D01*
X144359346Y-89158777D01*
X144340296Y-89123138D01*
X144328565Y-89084468D01*
X144324000Y-89038112D01*
X144324000Y-87961888D01*
X144328565Y-87915532D01*
X144340296Y-87876862D01*
X144359346Y-87841223D01*
X144384983Y-87809983D01*
X144416223Y-87784346D01*
X144451862Y-87765296D01*
X144490532Y-87753565D01*
X144536888Y-87749000D01*
X145188112Y-87749000D01*
X145234468Y-87753565D01*
G37*
G36*
X147109468Y-87753565D02*
G01*
X147148138Y-87765296D01*
X147183777Y-87784346D01*
X147215017Y-87809983D01*
X147240654Y-87841223D01*
X147259704Y-87876862D01*
X147271435Y-87915532D01*
X147276000Y-87961888D01*
X147276000Y-89038112D01*
X147271435Y-89084468D01*
X147259704Y-89123138D01*
X147240654Y-89158777D01*
X147215017Y-89190017D01*
X147183777Y-89215654D01*
X147148138Y-89234704D01*
X147109468Y-89246435D01*
X147063112Y-89251000D01*
X146411888Y-89251000D01*
X146365532Y-89246435D01*
X146326862Y-89234704D01*
X146291223Y-89215654D01*
X146259983Y-89190017D01*
X146234346Y-89158777D01*
X146215296Y-89123138D01*
X146203565Y-89084468D01*
X146199000Y-89038112D01*
X146199000Y-87961888D01*
X146203565Y-87915532D01*
X146215296Y-87876862D01*
X146234346Y-87841223D01*
X146259983Y-87809983D01*
X146291223Y-87784346D01*
X146326862Y-87765296D01*
X146365532Y-87753565D01*
X146411888Y-87749000D01*
X147063112Y-87749000D01*
X147109468Y-87753565D01*
G37*
G36*
X158889000Y-89039000D02*
G01*
X157087000Y-89039000D01*
X157087000Y-87237000D01*
X158889000Y-87237000D01*
X158889000Y-89039000D01*
G37*
G36*
X153021512Y-87241927D02*
G01*
X153170812Y-87271624D01*
X153334784Y-87339544D01*
X153482354Y-87438147D01*
X153607853Y-87563646D01*
X153706456Y-87711216D01*
X153774376Y-87875188D01*
X153809000Y-88049259D01*
X153809000Y-88226741D01*
X153774376Y-88400812D01*
X153706456Y-88564784D01*
X153607853Y-88712354D01*
X153482354Y-88837853D01*
X153334784Y-88936456D01*
X153170812Y-89004376D01*
X153021512Y-89034073D01*
X152996742Y-89039000D01*
X152819258Y-89039000D01*
X152794488Y-89034073D01*
X152645188Y-89004376D01*
X152481216Y-88936456D01*
X152333646Y-88837853D01*
X152208147Y-88712354D01*
X152109544Y-88564784D01*
X152041624Y-88400812D01*
X152007000Y-88226741D01*
X152007000Y-88049259D01*
X152041624Y-87875188D01*
X152109544Y-87711216D01*
X152208147Y-87563646D01*
X152333646Y-87438147D01*
X152481216Y-87339544D01*
X152645188Y-87271624D01*
X152794488Y-87241927D01*
X152819258Y-87237000D01*
X152996742Y-87237000D01*
X153021512Y-87241927D01*
G37*
G36*
X155561512Y-87241927D02*
G01*
X155710812Y-87271624D01*
X155874784Y-87339544D01*
X156022354Y-87438147D01*
X156147853Y-87563646D01*
X156246456Y-87711216D01*
X156314376Y-87875188D01*
X156349000Y-88049259D01*
X156349000Y-88226741D01*
X156314376Y-88400812D01*
X156246456Y-88564784D01*
X156147853Y-88712354D01*
X156022354Y-88837853D01*
X155874784Y-88936456D01*
X155710812Y-89004376D01*
X155561512Y-89034073D01*
X155536742Y-89039000D01*
X155359258Y-89039000D01*
X155334488Y-89034073D01*
X155185188Y-89004376D01*
X155021216Y-88936456D01*
X154873646Y-88837853D01*
X154748147Y-88712354D01*
X154649544Y-88564784D01*
X154581624Y-88400812D01*
X154547000Y-88226741D01*
X154547000Y-88049259D01*
X154581624Y-87875188D01*
X154649544Y-87711216D01*
X154748147Y-87563646D01*
X154873646Y-87438147D01*
X155021216Y-87339544D01*
X155185188Y-87271624D01*
X155334488Y-87241927D01*
X155359258Y-87237000D01*
X155536742Y-87237000D01*
X155561512Y-87241927D01*
G37*
G36*
X149184468Y-87903565D02*
G01*
X149223138Y-87915296D01*
X149258777Y-87934346D01*
X149290017Y-87959983D01*
X149315654Y-87991223D01*
X149334704Y-88026862D01*
X149346435Y-88065532D01*
X149351000Y-88111888D01*
X149351000Y-88763112D01*
X149346435Y-88809468D01*
X149334704Y-88848138D01*
X149315654Y-88883777D01*
X149290017Y-88915017D01*
X149258777Y-88940654D01*
X149223138Y-88959704D01*
X149184468Y-88971435D01*
X149138112Y-88976000D01*
X148061888Y-88976000D01*
X148015532Y-88971435D01*
X147976862Y-88959704D01*
X147941223Y-88940654D01*
X147909983Y-88915017D01*
X147884346Y-88883777D01*
X147865296Y-88848138D01*
X147853565Y-88809468D01*
X147849000Y-88763112D01*
X147849000Y-88111888D01*
X147853565Y-88065532D01*
X147865296Y-88026862D01*
X147884346Y-87991223D01*
X147909983Y-87959983D01*
X147941223Y-87934346D01*
X147976862Y-87915296D01*
X148015532Y-87903565D01*
X148061888Y-87899000D01*
X149138112Y-87899000D01*
X149184468Y-87903565D01*
G37*
G36*
X122033512Y-87114927D02*
G01*
X122182812Y-87144624D01*
X122346784Y-87212544D01*
X122494354Y-87311147D01*
X122619853Y-87436646D01*
X122718456Y-87584216D01*
X122786376Y-87748188D01*
X122821000Y-87922259D01*
X122821000Y-88099741D01*
X122786376Y-88273812D01*
X122718456Y-88437784D01*
X122619853Y-88585354D01*
X122494354Y-88710853D01*
X122346784Y-88809456D01*
X122182812Y-88877376D01*
X122033512Y-88907073D01*
X122008742Y-88912000D01*
X121831258Y-88912000D01*
X121806488Y-88907073D01*
X121657188Y-88877376D01*
X121493216Y-88809456D01*
X121345646Y-88710853D01*
X121220147Y-88585354D01*
X121121544Y-88437784D01*
X121053624Y-88273812D01*
X121019000Y-88099741D01*
X121019000Y-87922259D01*
X121053624Y-87748188D01*
X121121544Y-87584216D01*
X121220147Y-87436646D01*
X121345646Y-87311147D01*
X121493216Y-87212544D01*
X121657188Y-87144624D01*
X121806488Y-87114927D01*
X121831258Y-87110000D01*
X122008742Y-87110000D01*
X122033512Y-87114927D01*
G37*
G36*
X131701000Y-88912000D02*
G01*
X129899000Y-88912000D01*
X129899000Y-87110000D01*
X131701000Y-87110000D01*
X131701000Y-88912000D01*
G37*
G36*
X128373512Y-87114927D02*
G01*
X128522812Y-87144624D01*
X128686784Y-87212544D01*
X128834354Y-87311147D01*
X128959853Y-87436646D01*
X129058456Y-87584216D01*
X129126376Y-87748188D01*
X129161000Y-87922259D01*
X129161000Y-88099741D01*
X129126376Y-88273812D01*
X129058456Y-88437784D01*
X128959853Y-88585354D01*
X128834354Y-88710853D01*
X128686784Y-88809456D01*
X128522812Y-88877376D01*
X128373512Y-88907073D01*
X128348742Y-88912000D01*
X128171258Y-88912000D01*
X128146488Y-88907073D01*
X127997188Y-88877376D01*
X127833216Y-88809456D01*
X127685646Y-88710853D01*
X127560147Y-88585354D01*
X127461544Y-88437784D01*
X127393624Y-88273812D01*
X127359000Y-88099741D01*
X127359000Y-87922259D01*
X127393624Y-87748188D01*
X127461544Y-87584216D01*
X127560147Y-87436646D01*
X127685646Y-87311147D01*
X127833216Y-87212544D01*
X127997188Y-87144624D01*
X128146488Y-87114927D01*
X128171258Y-87110000D01*
X128348742Y-87110000D01*
X128373512Y-87114927D01*
G37*
G36*
X125833512Y-87114927D02*
G01*
X125982812Y-87144624D01*
X126146784Y-87212544D01*
X126294354Y-87311147D01*
X126419853Y-87436646D01*
X126518456Y-87584216D01*
X126586376Y-87748188D01*
X126621000Y-87922259D01*
X126621000Y-88099741D01*
X126586376Y-88273812D01*
X126518456Y-88437784D01*
X126419853Y-88585354D01*
X126294354Y-88710853D01*
X126146784Y-88809456D01*
X125982812Y-88877376D01*
X125833512Y-88907073D01*
X125808742Y-88912000D01*
X125631258Y-88912000D01*
X125606488Y-88907073D01*
X125457188Y-88877376D01*
X125293216Y-88809456D01*
X125145646Y-88710853D01*
X125020147Y-88585354D01*
X124921544Y-88437784D01*
X124853624Y-88273812D01*
X124819000Y-88099741D01*
X124819000Y-87922259D01*
X124853624Y-87748188D01*
X124921544Y-87584216D01*
X125020147Y-87436646D01*
X125145646Y-87311147D01*
X125293216Y-87212544D01*
X125457188Y-87144624D01*
X125606488Y-87114927D01*
X125631258Y-87110000D01*
X125808742Y-87110000D01*
X125833512Y-87114927D01*
G37*
G36*
X147109468Y-85753565D02*
G01*
X147148138Y-85765296D01*
X147183777Y-85784346D01*
X147215017Y-85809983D01*
X147240654Y-85841223D01*
X147259704Y-85876862D01*
X147271435Y-85915532D01*
X147276000Y-85961888D01*
X147276000Y-87038112D01*
X147271435Y-87084468D01*
X147259704Y-87123138D01*
X147240654Y-87158777D01*
X147215017Y-87190017D01*
X147183777Y-87215654D01*
X147148138Y-87234704D01*
X147109468Y-87246435D01*
X147063112Y-87251000D01*
X146411888Y-87251000D01*
X146365532Y-87246435D01*
X146326862Y-87234704D01*
X146291223Y-87215654D01*
X146259983Y-87190017D01*
X146234346Y-87158777D01*
X146215296Y-87123138D01*
X146203565Y-87084468D01*
X146199000Y-87038112D01*
X146199000Y-85961888D01*
X146203565Y-85915532D01*
X146215296Y-85876862D01*
X146234346Y-85841223D01*
X146259983Y-85809983D01*
X146291223Y-85784346D01*
X146326862Y-85765296D01*
X146365532Y-85753565D01*
X146411888Y-85749000D01*
X147063112Y-85749000D01*
X147109468Y-85753565D01*
G37*
G36*
X145234468Y-85753565D02*
G01*
X145273138Y-85765296D01*
X145308777Y-85784346D01*
X145340017Y-85809983D01*
X145365654Y-85841223D01*
X145384704Y-85876862D01*
X145396435Y-85915532D01*
X145401000Y-85961888D01*
X145401000Y-87038112D01*
X145396435Y-87084468D01*
X145384704Y-87123138D01*
X145365654Y-87158777D01*
X145340017Y-87190017D01*
X145308777Y-87215654D01*
X145273138Y-87234704D01*
X145234468Y-87246435D01*
X145188112Y-87251000D01*
X144536888Y-87251000D01*
X144490532Y-87246435D01*
X144451862Y-87234704D01*
X144416223Y-87215654D01*
X144384983Y-87190017D01*
X144359346Y-87158777D01*
X144340296Y-87123138D01*
X144328565Y-87084468D01*
X144324000Y-87038112D01*
X144324000Y-85961888D01*
X144328565Y-85915532D01*
X144340296Y-85876862D01*
X144359346Y-85841223D01*
X144384983Y-85809983D01*
X144416223Y-85784346D01*
X144451862Y-85765296D01*
X144490532Y-85753565D01*
X144536888Y-85749000D01*
X145188112Y-85749000D01*
X145234468Y-85753565D01*
G37*
G36*
X149184468Y-86028565D02*
G01*
X149223138Y-86040296D01*
X149258777Y-86059346D01*
X149290017Y-86084983D01*
X149315654Y-86116223D01*
X149334704Y-86151862D01*
X149346435Y-86190532D01*
X149351000Y-86236888D01*
X149351000Y-86888112D01*
X149346435Y-86934468D01*
X149334704Y-86973138D01*
X149315654Y-87008777D01*
X149290017Y-87040017D01*
X149258777Y-87065654D01*
X149223138Y-87084704D01*
X149184468Y-87096435D01*
X149138112Y-87101000D01*
X148061888Y-87101000D01*
X148015532Y-87096435D01*
X147976862Y-87084704D01*
X147941223Y-87065654D01*
X147909983Y-87040017D01*
X147884346Y-87008777D01*
X147865296Y-86973138D01*
X147853565Y-86934468D01*
X147849000Y-86888112D01*
X147849000Y-86236888D01*
X147853565Y-86190532D01*
X147865296Y-86151862D01*
X147884346Y-86116223D01*
X147909983Y-86084983D01*
X147941223Y-86059346D01*
X147976862Y-86040296D01*
X148015532Y-86028565D01*
X148061888Y-86024000D01*
X149138112Y-86024000D01*
X149184468Y-86028565D01*
G37*
G36*
X152834468Y-84978565D02*
G01*
X152873138Y-84990296D01*
X152908777Y-85009346D01*
X152940017Y-85034983D01*
X152965654Y-85066223D01*
X152984704Y-85101862D01*
X152996435Y-85140532D01*
X153001000Y-85186888D01*
X153001000Y-86263112D01*
X152996435Y-86309468D01*
X152984704Y-86348138D01*
X152965654Y-86383777D01*
X152940017Y-86415017D01*
X152908777Y-86440654D01*
X152873138Y-86459704D01*
X152834468Y-86471435D01*
X152788112Y-86476000D01*
X152136888Y-86476000D01*
X152090532Y-86471435D01*
X152051862Y-86459704D01*
X152016223Y-86440654D01*
X151984983Y-86415017D01*
X151959346Y-86383777D01*
X151940296Y-86348138D01*
X151928565Y-86309468D01*
X151924000Y-86263112D01*
X151924000Y-85186888D01*
X151928565Y-85140532D01*
X151940296Y-85101862D01*
X151959346Y-85066223D01*
X151984983Y-85034983D01*
X152016223Y-85009346D01*
X152051862Y-84990296D01*
X152090532Y-84978565D01*
X152136888Y-84974000D01*
X152788112Y-84974000D01*
X152834468Y-84978565D01*
G37*
G36*
X154709468Y-84978565D02*
G01*
X154748138Y-84990296D01*
X154783777Y-85009346D01*
X154815017Y-85034983D01*
X154840654Y-85066223D01*
X154859704Y-85101862D01*
X154871435Y-85140532D01*
X154876000Y-85186888D01*
X154876000Y-86263112D01*
X154871435Y-86309468D01*
X154859704Y-86348138D01*
X154840654Y-86383777D01*
X154815017Y-86415017D01*
X154783777Y-86440654D01*
X154748138Y-86459704D01*
X154709468Y-86471435D01*
X154663112Y-86476000D01*
X154011888Y-86476000D01*
X153965532Y-86471435D01*
X153926862Y-86459704D01*
X153891223Y-86440654D01*
X153859983Y-86415017D01*
X153834346Y-86383777D01*
X153815296Y-86348138D01*
X153803565Y-86309468D01*
X153799000Y-86263112D01*
X153799000Y-85186888D01*
X153803565Y-85140532D01*
X153815296Y-85101862D01*
X153834346Y-85066223D01*
X153859983Y-85034983D01*
X153891223Y-85009346D01*
X153926862Y-84990296D01*
X153965532Y-84978565D01*
X154011888Y-84974000D01*
X154663112Y-84974000D01*
X154709468Y-84978565D01*
G37*
G36*
X159043468Y-84978565D02*
G01*
X159082138Y-84990296D01*
X159117777Y-85009346D01*
X159149017Y-85034983D01*
X159174654Y-85066223D01*
X159193704Y-85101862D01*
X159205435Y-85140532D01*
X159210000Y-85186888D01*
X159210000Y-86263112D01*
X159205435Y-86309468D01*
X159193704Y-86348138D01*
X159174654Y-86383777D01*
X159149017Y-86415017D01*
X159117777Y-86440654D01*
X159082138Y-86459704D01*
X159043468Y-86471435D01*
X158997112Y-86476000D01*
X158345888Y-86476000D01*
X158299532Y-86471435D01*
X158260862Y-86459704D01*
X158225223Y-86440654D01*
X158193983Y-86415017D01*
X158168346Y-86383777D01*
X158149296Y-86348138D01*
X158137565Y-86309468D01*
X158133000Y-86263112D01*
X158133000Y-85186888D01*
X158137565Y-85140532D01*
X158149296Y-85101862D01*
X158168346Y-85066223D01*
X158193983Y-85034983D01*
X158225223Y-85009346D01*
X158260862Y-84990296D01*
X158299532Y-84978565D01*
X158345888Y-84974000D01*
X158997112Y-84974000D01*
X159043468Y-84978565D01*
G37*
G36*
X157168468Y-84978565D02*
G01*
X157207138Y-84990296D01*
X157242777Y-85009346D01*
X157274017Y-85034983D01*
X157299654Y-85066223D01*
X157318704Y-85101862D01*
X157330435Y-85140532D01*
X157335000Y-85186888D01*
X157335000Y-86263112D01*
X157330435Y-86309468D01*
X157318704Y-86348138D01*
X157299654Y-86383777D01*
X157274017Y-86415017D01*
X157242777Y-86440654D01*
X157207138Y-86459704D01*
X157168468Y-86471435D01*
X157122112Y-86476000D01*
X156470888Y-86476000D01*
X156424532Y-86471435D01*
X156385862Y-86459704D01*
X156350223Y-86440654D01*
X156318983Y-86415017D01*
X156293346Y-86383777D01*
X156274296Y-86348138D01*
X156262565Y-86309468D01*
X156258000Y-86263112D01*
X156258000Y-85186888D01*
X156262565Y-85140532D01*
X156274296Y-85101862D01*
X156293346Y-85066223D01*
X156318983Y-85034983D01*
X156350223Y-85009346D01*
X156385862Y-84990296D01*
X156424532Y-84978565D01*
X156470888Y-84974000D01*
X157122112Y-84974000D01*
X157168468Y-84978565D01*
G37*
G36*
X130913512Y-84574927D02*
G01*
X131062812Y-84604624D01*
X131226784Y-84672544D01*
X131374354Y-84771147D01*
X131499853Y-84896646D01*
X131598456Y-85044216D01*
X131666376Y-85208188D01*
X131701000Y-85382259D01*
X131701000Y-85559741D01*
X131666376Y-85733812D01*
X131598456Y-85897784D01*
X131499853Y-86045354D01*
X131374354Y-86170853D01*
X131226784Y-86269456D01*
X131062812Y-86337376D01*
X130913512Y-86367073D01*
X130888742Y-86372000D01*
X130711258Y-86372000D01*
X130686488Y-86367073D01*
X130537188Y-86337376D01*
X130373216Y-86269456D01*
X130225646Y-86170853D01*
X130100147Y-86045354D01*
X130001544Y-85897784D01*
X129933624Y-85733812D01*
X129899000Y-85559741D01*
X129899000Y-85382259D01*
X129933624Y-85208188D01*
X130001544Y-85044216D01*
X130100147Y-84896646D01*
X130225646Y-84771147D01*
X130373216Y-84672544D01*
X130537188Y-84604624D01*
X130686488Y-84574927D01*
X130711258Y-84570000D01*
X130888742Y-84570000D01*
X130913512Y-84574927D01*
G37*
G36*
X125833512Y-84574927D02*
G01*
X125982812Y-84604624D01*
X126146784Y-84672544D01*
X126294354Y-84771147D01*
X126419853Y-84896646D01*
X126518456Y-85044216D01*
X126586376Y-85208188D01*
X126621000Y-85382259D01*
X126621000Y-85559741D01*
X126586376Y-85733812D01*
X126518456Y-85897784D01*
X126419853Y-86045354D01*
X126294354Y-86170853D01*
X126146784Y-86269456D01*
X125982812Y-86337376D01*
X125833512Y-86367073D01*
X125808742Y-86372000D01*
X125631258Y-86372000D01*
X125606488Y-86367073D01*
X125457188Y-86337376D01*
X125293216Y-86269456D01*
X125145646Y-86170853D01*
X125020147Y-86045354D01*
X124921544Y-85897784D01*
X124853624Y-85733812D01*
X124819000Y-85559741D01*
X124819000Y-85382259D01*
X124853624Y-85208188D01*
X124921544Y-85044216D01*
X125020147Y-84896646D01*
X125145646Y-84771147D01*
X125293216Y-84672544D01*
X125457188Y-84604624D01*
X125606488Y-84574927D01*
X125631258Y-84570000D01*
X125808742Y-84570000D01*
X125833512Y-84574927D01*
G37*
G36*
X128373512Y-84574927D02*
G01*
X128522812Y-84604624D01*
X128686784Y-84672544D01*
X128834354Y-84771147D01*
X128959853Y-84896646D01*
X129058456Y-85044216D01*
X129126376Y-85208188D01*
X129161000Y-85382259D01*
X129161000Y-85559741D01*
X129126376Y-85733812D01*
X129058456Y-85897784D01*
X128959853Y-86045354D01*
X128834354Y-86170853D01*
X128686784Y-86269456D01*
X128522812Y-86337376D01*
X128373512Y-86367073D01*
X128348742Y-86372000D01*
X128171258Y-86372000D01*
X128146488Y-86367073D01*
X127997188Y-86337376D01*
X127833216Y-86269456D01*
X127685646Y-86170853D01*
X127560147Y-86045354D01*
X127461544Y-85897784D01*
X127393624Y-85733812D01*
X127359000Y-85559741D01*
X127359000Y-85382259D01*
X127393624Y-85208188D01*
X127461544Y-85044216D01*
X127560147Y-84896646D01*
X127685646Y-84771147D01*
X127833216Y-84672544D01*
X127997188Y-84604624D01*
X128146488Y-84574927D01*
X128171258Y-84570000D01*
X128348742Y-84570000D01*
X128373512Y-84574927D01*
G37*
G36*
X122821000Y-86372000D02*
G01*
X121019000Y-86372000D01*
X121019000Y-84570000D01*
X122821000Y-84570000D01*
X122821000Y-86372000D01*
G37*
G36*
X137634468Y-84453565D02*
G01*
X137673138Y-84465296D01*
X137708777Y-84484346D01*
X137740017Y-84509983D01*
X137765654Y-84541223D01*
X137784704Y-84576862D01*
X137796435Y-84615532D01*
X137801000Y-84661888D01*
X137801000Y-85738112D01*
X137796435Y-85784468D01*
X137784704Y-85823138D01*
X137765654Y-85858777D01*
X137740017Y-85890017D01*
X137708777Y-85915654D01*
X137673138Y-85934704D01*
X137634468Y-85946435D01*
X137588112Y-85951000D01*
X136936888Y-85951000D01*
X136890532Y-85946435D01*
X136851862Y-85934704D01*
X136816223Y-85915654D01*
X136784983Y-85890017D01*
X136759346Y-85858777D01*
X136740296Y-85823138D01*
X136728565Y-85784468D01*
X136724000Y-85738112D01*
X136724000Y-84661888D01*
X136728565Y-84615532D01*
X136740296Y-84576862D01*
X136759346Y-84541223D01*
X136784983Y-84509983D01*
X136816223Y-84484346D01*
X136851862Y-84465296D01*
X136890532Y-84453565D01*
X136936888Y-84449000D01*
X137588112Y-84449000D01*
X137634468Y-84453565D01*
G37*
G36*
X139509468Y-84453565D02*
G01*
X139548138Y-84465296D01*
X139583777Y-84484346D01*
X139615017Y-84509983D01*
X139640654Y-84541223D01*
X139659704Y-84576862D01*
X139671435Y-84615532D01*
X139676000Y-84661888D01*
X139676000Y-85738112D01*
X139671435Y-85784468D01*
X139659704Y-85823138D01*
X139640654Y-85858777D01*
X139615017Y-85890017D01*
X139583777Y-85915654D01*
X139548138Y-85934704D01*
X139509468Y-85946435D01*
X139463112Y-85951000D01*
X138811888Y-85951000D01*
X138765532Y-85946435D01*
X138726862Y-85934704D01*
X138691223Y-85915654D01*
X138659983Y-85890017D01*
X138634346Y-85858777D01*
X138615296Y-85823138D01*
X138603565Y-85784468D01*
X138599000Y-85738112D01*
X138599000Y-84661888D01*
X138603565Y-84615532D01*
X138615296Y-84576862D01*
X138634346Y-84541223D01*
X138659983Y-84509983D01*
X138691223Y-84484346D01*
X138726862Y-84465296D01*
X138765532Y-84453565D01*
X138811888Y-84449000D01*
X139463112Y-84449000D01*
X139509468Y-84453565D01*
G37*
G36*
X146884468Y-83803565D02*
G01*
X146923138Y-83815296D01*
X146958777Y-83834346D01*
X146990017Y-83859983D01*
X147015654Y-83891223D01*
X147034704Y-83926862D01*
X147046435Y-83965532D01*
X147051000Y-84011888D01*
X147051000Y-84663112D01*
X147046435Y-84709468D01*
X147034704Y-84748138D01*
X147015654Y-84783777D01*
X146990017Y-84815017D01*
X146958777Y-84840654D01*
X146923138Y-84859704D01*
X146884468Y-84871435D01*
X146838112Y-84876000D01*
X145761888Y-84876000D01*
X145715532Y-84871435D01*
X145676862Y-84859704D01*
X145641223Y-84840654D01*
X145609983Y-84815017D01*
X145584346Y-84783777D01*
X145565296Y-84748138D01*
X145553565Y-84709468D01*
X145549000Y-84663112D01*
X145549000Y-84011888D01*
X145553565Y-83965532D01*
X145565296Y-83926862D01*
X145584346Y-83891223D01*
X145609983Y-83859983D01*
X145641223Y-83834346D01*
X145676862Y-83815296D01*
X145715532Y-83803565D01*
X145761888Y-83799000D01*
X146838112Y-83799000D01*
X146884468Y-83803565D01*
G37*
G36*
X144809468Y-83353565D02*
G01*
X144848138Y-83365296D01*
X144883777Y-83384346D01*
X144915017Y-83409983D01*
X144940654Y-83441223D01*
X144959704Y-83476862D01*
X144971435Y-83515532D01*
X144976000Y-83561888D01*
X144976000Y-84638112D01*
X144971435Y-84684468D01*
X144959704Y-84723138D01*
X144940654Y-84758777D01*
X144915017Y-84790017D01*
X144883777Y-84815654D01*
X144848138Y-84834704D01*
X144809468Y-84846435D01*
X144763112Y-84851000D01*
X144111888Y-84851000D01*
X144065532Y-84846435D01*
X144026862Y-84834704D01*
X143991223Y-84815654D01*
X143959983Y-84790017D01*
X143934346Y-84758777D01*
X143915296Y-84723138D01*
X143903565Y-84684468D01*
X143899000Y-84638112D01*
X143899000Y-83561888D01*
X143903565Y-83515532D01*
X143915296Y-83476862D01*
X143934346Y-83441223D01*
X143959983Y-83409983D01*
X143991223Y-83384346D01*
X144026862Y-83365296D01*
X144065532Y-83353565D01*
X144111888Y-83349000D01*
X144763112Y-83349000D01*
X144809468Y-83353565D01*
G37*
G36*
X142934468Y-83353565D02*
G01*
X142973138Y-83365296D01*
X143008777Y-83384346D01*
X143040017Y-83409983D01*
X143065654Y-83441223D01*
X143084704Y-83476862D01*
X143096435Y-83515532D01*
X143101000Y-83561888D01*
X143101000Y-84638112D01*
X143096435Y-84684468D01*
X143084704Y-84723138D01*
X143065654Y-84758777D01*
X143040017Y-84790017D01*
X143008777Y-84815654D01*
X142973138Y-84834704D01*
X142934468Y-84846435D01*
X142888112Y-84851000D01*
X142236888Y-84851000D01*
X142190532Y-84846435D01*
X142151862Y-84834704D01*
X142116223Y-84815654D01*
X142084983Y-84790017D01*
X142059346Y-84758777D01*
X142040296Y-84723138D01*
X142028565Y-84684468D01*
X142024000Y-84638112D01*
X142024000Y-83561888D01*
X142028565Y-83515532D01*
X142040296Y-83476862D01*
X142059346Y-83441223D01*
X142084983Y-83409983D01*
X142116223Y-83384346D01*
X142151862Y-83365296D01*
X142190532Y-83353565D01*
X142236888Y-83349000D01*
X142888112Y-83349000D01*
X142934468Y-83353565D01*
G37*
G36*
X135384468Y-83203565D02*
G01*
X135423138Y-83215296D01*
X135458777Y-83234346D01*
X135490017Y-83259983D01*
X135515654Y-83291223D01*
X135534704Y-83326862D01*
X135546435Y-83365532D01*
X135551000Y-83411888D01*
X135551000Y-84063112D01*
X135546435Y-84109468D01*
X135534704Y-84148138D01*
X135515654Y-84183777D01*
X135490017Y-84215017D01*
X135458777Y-84240654D01*
X135423138Y-84259704D01*
X135384468Y-84271435D01*
X135338112Y-84276000D01*
X134261888Y-84276000D01*
X134215532Y-84271435D01*
X134176862Y-84259704D01*
X134141223Y-84240654D01*
X134109983Y-84215017D01*
X134084346Y-84183777D01*
X134065296Y-84148138D01*
X134053565Y-84109468D01*
X134049000Y-84063112D01*
X134049000Y-83411888D01*
X134053565Y-83365532D01*
X134065296Y-83326862D01*
X134084346Y-83291223D01*
X134109983Y-83259983D01*
X134141223Y-83234346D01*
X134176862Y-83215296D01*
X134215532Y-83203565D01*
X134261888Y-83199000D01*
X135338112Y-83199000D01*
X135384468Y-83203565D01*
G37*
G36*
X139509468Y-82453565D02*
G01*
X139548138Y-82465296D01*
X139583777Y-82484346D01*
X139615017Y-82509983D01*
X139640654Y-82541223D01*
X139659704Y-82576862D01*
X139671435Y-82615532D01*
X139676000Y-82661888D01*
X139676000Y-83738112D01*
X139671435Y-83784468D01*
X139659704Y-83823138D01*
X139640654Y-83858777D01*
X139615017Y-83890017D01*
X139583777Y-83915654D01*
X139548138Y-83934704D01*
X139509468Y-83946435D01*
X139463112Y-83951000D01*
X138811888Y-83951000D01*
X138765532Y-83946435D01*
X138726862Y-83934704D01*
X138691223Y-83915654D01*
X138659983Y-83890017D01*
X138634346Y-83858777D01*
X138615296Y-83823138D01*
X138603565Y-83784468D01*
X138599000Y-83738112D01*
X138599000Y-82661888D01*
X138603565Y-82615532D01*
X138615296Y-82576862D01*
X138634346Y-82541223D01*
X138659983Y-82509983D01*
X138691223Y-82484346D01*
X138726862Y-82465296D01*
X138765532Y-82453565D01*
X138811888Y-82449000D01*
X139463112Y-82449000D01*
X139509468Y-82453565D01*
G37*
G36*
X137634468Y-82453565D02*
G01*
X137673138Y-82465296D01*
X137708777Y-82484346D01*
X137740017Y-82509983D01*
X137765654Y-82541223D01*
X137784704Y-82576862D01*
X137796435Y-82615532D01*
X137801000Y-82661888D01*
X137801000Y-83738112D01*
X137796435Y-83784468D01*
X137784704Y-83823138D01*
X137765654Y-83858777D01*
X137740017Y-83890017D01*
X137708777Y-83915654D01*
X137673138Y-83934704D01*
X137634468Y-83946435D01*
X137588112Y-83951000D01*
X136936888Y-83951000D01*
X136890532Y-83946435D01*
X136851862Y-83934704D01*
X136816223Y-83915654D01*
X136784983Y-83890017D01*
X136759346Y-83858777D01*
X136740296Y-83823138D01*
X136728565Y-83784468D01*
X136724000Y-83738112D01*
X136724000Y-82661888D01*
X136728565Y-82615532D01*
X136740296Y-82576862D01*
X136759346Y-82541223D01*
X136784983Y-82509983D01*
X136816223Y-82484346D01*
X136851862Y-82465296D01*
X136890532Y-82453565D01*
X136936888Y-82449000D01*
X137588112Y-82449000D01*
X137634468Y-82453565D01*
G37*
G36*
X151034468Y-82053565D02*
G01*
X151073138Y-82065296D01*
X151108777Y-82084346D01*
X151140017Y-82109983D01*
X151165654Y-82141223D01*
X151184704Y-82176862D01*
X151196435Y-82215532D01*
X151201000Y-82261888D01*
X151201000Y-83338112D01*
X151196435Y-83384468D01*
X151184704Y-83423138D01*
X151165654Y-83458777D01*
X151140017Y-83490017D01*
X151108777Y-83515654D01*
X151073138Y-83534704D01*
X151034468Y-83546435D01*
X150988112Y-83551000D01*
X150336888Y-83551000D01*
X150290532Y-83546435D01*
X150251862Y-83534704D01*
X150216223Y-83515654D01*
X150184983Y-83490017D01*
X150159346Y-83458777D01*
X150140296Y-83423138D01*
X150128565Y-83384468D01*
X150124000Y-83338112D01*
X150124000Y-82261888D01*
X150128565Y-82215532D01*
X150140296Y-82176862D01*
X150159346Y-82141223D01*
X150184983Y-82109983D01*
X150216223Y-82084346D01*
X150251862Y-82065296D01*
X150290532Y-82053565D01*
X150336888Y-82049000D01*
X150988112Y-82049000D01*
X151034468Y-82053565D01*
G37*
G36*
X152909468Y-82053565D02*
G01*
X152948138Y-82065296D01*
X152983777Y-82084346D01*
X153015017Y-82109983D01*
X153040654Y-82141223D01*
X153059704Y-82176862D01*
X153071435Y-82215532D01*
X153076000Y-82261888D01*
X153076000Y-83338112D01*
X153071435Y-83384468D01*
X153059704Y-83423138D01*
X153040654Y-83458777D01*
X153015017Y-83490017D01*
X152983777Y-83515654D01*
X152948138Y-83534704D01*
X152909468Y-83546435D01*
X152863112Y-83551000D01*
X152211888Y-83551000D01*
X152165532Y-83546435D01*
X152126862Y-83534704D01*
X152091223Y-83515654D01*
X152059983Y-83490017D01*
X152034346Y-83458777D01*
X152015296Y-83423138D01*
X152003565Y-83384468D01*
X151999000Y-83338112D01*
X151999000Y-82261888D01*
X152003565Y-82215532D01*
X152015296Y-82176862D01*
X152034346Y-82141223D01*
X152059983Y-82109983D01*
X152091223Y-82084346D01*
X152126862Y-82065296D01*
X152165532Y-82053565D01*
X152211888Y-82049000D01*
X152863112Y-82049000D01*
X152909468Y-82053565D01*
G37*
G36*
X133209468Y-81853565D02*
G01*
X133248138Y-81865296D01*
X133283777Y-81884346D01*
X133315017Y-81909983D01*
X133340654Y-81941223D01*
X133359704Y-81976862D01*
X133371435Y-82015532D01*
X133376000Y-82061888D01*
X133376000Y-83138112D01*
X133371435Y-83184468D01*
X133359704Y-83223138D01*
X133340654Y-83258777D01*
X133315017Y-83290017D01*
X133283777Y-83315654D01*
X133248138Y-83334704D01*
X133209468Y-83346435D01*
X133163112Y-83351000D01*
X132511888Y-83351000D01*
X132465532Y-83346435D01*
X132426862Y-83334704D01*
X132391223Y-83315654D01*
X132359983Y-83290017D01*
X132334346Y-83258777D01*
X132315296Y-83223138D01*
X132303565Y-83184468D01*
X132299000Y-83138112D01*
X132299000Y-82061888D01*
X132303565Y-82015532D01*
X132315296Y-81976862D01*
X132334346Y-81941223D01*
X132359983Y-81909983D01*
X132391223Y-81884346D01*
X132426862Y-81865296D01*
X132465532Y-81853565D01*
X132511888Y-81849000D01*
X133163112Y-81849000D01*
X133209468Y-81853565D01*
G37*
G36*
X131334468Y-81853565D02*
G01*
X131373138Y-81865296D01*
X131408777Y-81884346D01*
X131440017Y-81909983D01*
X131465654Y-81941223D01*
X131484704Y-81976862D01*
X131496435Y-82015532D01*
X131501000Y-82061888D01*
X131501000Y-83138112D01*
X131496435Y-83184468D01*
X131484704Y-83223138D01*
X131465654Y-83258777D01*
X131440017Y-83290017D01*
X131408777Y-83315654D01*
X131373138Y-83334704D01*
X131334468Y-83346435D01*
X131288112Y-83351000D01*
X130636888Y-83351000D01*
X130590532Y-83346435D01*
X130551862Y-83334704D01*
X130516223Y-83315654D01*
X130484983Y-83290017D01*
X130459346Y-83258777D01*
X130440296Y-83223138D01*
X130428565Y-83184468D01*
X130424000Y-83138112D01*
X130424000Y-82061888D01*
X130428565Y-82015532D01*
X130440296Y-81976862D01*
X130459346Y-81941223D01*
X130484983Y-81909983D01*
X130516223Y-81884346D01*
X130551862Y-81865296D01*
X130590532Y-81853565D01*
X130636888Y-81849000D01*
X131288112Y-81849000D01*
X131334468Y-81853565D01*
G37*
G36*
X146884468Y-81928565D02*
G01*
X146923138Y-81940296D01*
X146958777Y-81959346D01*
X146990017Y-81984983D01*
X147015654Y-82016223D01*
X147034704Y-82051862D01*
X147046435Y-82090532D01*
X147051000Y-82136888D01*
X147051000Y-82788112D01*
X147046435Y-82834468D01*
X147034704Y-82873138D01*
X147015654Y-82908777D01*
X146990017Y-82940017D01*
X146958777Y-82965654D01*
X146923138Y-82984704D01*
X146884468Y-82996435D01*
X146838112Y-83001000D01*
X145761888Y-83001000D01*
X145715532Y-82996435D01*
X145676862Y-82984704D01*
X145641223Y-82965654D01*
X145609983Y-82940017D01*
X145584346Y-82908777D01*
X145565296Y-82873138D01*
X145553565Y-82834468D01*
X145549000Y-82788112D01*
X145549000Y-82136888D01*
X145553565Y-82090532D01*
X145565296Y-82051862D01*
X145584346Y-82016223D01*
X145609983Y-81984983D01*
X145641223Y-81959346D01*
X145676862Y-81940296D01*
X145715532Y-81928565D01*
X145761888Y-81924000D01*
X146838112Y-81924000D01*
X146884468Y-81928565D01*
G37*
G36*
X142934468Y-81353565D02*
G01*
X142973138Y-81365296D01*
X143008777Y-81384346D01*
X143040017Y-81409983D01*
X143065654Y-81441223D01*
X143084704Y-81476862D01*
X143096435Y-81515532D01*
X143101000Y-81561888D01*
X143101000Y-82638112D01*
X143096435Y-82684468D01*
X143084704Y-82723138D01*
X143065654Y-82758777D01*
X143040017Y-82790017D01*
X143008777Y-82815654D01*
X142973138Y-82834704D01*
X142934468Y-82846435D01*
X142888112Y-82851000D01*
X142236888Y-82851000D01*
X142190532Y-82846435D01*
X142151862Y-82834704D01*
X142116223Y-82815654D01*
X142084983Y-82790017D01*
X142059346Y-82758777D01*
X142040296Y-82723138D01*
X142028565Y-82684468D01*
X142024000Y-82638112D01*
X142024000Y-81561888D01*
X142028565Y-81515532D01*
X142040296Y-81476862D01*
X142059346Y-81441223D01*
X142084983Y-81409983D01*
X142116223Y-81384346D01*
X142151862Y-81365296D01*
X142190532Y-81353565D01*
X142236888Y-81349000D01*
X142888112Y-81349000D01*
X142934468Y-81353565D01*
G37*
G36*
X144809468Y-81353565D02*
G01*
X144848138Y-81365296D01*
X144883777Y-81384346D01*
X144915017Y-81409983D01*
X144940654Y-81441223D01*
X144959704Y-81476862D01*
X144971435Y-81515532D01*
X144976000Y-81561888D01*
X144976000Y-82638112D01*
X144971435Y-82684468D01*
X144959704Y-82723138D01*
X144940654Y-82758777D01*
X144915017Y-82790017D01*
X144883777Y-82815654D01*
X144848138Y-82834704D01*
X144809468Y-82846435D01*
X144763112Y-82851000D01*
X144111888Y-82851000D01*
X144065532Y-82846435D01*
X144026862Y-82834704D01*
X143991223Y-82815654D01*
X143959983Y-82790017D01*
X143934346Y-82758777D01*
X143915296Y-82723138D01*
X143903565Y-82684468D01*
X143899000Y-82638112D01*
X143899000Y-81561888D01*
X143903565Y-81515532D01*
X143915296Y-81476862D01*
X143934346Y-81441223D01*
X143959983Y-81409983D01*
X143991223Y-81384346D01*
X144026862Y-81365296D01*
X144065532Y-81353565D01*
X144111888Y-81349000D01*
X144763112Y-81349000D01*
X144809468Y-81353565D01*
G37*
G36*
X159184468Y-81603565D02*
G01*
X159223138Y-81615296D01*
X159258777Y-81634346D01*
X159290017Y-81659983D01*
X159315654Y-81691223D01*
X159334704Y-81726862D01*
X159346435Y-81765532D01*
X159351000Y-81811888D01*
X159351000Y-82463112D01*
X159346435Y-82509468D01*
X159334704Y-82548138D01*
X159315654Y-82583777D01*
X159290017Y-82615017D01*
X159258777Y-82640654D01*
X159223138Y-82659704D01*
X159184468Y-82671435D01*
X159138112Y-82676000D01*
X158061888Y-82676000D01*
X158015532Y-82671435D01*
X157976862Y-82659704D01*
X157941223Y-82640654D01*
X157909983Y-82615017D01*
X157884346Y-82583777D01*
X157865296Y-82548138D01*
X157853565Y-82509468D01*
X157849000Y-82463112D01*
X157849000Y-81811888D01*
X157853565Y-81765532D01*
X157865296Y-81726862D01*
X157884346Y-81691223D01*
X157909983Y-81659983D01*
X157941223Y-81634346D01*
X157976862Y-81615296D01*
X158015532Y-81603565D01*
X158061888Y-81599000D01*
X159138112Y-81599000D01*
X159184468Y-81603565D01*
G37*
G36*
X154881000Y-82526000D02*
G01*
X153719000Y-82526000D01*
X153719000Y-81774000D01*
X154881000Y-81774000D01*
X154881000Y-82526000D01*
G37*
G36*
X157081000Y-82526000D02*
G01*
X155919000Y-82526000D01*
X155919000Y-79874000D01*
X157081000Y-79874000D01*
X157081000Y-82526000D01*
G37*
G36*
X135384468Y-81328565D02*
G01*
X135423138Y-81340296D01*
X135458777Y-81359346D01*
X135490017Y-81384983D01*
X135515654Y-81416223D01*
X135534704Y-81451862D01*
X135546435Y-81490532D01*
X135551000Y-81536888D01*
X135551000Y-82188112D01*
X135546435Y-82234468D01*
X135534704Y-82273138D01*
X135515654Y-82308777D01*
X135490017Y-82340017D01*
X135458777Y-82365654D01*
X135423138Y-82384704D01*
X135384468Y-82396435D01*
X135338112Y-82401000D01*
X134261888Y-82401000D01*
X134215532Y-82396435D01*
X134176862Y-82384704D01*
X134141223Y-82365654D01*
X134109983Y-82340017D01*
X134084346Y-82308777D01*
X134065296Y-82273138D01*
X134053565Y-82234468D01*
X134049000Y-82188112D01*
X134049000Y-81536888D01*
X134053565Y-81490532D01*
X134065296Y-81451862D01*
X134084346Y-81416223D01*
X134109983Y-81384983D01*
X134141223Y-81359346D01*
X134176862Y-81340296D01*
X134215532Y-81328565D01*
X134261888Y-81324000D01*
X135338112Y-81324000D01*
X135384468Y-81328565D01*
G37*
G36*
X133209468Y-79753565D02*
G01*
X133248138Y-79765296D01*
X133283777Y-79784346D01*
X133315017Y-79809983D01*
X133340654Y-79841223D01*
X133359704Y-79876862D01*
X133371435Y-79915532D01*
X133376000Y-79961888D01*
X133376000Y-81038112D01*
X133371435Y-81084468D01*
X133359704Y-81123138D01*
X133340654Y-81158777D01*
X133315017Y-81190017D01*
X133283777Y-81215654D01*
X133248138Y-81234704D01*
X133209468Y-81246435D01*
X133163112Y-81251000D01*
X132511888Y-81251000D01*
X132465532Y-81246435D01*
X132426862Y-81234704D01*
X132391223Y-81215654D01*
X132359983Y-81190017D01*
X132334346Y-81158777D01*
X132315296Y-81123138D01*
X132303565Y-81084468D01*
X132299000Y-81038112D01*
X132299000Y-79961888D01*
X132303565Y-79915532D01*
X132315296Y-79876862D01*
X132334346Y-79841223D01*
X132359983Y-79809983D01*
X132391223Y-79784346D01*
X132426862Y-79765296D01*
X132465532Y-79753565D01*
X132511888Y-79749000D01*
X133163112Y-79749000D01*
X133209468Y-79753565D01*
G37*
G36*
X131334468Y-79753565D02*
G01*
X131373138Y-79765296D01*
X131408777Y-79784346D01*
X131440017Y-79809983D01*
X131465654Y-79841223D01*
X131484704Y-79876862D01*
X131496435Y-79915532D01*
X131501000Y-79961888D01*
X131501000Y-81038112D01*
X131496435Y-81084468D01*
X131484704Y-81123138D01*
X131465654Y-81158777D01*
X131440017Y-81190017D01*
X131408777Y-81215654D01*
X131373138Y-81234704D01*
X131334468Y-81246435D01*
X131288112Y-81251000D01*
X130636888Y-81251000D01*
X130590532Y-81246435D01*
X130551862Y-81234704D01*
X130516223Y-81215654D01*
X130484983Y-81190017D01*
X130459346Y-81158777D01*
X130440296Y-81123138D01*
X130428565Y-81084468D01*
X130424000Y-81038112D01*
X130424000Y-79961888D01*
X130428565Y-79915532D01*
X130440296Y-79876862D01*
X130459346Y-79841223D01*
X130484983Y-79809983D01*
X130516223Y-79784346D01*
X130551862Y-79765296D01*
X130590532Y-79753565D01*
X130636888Y-79749000D01*
X131288112Y-79749000D01*
X131334468Y-79753565D01*
G37*
G36*
X152784468Y-80003565D02*
G01*
X152823138Y-80015296D01*
X152858777Y-80034346D01*
X152890017Y-80059983D01*
X152915654Y-80091223D01*
X152934704Y-80126862D01*
X152946435Y-80165532D01*
X152951000Y-80211888D01*
X152951000Y-80863112D01*
X152946435Y-80909468D01*
X152934704Y-80948138D01*
X152915654Y-80983777D01*
X152890017Y-81015017D01*
X152858777Y-81040654D01*
X152823138Y-81059704D01*
X152784468Y-81071435D01*
X152738112Y-81076000D01*
X151661888Y-81076000D01*
X151615532Y-81071435D01*
X151576862Y-81059704D01*
X151541223Y-81040654D01*
X151509983Y-81015017D01*
X151484346Y-80983777D01*
X151465296Y-80948138D01*
X151453565Y-80909468D01*
X151449000Y-80863112D01*
X151449000Y-80211888D01*
X151453565Y-80165532D01*
X151465296Y-80126862D01*
X151484346Y-80091223D01*
X151509983Y-80059983D01*
X151541223Y-80034346D01*
X151576862Y-80015296D01*
X151615532Y-80003565D01*
X151661888Y-79999000D01*
X152738112Y-79999000D01*
X152784468Y-80003565D01*
G37*
G36*
X150384468Y-80003565D02*
G01*
X150423138Y-80015296D01*
X150458777Y-80034346D01*
X150490017Y-80059983D01*
X150515654Y-80091223D01*
X150534704Y-80126862D01*
X150546435Y-80165532D01*
X150551000Y-80211888D01*
X150551000Y-80863112D01*
X150546435Y-80909468D01*
X150534704Y-80948138D01*
X150515654Y-80983777D01*
X150490017Y-81015017D01*
X150458777Y-81040654D01*
X150423138Y-81059704D01*
X150384468Y-81071435D01*
X150338112Y-81076000D01*
X149261888Y-81076000D01*
X149215532Y-81071435D01*
X149176862Y-81059704D01*
X149141223Y-81040654D01*
X149109983Y-81015017D01*
X149084346Y-80983777D01*
X149065296Y-80948138D01*
X149053565Y-80909468D01*
X149049000Y-80863112D01*
X149049000Y-80211888D01*
X149053565Y-80165532D01*
X149065296Y-80126862D01*
X149084346Y-80091223D01*
X149109983Y-80059983D01*
X149141223Y-80034346D01*
X149176862Y-80015296D01*
X149215532Y-80003565D01*
X149261888Y-79999000D01*
X150338112Y-79999000D01*
X150384468Y-80003565D01*
G37*
G36*
X159184468Y-79728565D02*
G01*
X159223138Y-79740296D01*
X159258777Y-79759346D01*
X159290017Y-79784983D01*
X159315654Y-79816223D01*
X159334704Y-79851862D01*
X159346435Y-79890532D01*
X159351000Y-79936888D01*
X159351000Y-80588112D01*
X159346435Y-80634468D01*
X159334704Y-80673138D01*
X159315654Y-80708777D01*
X159290017Y-80740017D01*
X159258777Y-80765654D01*
X159223138Y-80784704D01*
X159184468Y-80796435D01*
X159138112Y-80801000D01*
X158061888Y-80801000D01*
X158015532Y-80796435D01*
X157976862Y-80784704D01*
X157941223Y-80765654D01*
X157909983Y-80740017D01*
X157884346Y-80708777D01*
X157865296Y-80673138D01*
X157853565Y-80634468D01*
X157849000Y-80588112D01*
X157849000Y-79936888D01*
X157853565Y-79890532D01*
X157865296Y-79851862D01*
X157884346Y-79816223D01*
X157909983Y-79784983D01*
X157941223Y-79759346D01*
X157976862Y-79740296D01*
X158015532Y-79728565D01*
X158061888Y-79724000D01*
X159138112Y-79724000D01*
X159184468Y-79728565D01*
G37*
G36*
X127584468Y-79651565D02*
G01*
X127623138Y-79663296D01*
X127658777Y-79682346D01*
X127690017Y-79707983D01*
X127715654Y-79739223D01*
X127734704Y-79774862D01*
X127746435Y-79813532D01*
X127751000Y-79859888D01*
X127751000Y-80511112D01*
X127746435Y-80557468D01*
X127734704Y-80596138D01*
X127715654Y-80631777D01*
X127690017Y-80663017D01*
X127658777Y-80688654D01*
X127623138Y-80707704D01*
X127584468Y-80719435D01*
X127538112Y-80724000D01*
X126461888Y-80724000D01*
X126415532Y-80719435D01*
X126376862Y-80707704D01*
X126341223Y-80688654D01*
X126309983Y-80663017D01*
X126284346Y-80631777D01*
X126265296Y-80596138D01*
X126253565Y-80557468D01*
X126249000Y-80511112D01*
X126249000Y-79859888D01*
X126253565Y-79813532D01*
X126265296Y-79774862D01*
X126284346Y-79739223D01*
X126309983Y-79707983D01*
X126341223Y-79682346D01*
X126376862Y-79663296D01*
X126415532Y-79651565D01*
X126461888Y-79647000D01*
X127538112Y-79647000D01*
X127584468Y-79651565D01*
G37*
G36*
X141326000Y-80701000D02*
G01*
X135074000Y-80701000D01*
X135074000Y-78999000D01*
X141326000Y-78999000D01*
X141326000Y-80701000D01*
G37*
G36*
X154881000Y-80626000D02*
G01*
X153719000Y-80626000D01*
X153719000Y-79874000D01*
X154881000Y-79874000D01*
X154881000Y-80626000D01*
G37*
G36*
X129392642Y-79039781D02*
G01*
X129538414Y-79100162D01*
X129538416Y-79100163D01*
X129669608Y-79187822D01*
X129781178Y-79299392D01*
X129868837Y-79430584D01*
X129868838Y-79430586D01*
X129929219Y-79576358D01*
X129960000Y-79731107D01*
X129960000Y-79888893D01*
X129929219Y-80043642D01*
X129909510Y-80091223D01*
X129868837Y-80189416D01*
X129781178Y-80320608D01*
X129669608Y-80432178D01*
X129538416Y-80519837D01*
X129538415Y-80519838D01*
X129538414Y-80519838D01*
X129392642Y-80580219D01*
X129237893Y-80611000D01*
X129080107Y-80611000D01*
X128925358Y-80580219D01*
X128779586Y-80519838D01*
X128779585Y-80519838D01*
X128779584Y-80519837D01*
X128648392Y-80432178D01*
X128536822Y-80320608D01*
X128449163Y-80189416D01*
X128408490Y-80091223D01*
X128388781Y-80043642D01*
X128358000Y-79888893D01*
X128358000Y-79731107D01*
X128388781Y-79576358D01*
X128449162Y-79430586D01*
X128449163Y-79430584D01*
X128536822Y-79299392D01*
X128648392Y-79187822D01*
X128779584Y-79100163D01*
X128779586Y-79100162D01*
X128925358Y-79039781D01*
X129080107Y-79009000D01*
X129237893Y-79009000D01*
X129392642Y-79039781D01*
G37*
G36*
X145455051Y-78651284D02*
G01*
X145471446Y-78656258D01*
X145491078Y-78666751D01*
X145513717Y-78676128D01*
X145537750Y-78680908D01*
X145562254Y-78680908D01*
X145586287Y-78676127D01*
X145608922Y-78666751D01*
X145628554Y-78656258D01*
X145644949Y-78651284D01*
X145668141Y-78649000D01*
X146081859Y-78649000D01*
X146105051Y-78651284D01*
X146121446Y-78656258D01*
X146141078Y-78666751D01*
X146163717Y-78676128D01*
X146187750Y-78680908D01*
X146212254Y-78680908D01*
X146236287Y-78676127D01*
X146258922Y-78666751D01*
X146278554Y-78656258D01*
X146294949Y-78651284D01*
X146318141Y-78649000D01*
X146731859Y-78649000D01*
X146755051Y-78651284D01*
X146771446Y-78656258D01*
X146791078Y-78666751D01*
X146813717Y-78676128D01*
X146837750Y-78680908D01*
X146862254Y-78680908D01*
X146886287Y-78676127D01*
X146908922Y-78666751D01*
X146928554Y-78656258D01*
X146944949Y-78651284D01*
X146968141Y-78649000D01*
X147381859Y-78649000D01*
X147405051Y-78651284D01*
X147421443Y-78656257D01*
X147436555Y-78664334D01*
X147449798Y-78675202D01*
X147460666Y-78688445D01*
X147468743Y-78703557D01*
X147473716Y-78719949D01*
X147476000Y-78743141D01*
X147476000Y-80281859D01*
X147473716Y-80305051D01*
X147468743Y-80321443D01*
X147460666Y-80336555D01*
X147449798Y-80349798D01*
X147436555Y-80360666D01*
X147421443Y-80368743D01*
X147405051Y-80373716D01*
X147381859Y-80376000D01*
X146968141Y-80376000D01*
X146944949Y-80373716D01*
X146928554Y-80368742D01*
X146908922Y-80358249D01*
X146886283Y-80348872D01*
X146862250Y-80344092D01*
X146837746Y-80344092D01*
X146813713Y-80348873D01*
X146791078Y-80358249D01*
X146771446Y-80368742D01*
X146755051Y-80373716D01*
X146731859Y-80376000D01*
X146318141Y-80376000D01*
X146294949Y-80373716D01*
X146278554Y-80368742D01*
X146258922Y-80358249D01*
X146236283Y-80348872D01*
X146212250Y-80344092D01*
X146187746Y-80344092D01*
X146163713Y-80348873D01*
X146141078Y-80358249D01*
X146121446Y-80368742D01*
X146105051Y-80373716D01*
X146081859Y-80376000D01*
X145668141Y-80376000D01*
X145644949Y-80373716D01*
X145628554Y-80368742D01*
X145608922Y-80358249D01*
X145586283Y-80348872D01*
X145562250Y-80344092D01*
X145537746Y-80344092D01*
X145513713Y-80348873D01*
X145491078Y-80358249D01*
X145471446Y-80368742D01*
X145455051Y-80373716D01*
X145431859Y-80376000D01*
X145018141Y-80376000D01*
X144994949Y-80373716D01*
X144978557Y-80368743D01*
X144963445Y-80360666D01*
X144950202Y-80349798D01*
X144939334Y-80336555D01*
X144931257Y-80321443D01*
X144926284Y-80305051D01*
X144924000Y-80281859D01*
X144924000Y-78743141D01*
X144926284Y-78719949D01*
X144931257Y-78703557D01*
X144939334Y-78688445D01*
X144950202Y-78675202D01*
X144963445Y-78664334D01*
X144978557Y-78656257D01*
X144994949Y-78651284D01*
X145018141Y-78649000D01*
X145431859Y-78649000D01*
X145455051Y-78651284D01*
G37*
G36*
X152784468Y-78128565D02*
G01*
X152823138Y-78140296D01*
X152858777Y-78159346D01*
X152890017Y-78184983D01*
X152915654Y-78216223D01*
X152934704Y-78251862D01*
X152946435Y-78290532D01*
X152951000Y-78336888D01*
X152951000Y-78988112D01*
X152946435Y-79034468D01*
X152934704Y-79073138D01*
X152915654Y-79108777D01*
X152890017Y-79140017D01*
X152858777Y-79165654D01*
X152823138Y-79184704D01*
X152784468Y-79196435D01*
X152738112Y-79201000D01*
X151661888Y-79201000D01*
X151615532Y-79196435D01*
X151576862Y-79184704D01*
X151541223Y-79165654D01*
X151509983Y-79140017D01*
X151484346Y-79108777D01*
X151465296Y-79073138D01*
X151453565Y-79034468D01*
X151449000Y-78988112D01*
X151449000Y-78336888D01*
X151453565Y-78290532D01*
X151465296Y-78251862D01*
X151484346Y-78216223D01*
X151509983Y-78184983D01*
X151541223Y-78159346D01*
X151576862Y-78140296D01*
X151615532Y-78128565D01*
X151661888Y-78124000D01*
X152738112Y-78124000D01*
X152784468Y-78128565D01*
G37*
G36*
X150384468Y-78128565D02*
G01*
X150423138Y-78140296D01*
X150458777Y-78159346D01*
X150490017Y-78184983D01*
X150515654Y-78216223D01*
X150534704Y-78251862D01*
X150546435Y-78290532D01*
X150551000Y-78336888D01*
X150551000Y-78988112D01*
X150546435Y-79034468D01*
X150534704Y-79073138D01*
X150515654Y-79108777D01*
X150490017Y-79140017D01*
X150458777Y-79165654D01*
X150423138Y-79184704D01*
X150384468Y-79196435D01*
X150338112Y-79201000D01*
X149261888Y-79201000D01*
X149215532Y-79196435D01*
X149176862Y-79184704D01*
X149141223Y-79165654D01*
X149109983Y-79140017D01*
X149084346Y-79108777D01*
X149065296Y-79073138D01*
X149053565Y-79034468D01*
X149049000Y-78988112D01*
X149049000Y-78336888D01*
X149053565Y-78290532D01*
X149065296Y-78251862D01*
X149084346Y-78216223D01*
X149109983Y-78184983D01*
X149141223Y-78159346D01*
X149176862Y-78140296D01*
X149215532Y-78128565D01*
X149261888Y-78124000D01*
X150338112Y-78124000D01*
X150384468Y-78128565D01*
G37*
G36*
X154834468Y-77453565D02*
G01*
X154873138Y-77465296D01*
X154908777Y-77484346D01*
X154940017Y-77509983D01*
X154965654Y-77541223D01*
X154984704Y-77576862D01*
X154996435Y-77615532D01*
X155001000Y-77661888D01*
X155001000Y-78738112D01*
X154996435Y-78784468D01*
X154984704Y-78823138D01*
X154965654Y-78858777D01*
X154940017Y-78890017D01*
X154908777Y-78915654D01*
X154873138Y-78934704D01*
X154834468Y-78946435D01*
X154788112Y-78951000D01*
X154136888Y-78951000D01*
X154090532Y-78946435D01*
X154051862Y-78934704D01*
X154016223Y-78915654D01*
X153984983Y-78890017D01*
X153959346Y-78858777D01*
X153940296Y-78823138D01*
X153928565Y-78784468D01*
X153924000Y-78738112D01*
X153924000Y-77661888D01*
X153928565Y-77615532D01*
X153940296Y-77576862D01*
X153959346Y-77541223D01*
X153984983Y-77509983D01*
X154016223Y-77484346D01*
X154051862Y-77465296D01*
X154090532Y-77453565D01*
X154136888Y-77449000D01*
X154788112Y-77449000D01*
X154834468Y-77453565D01*
G37*
G36*
X156709468Y-77453565D02*
G01*
X156748138Y-77465296D01*
X156783777Y-77484346D01*
X156815017Y-77509983D01*
X156840654Y-77541223D01*
X156859704Y-77576862D01*
X156871435Y-77615532D01*
X156876000Y-77661888D01*
X156876000Y-78738112D01*
X156871435Y-78784468D01*
X156859704Y-78823138D01*
X156840654Y-78858777D01*
X156815017Y-78890017D01*
X156783777Y-78915654D01*
X156748138Y-78934704D01*
X156709468Y-78946435D01*
X156663112Y-78951000D01*
X156011888Y-78951000D01*
X155965532Y-78946435D01*
X155926862Y-78934704D01*
X155891223Y-78915654D01*
X155859983Y-78890017D01*
X155834346Y-78858777D01*
X155815296Y-78823138D01*
X155803565Y-78784468D01*
X155799000Y-78738112D01*
X155799000Y-77661888D01*
X155803565Y-77615532D01*
X155815296Y-77576862D01*
X155834346Y-77541223D01*
X155859983Y-77509983D01*
X155891223Y-77484346D01*
X155926862Y-77465296D01*
X155965532Y-77453565D01*
X156011888Y-77449000D01*
X156663112Y-77449000D01*
X156709468Y-77453565D01*
G37*
G36*
X127584468Y-77776565D02*
G01*
X127623138Y-77788296D01*
X127658777Y-77807346D01*
X127690017Y-77832983D01*
X127715654Y-77864223D01*
X127734704Y-77899862D01*
X127746435Y-77938532D01*
X127751000Y-77984888D01*
X127751000Y-78636112D01*
X127746435Y-78682468D01*
X127734704Y-78721138D01*
X127715654Y-78756777D01*
X127690017Y-78788017D01*
X127658777Y-78813654D01*
X127623138Y-78832704D01*
X127584468Y-78844435D01*
X127538112Y-78849000D01*
X126461888Y-78849000D01*
X126415532Y-78844435D01*
X126376862Y-78832704D01*
X126341223Y-78813654D01*
X126309983Y-78788017D01*
X126284346Y-78756777D01*
X126265296Y-78721138D01*
X126253565Y-78682468D01*
X126249000Y-78636112D01*
X126249000Y-77984888D01*
X126253565Y-77938532D01*
X126265296Y-77899862D01*
X126284346Y-77864223D01*
X126309983Y-77832983D01*
X126341223Y-77807346D01*
X126376862Y-77788296D01*
X126415532Y-77776565D01*
X126461888Y-77772000D01*
X127538112Y-77772000D01*
X127584468Y-77776565D01*
G37*
G36*
X143301000Y-78726000D02*
G01*
X141599000Y-78726000D01*
X141599000Y-72474000D01*
X143301000Y-72474000D01*
X143301000Y-78726000D01*
G37*
G36*
X134801000Y-78726000D02*
G01*
X133099000Y-78726000D01*
X133099000Y-72474000D01*
X134801000Y-72474000D01*
X134801000Y-78726000D01*
G37*
G36*
X127584468Y-75968565D02*
G01*
X127623138Y-75980296D01*
X127658777Y-75999346D01*
X127690017Y-76024983D01*
X127715654Y-76056223D01*
X127734704Y-76091862D01*
X127746435Y-76130532D01*
X127751000Y-76176888D01*
X127751000Y-76828112D01*
X127746435Y-76874468D01*
X127734704Y-76913138D01*
X127715654Y-76948777D01*
X127690017Y-76980017D01*
X127658777Y-77005654D01*
X127623138Y-77024704D01*
X127584468Y-77036435D01*
X127538112Y-77041000D01*
X126461888Y-77041000D01*
X126415532Y-77036435D01*
X126376862Y-77024704D01*
X126341223Y-77005654D01*
X126309983Y-76980017D01*
X126284346Y-76948777D01*
X126265296Y-76913138D01*
X126253565Y-76874468D01*
X126249000Y-76828112D01*
X126249000Y-76176888D01*
X126253565Y-76130532D01*
X126265296Y-76091862D01*
X126284346Y-76056223D01*
X126309983Y-76024983D01*
X126341223Y-75999346D01*
X126376862Y-75980296D01*
X126415532Y-75968565D01*
X126461888Y-75964000D01*
X127538112Y-75964000D01*
X127584468Y-75968565D01*
G37*
G36*
X158881468Y-75091565D02*
G01*
X158920138Y-75103296D01*
X158955777Y-75122346D01*
X158987017Y-75147983D01*
X159012654Y-75179223D01*
X159031704Y-75214862D01*
X159043435Y-75253532D01*
X159048000Y-75299888D01*
X159048000Y-76376112D01*
X159043435Y-76422468D01*
X159031704Y-76461138D01*
X159012654Y-76496777D01*
X158987017Y-76528017D01*
X158955777Y-76553654D01*
X158920138Y-76572704D01*
X158881468Y-76584435D01*
X158835112Y-76589000D01*
X158183888Y-76589000D01*
X158137532Y-76584435D01*
X158098862Y-76572704D01*
X158063223Y-76553654D01*
X158031983Y-76528017D01*
X158006346Y-76496777D01*
X157987296Y-76461138D01*
X157975565Y-76422468D01*
X157971000Y-76376112D01*
X157971000Y-75299888D01*
X157975565Y-75253532D01*
X157987296Y-75214862D01*
X158006346Y-75179223D01*
X158031983Y-75147983D01*
X158063223Y-75122346D01*
X158098862Y-75103296D01*
X158137532Y-75091565D01*
X158183888Y-75087000D01*
X158835112Y-75087000D01*
X158881468Y-75091565D01*
G37*
G36*
X157006468Y-75091565D02*
G01*
X157045138Y-75103296D01*
X157080777Y-75122346D01*
X157112017Y-75147983D01*
X157137654Y-75179223D01*
X157156704Y-75214862D01*
X157168435Y-75253532D01*
X157173000Y-75299888D01*
X157173000Y-76376112D01*
X157168435Y-76422468D01*
X157156704Y-76461138D01*
X157137654Y-76496777D01*
X157112017Y-76528017D01*
X157080777Y-76553654D01*
X157045138Y-76572704D01*
X157006468Y-76584435D01*
X156960112Y-76589000D01*
X156308888Y-76589000D01*
X156262532Y-76584435D01*
X156223862Y-76572704D01*
X156188223Y-76553654D01*
X156156983Y-76528017D01*
X156131346Y-76496777D01*
X156112296Y-76461138D01*
X156100565Y-76422468D01*
X156096000Y-76376112D01*
X156096000Y-75299888D01*
X156100565Y-75253532D01*
X156112296Y-75214862D01*
X156131346Y-75179223D01*
X156156983Y-75147983D01*
X156188223Y-75122346D01*
X156223862Y-75103296D01*
X156262532Y-75091565D01*
X156308888Y-75087000D01*
X156960112Y-75087000D01*
X157006468Y-75091565D01*
G37*
G36*
X155325468Y-75091565D02*
G01*
X155364138Y-75103296D01*
X155399777Y-75122346D01*
X155431017Y-75147983D01*
X155456654Y-75179223D01*
X155475704Y-75214862D01*
X155487435Y-75253532D01*
X155492000Y-75299888D01*
X155492000Y-76376112D01*
X155487435Y-76422468D01*
X155475704Y-76461138D01*
X155456654Y-76496777D01*
X155431017Y-76528017D01*
X155399777Y-76553654D01*
X155364138Y-76572704D01*
X155325468Y-76584435D01*
X155279112Y-76589000D01*
X154627888Y-76589000D01*
X154581532Y-76584435D01*
X154542862Y-76572704D01*
X154507223Y-76553654D01*
X154475983Y-76528017D01*
X154450346Y-76496777D01*
X154431296Y-76461138D01*
X154419565Y-76422468D01*
X154415000Y-76376112D01*
X154415000Y-75299888D01*
X154419565Y-75253532D01*
X154431296Y-75214862D01*
X154450346Y-75179223D01*
X154475983Y-75147983D01*
X154507223Y-75122346D01*
X154542862Y-75103296D01*
X154581532Y-75091565D01*
X154627888Y-75087000D01*
X155279112Y-75087000D01*
X155325468Y-75091565D01*
G37*
G36*
X153450468Y-75091565D02*
G01*
X153489138Y-75103296D01*
X153524777Y-75122346D01*
X153556017Y-75147983D01*
X153581654Y-75179223D01*
X153600704Y-75214862D01*
X153612435Y-75253532D01*
X153617000Y-75299888D01*
X153617000Y-76376112D01*
X153612435Y-76422468D01*
X153600704Y-76461138D01*
X153581654Y-76496777D01*
X153556017Y-76528017D01*
X153524777Y-76553654D01*
X153489138Y-76572704D01*
X153450468Y-76584435D01*
X153404112Y-76589000D01*
X152752888Y-76589000D01*
X152706532Y-76584435D01*
X152667862Y-76572704D01*
X152632223Y-76553654D01*
X152600983Y-76528017D01*
X152575346Y-76496777D01*
X152556296Y-76461138D01*
X152544565Y-76422468D01*
X152540000Y-76376112D01*
X152540000Y-75299888D01*
X152544565Y-75253532D01*
X152556296Y-75214862D01*
X152575346Y-75179223D01*
X152600983Y-75147983D01*
X152632223Y-75122346D01*
X152667862Y-75103296D01*
X152706532Y-75091565D01*
X152752888Y-75087000D01*
X153404112Y-75087000D01*
X153450468Y-75091565D01*
G37*
G36*
X151709468Y-75053565D02*
G01*
X151748138Y-75065296D01*
X151783777Y-75084346D01*
X151815017Y-75109983D01*
X151840654Y-75141223D01*
X151859704Y-75176862D01*
X151871435Y-75215532D01*
X151876000Y-75261888D01*
X151876000Y-76338112D01*
X151871435Y-76384468D01*
X151859704Y-76423138D01*
X151840654Y-76458777D01*
X151815017Y-76490017D01*
X151783777Y-76515654D01*
X151748138Y-76534704D01*
X151709468Y-76546435D01*
X151663112Y-76551000D01*
X151011888Y-76551000D01*
X150965532Y-76546435D01*
X150926862Y-76534704D01*
X150891223Y-76515654D01*
X150859983Y-76490017D01*
X150834346Y-76458777D01*
X150815296Y-76423138D01*
X150803565Y-76384468D01*
X150799000Y-76338112D01*
X150799000Y-75261888D01*
X150803565Y-75215532D01*
X150815296Y-75176862D01*
X150834346Y-75141223D01*
X150859983Y-75109983D01*
X150891223Y-75084346D01*
X150926862Y-75065296D01*
X150965532Y-75053565D01*
X151011888Y-75049000D01*
X151663112Y-75049000D01*
X151709468Y-75053565D01*
G37*
G36*
X149834468Y-75053565D02*
G01*
X149873138Y-75065296D01*
X149908777Y-75084346D01*
X149940017Y-75109983D01*
X149965654Y-75141223D01*
X149984704Y-75176862D01*
X149996435Y-75215532D01*
X150001000Y-75261888D01*
X150001000Y-76338112D01*
X149996435Y-76384468D01*
X149984704Y-76423138D01*
X149965654Y-76458777D01*
X149940017Y-76490017D01*
X149908777Y-76515654D01*
X149873138Y-76534704D01*
X149834468Y-76546435D01*
X149788112Y-76551000D01*
X149136888Y-76551000D01*
X149090532Y-76546435D01*
X149051862Y-76534704D01*
X149016223Y-76515654D01*
X148984983Y-76490017D01*
X148959346Y-76458777D01*
X148940296Y-76423138D01*
X148928565Y-76384468D01*
X148924000Y-76338112D01*
X148924000Y-75261888D01*
X148928565Y-75215532D01*
X148940296Y-75176862D01*
X148959346Y-75141223D01*
X148984983Y-75109983D01*
X149016223Y-75084346D01*
X149051862Y-75065296D01*
X149090532Y-75053565D01*
X149136888Y-75049000D01*
X149788112Y-75049000D01*
X149834468Y-75053565D01*
G37*
G36*
X132184468Y-75403565D02*
G01*
X132223138Y-75415296D01*
X132258777Y-75434346D01*
X132290017Y-75459983D01*
X132315654Y-75491223D01*
X132334704Y-75526862D01*
X132346435Y-75565532D01*
X132351000Y-75611888D01*
X132351000Y-76263112D01*
X132346435Y-76309468D01*
X132334704Y-76348138D01*
X132315654Y-76383777D01*
X132290017Y-76415017D01*
X132258777Y-76440654D01*
X132223138Y-76459704D01*
X132184468Y-76471435D01*
X132138112Y-76476000D01*
X131061888Y-76476000D01*
X131015532Y-76471435D01*
X130976862Y-76459704D01*
X130941223Y-76440654D01*
X130909983Y-76415017D01*
X130884346Y-76383777D01*
X130865296Y-76348138D01*
X130853565Y-76309468D01*
X130849000Y-76263112D01*
X130849000Y-75611888D01*
X130853565Y-75565532D01*
X130865296Y-75526862D01*
X130884346Y-75491223D01*
X130909983Y-75459983D01*
X130941223Y-75434346D01*
X130976862Y-75415296D01*
X131015532Y-75403565D01*
X131061888Y-75399000D01*
X132138112Y-75399000D01*
X132184468Y-75403565D01*
G37*
G36*
X145455051Y-74426284D02*
G01*
X145471446Y-74431258D01*
X145491078Y-74441751D01*
X145513717Y-74451128D01*
X145537750Y-74455908D01*
X145562254Y-74455908D01*
X145586287Y-74451127D01*
X145608922Y-74441751D01*
X145628554Y-74431258D01*
X145644949Y-74426284D01*
X145668141Y-74424000D01*
X146081859Y-74424000D01*
X146105051Y-74426284D01*
X146121446Y-74431258D01*
X146141078Y-74441751D01*
X146163717Y-74451128D01*
X146187750Y-74455908D01*
X146212254Y-74455908D01*
X146236287Y-74451127D01*
X146258922Y-74441751D01*
X146278554Y-74431258D01*
X146294949Y-74426284D01*
X146318141Y-74424000D01*
X146731859Y-74424000D01*
X146755051Y-74426284D01*
X146771446Y-74431258D01*
X146791078Y-74441751D01*
X146813717Y-74451128D01*
X146837750Y-74455908D01*
X146862254Y-74455908D01*
X146886287Y-74451127D01*
X146908922Y-74441751D01*
X146928554Y-74431258D01*
X146944949Y-74426284D01*
X146968141Y-74424000D01*
X147381859Y-74424000D01*
X147405051Y-74426284D01*
X147421443Y-74431257D01*
X147436555Y-74439334D01*
X147449798Y-74450202D01*
X147460666Y-74463445D01*
X147468743Y-74478557D01*
X147473716Y-74494949D01*
X147476000Y-74518141D01*
X147476000Y-76056859D01*
X147473716Y-76080051D01*
X147468743Y-76096443D01*
X147460666Y-76111555D01*
X147449798Y-76124798D01*
X147436555Y-76135666D01*
X147421443Y-76143743D01*
X147405051Y-76148716D01*
X147381859Y-76151000D01*
X146968141Y-76151000D01*
X146944949Y-76148716D01*
X146928554Y-76143742D01*
X146908922Y-76133249D01*
X146886283Y-76123872D01*
X146862250Y-76119092D01*
X146837746Y-76119092D01*
X146813713Y-76123873D01*
X146791078Y-76133249D01*
X146771446Y-76143742D01*
X146755051Y-76148716D01*
X146731859Y-76151000D01*
X146318141Y-76151000D01*
X146294949Y-76148716D01*
X146278554Y-76143742D01*
X146258922Y-76133249D01*
X146236283Y-76123872D01*
X146212250Y-76119092D01*
X146187746Y-76119092D01*
X146163713Y-76123873D01*
X146141078Y-76133249D01*
X146121446Y-76143742D01*
X146105051Y-76148716D01*
X146081859Y-76151000D01*
X145668141Y-76151000D01*
X145644949Y-76148716D01*
X145628554Y-76143742D01*
X145608922Y-76133249D01*
X145586283Y-76123872D01*
X145562250Y-76119092D01*
X145537746Y-76119092D01*
X145513713Y-76123873D01*
X145491078Y-76133249D01*
X145471446Y-76143742D01*
X145455051Y-76148716D01*
X145431859Y-76151000D01*
X145018141Y-76151000D01*
X144994949Y-76148716D01*
X144978557Y-76143743D01*
X144963445Y-76135666D01*
X144950202Y-76124798D01*
X144939334Y-76111555D01*
X144931257Y-76096443D01*
X144926284Y-76080051D01*
X144924000Y-76056859D01*
X144924000Y-74518141D01*
X144926284Y-74494949D01*
X144931257Y-74478557D01*
X144939334Y-74463445D01*
X144950202Y-74450202D01*
X144963445Y-74439334D01*
X144978557Y-74431257D01*
X144994949Y-74426284D01*
X145018141Y-74424000D01*
X145431859Y-74424000D01*
X145455051Y-74426284D01*
G37*
G36*
X123610468Y-74437565D02*
G01*
X123649138Y-74449296D01*
X123684777Y-74468346D01*
X123716017Y-74493983D01*
X123741654Y-74525223D01*
X123760704Y-74560862D01*
X123772435Y-74599532D01*
X123777000Y-74645888D01*
X123777000Y-75722112D01*
X123772435Y-75768468D01*
X123760704Y-75807138D01*
X123741654Y-75842777D01*
X123716017Y-75874017D01*
X123684777Y-75899654D01*
X123649138Y-75918704D01*
X123610468Y-75930435D01*
X123564112Y-75935000D01*
X122912888Y-75935000D01*
X122866532Y-75930435D01*
X122827862Y-75918704D01*
X122792223Y-75899654D01*
X122760983Y-75874017D01*
X122735346Y-75842777D01*
X122716296Y-75807138D01*
X122704565Y-75768468D01*
X122700000Y-75722112D01*
X122700000Y-74645888D01*
X122704565Y-74599532D01*
X122716296Y-74560862D01*
X122735346Y-74525223D01*
X122760983Y-74493983D01*
X122792223Y-74468346D01*
X122827862Y-74449296D01*
X122866532Y-74437565D01*
X122912888Y-74433000D01*
X123564112Y-74433000D01*
X123610468Y-74437565D01*
G37*
G36*
X121735468Y-74437565D02*
G01*
X121774138Y-74449296D01*
X121809777Y-74468346D01*
X121841017Y-74493983D01*
X121866654Y-74525223D01*
X121885704Y-74560862D01*
X121897435Y-74599532D01*
X121902000Y-74645888D01*
X121902000Y-75722112D01*
X121897435Y-75768468D01*
X121885704Y-75807138D01*
X121866654Y-75842777D01*
X121841017Y-75874017D01*
X121809777Y-75899654D01*
X121774138Y-75918704D01*
X121735468Y-75930435D01*
X121689112Y-75935000D01*
X121037888Y-75935000D01*
X120991532Y-75930435D01*
X120952862Y-75918704D01*
X120917223Y-75899654D01*
X120885983Y-75874017D01*
X120860346Y-75842777D01*
X120841296Y-75807138D01*
X120829565Y-75768468D01*
X120825000Y-75722112D01*
X120825000Y-74645888D01*
X120829565Y-74599532D01*
X120841296Y-74560862D01*
X120860346Y-74525223D01*
X120885983Y-74493983D01*
X120917223Y-74468346D01*
X120952862Y-74449296D01*
X120991532Y-74437565D01*
X121037888Y-74433000D01*
X121689112Y-74433000D01*
X121735468Y-74437565D01*
G37*
G36*
X129392642Y-74159781D02*
G01*
X129530447Y-74216862D01*
X129538416Y-74220163D01*
X129669608Y-74307822D01*
X129781178Y-74419392D01*
X129868837Y-74550584D01*
X129868838Y-74550586D01*
X129929219Y-74696358D01*
X129960000Y-74851107D01*
X129960000Y-75008893D01*
X129929219Y-75163642D01*
X129891985Y-75253532D01*
X129868837Y-75309416D01*
X129781178Y-75440608D01*
X129669608Y-75552178D01*
X129538416Y-75639837D01*
X129538415Y-75639838D01*
X129538414Y-75639838D01*
X129392642Y-75700219D01*
X129237893Y-75731000D01*
X129080107Y-75731000D01*
X128925358Y-75700219D01*
X128779586Y-75639838D01*
X128779585Y-75639838D01*
X128779584Y-75639837D01*
X128648392Y-75552178D01*
X128536822Y-75440608D01*
X128449163Y-75309416D01*
X128426015Y-75253532D01*
X128388781Y-75163642D01*
X128358000Y-75008893D01*
X128358000Y-74851107D01*
X128388781Y-74696358D01*
X128449162Y-74550586D01*
X128449163Y-74550584D01*
X128536822Y-74419392D01*
X128648392Y-74307822D01*
X128779584Y-74220163D01*
X128787553Y-74216862D01*
X128925358Y-74159781D01*
X129080107Y-74129000D01*
X129237893Y-74129000D01*
X129392642Y-74159781D01*
G37*
G36*
X127584468Y-74093565D02*
G01*
X127623138Y-74105296D01*
X127658777Y-74124346D01*
X127690017Y-74149983D01*
X127715654Y-74181223D01*
X127734704Y-74216862D01*
X127746435Y-74255532D01*
X127751000Y-74301888D01*
X127751000Y-74953112D01*
X127746435Y-74999468D01*
X127734704Y-75038138D01*
X127715654Y-75073777D01*
X127690017Y-75105017D01*
X127658777Y-75130654D01*
X127623138Y-75149704D01*
X127584468Y-75161435D01*
X127538112Y-75166000D01*
X126461888Y-75166000D01*
X126415532Y-75161435D01*
X126376862Y-75149704D01*
X126341223Y-75130654D01*
X126309983Y-75105017D01*
X126284346Y-75073777D01*
X126265296Y-75038138D01*
X126253565Y-74999468D01*
X126249000Y-74953112D01*
X126249000Y-74301888D01*
X126253565Y-74255532D01*
X126265296Y-74216862D01*
X126284346Y-74181223D01*
X126309983Y-74149983D01*
X126341223Y-74124346D01*
X126376862Y-74105296D01*
X126415532Y-74093565D01*
X126461888Y-74089000D01*
X127538112Y-74089000D01*
X127584468Y-74093565D01*
G37*
G36*
X132184468Y-73528565D02*
G01*
X132223138Y-73540296D01*
X132258777Y-73559346D01*
X132290017Y-73584983D01*
X132315654Y-73616223D01*
X132334704Y-73651862D01*
X132346435Y-73690532D01*
X132351000Y-73736888D01*
X132351000Y-74388112D01*
X132346435Y-74434468D01*
X132334704Y-74473138D01*
X132315654Y-74508777D01*
X132290017Y-74540017D01*
X132258777Y-74565654D01*
X132223138Y-74584704D01*
X132184468Y-74596435D01*
X132138112Y-74601000D01*
X131061888Y-74601000D01*
X131015532Y-74596435D01*
X130976862Y-74584704D01*
X130941223Y-74565654D01*
X130909983Y-74540017D01*
X130884346Y-74508777D01*
X130865296Y-74473138D01*
X130853565Y-74434468D01*
X130849000Y-74388112D01*
X130849000Y-73736888D01*
X130853565Y-73690532D01*
X130865296Y-73651862D01*
X130884346Y-73616223D01*
X130909983Y-73584983D01*
X130941223Y-73559346D01*
X130976862Y-73540296D01*
X131015532Y-73528565D01*
X131061888Y-73524000D01*
X132138112Y-73524000D01*
X132184468Y-73528565D01*
G37*
G36*
X121735468Y-72405565D02*
G01*
X121774138Y-72417296D01*
X121809777Y-72436346D01*
X121841017Y-72461983D01*
X121866654Y-72493223D01*
X121885704Y-72528862D01*
X121897435Y-72567532D01*
X121902000Y-72613888D01*
X121902000Y-73690112D01*
X121897435Y-73736468D01*
X121885704Y-73775138D01*
X121866654Y-73810777D01*
X121841017Y-73842017D01*
X121809777Y-73867654D01*
X121774138Y-73886704D01*
X121735468Y-73898435D01*
X121689112Y-73903000D01*
X121037888Y-73903000D01*
X120991532Y-73898435D01*
X120952862Y-73886704D01*
X120917223Y-73867654D01*
X120885983Y-73842017D01*
X120860346Y-73810777D01*
X120841296Y-73775138D01*
X120829565Y-73736468D01*
X120825000Y-73690112D01*
X120825000Y-72613888D01*
X120829565Y-72567532D01*
X120841296Y-72528862D01*
X120860346Y-72493223D01*
X120885983Y-72461983D01*
X120917223Y-72436346D01*
X120952862Y-72417296D01*
X120991532Y-72405565D01*
X121037888Y-72401000D01*
X121689112Y-72401000D01*
X121735468Y-72405565D01*
G37*
G36*
X123610468Y-72405565D02*
G01*
X123649138Y-72417296D01*
X123684777Y-72436346D01*
X123716017Y-72461983D01*
X123741654Y-72493223D01*
X123760704Y-72528862D01*
X123772435Y-72567532D01*
X123777000Y-72613888D01*
X123777000Y-73690112D01*
X123772435Y-73736468D01*
X123760704Y-73775138D01*
X123741654Y-73810777D01*
X123716017Y-73842017D01*
X123684777Y-73867654D01*
X123649138Y-73886704D01*
X123610468Y-73898435D01*
X123564112Y-73903000D01*
X122912888Y-73903000D01*
X122866532Y-73898435D01*
X122827862Y-73886704D01*
X122792223Y-73867654D01*
X122760983Y-73842017D01*
X122735346Y-73810777D01*
X122716296Y-73775138D01*
X122704565Y-73736468D01*
X122700000Y-73690112D01*
X122700000Y-72613888D01*
X122704565Y-72567532D01*
X122716296Y-72528862D01*
X122735346Y-72493223D01*
X122760983Y-72461983D01*
X122792223Y-72436346D01*
X122827862Y-72417296D01*
X122866532Y-72405565D01*
X122912888Y-72401000D01*
X123564112Y-72401000D01*
X123610468Y-72405565D01*
G37*
G36*
X158490228Y-71698703D02*
G01*
X158645100Y-71762853D01*
X158784481Y-71855985D01*
X158903015Y-71974519D01*
X158996147Y-72113900D01*
X159060297Y-72268772D01*
X159093000Y-72433184D01*
X159093000Y-72600816D01*
X159060297Y-72765228D01*
X158996147Y-72920100D01*
X158903015Y-73059481D01*
X158784481Y-73178015D01*
X158645100Y-73271147D01*
X158490228Y-73335297D01*
X158325816Y-73368000D01*
X158158184Y-73368000D01*
X157993772Y-73335297D01*
X157838900Y-73271147D01*
X157699519Y-73178015D01*
X157580985Y-73059481D01*
X157487853Y-72920100D01*
X157423703Y-72765228D01*
X157391000Y-72600816D01*
X157391000Y-72433184D01*
X157423703Y-72268772D01*
X157487853Y-72113900D01*
X157580985Y-71974519D01*
X157699519Y-71855985D01*
X157838900Y-71762853D01*
X157993772Y-71698703D01*
X158158184Y-71666000D01*
X158325816Y-71666000D01*
X158490228Y-71698703D01*
G37*
G36*
X155950228Y-71698703D02*
G01*
X156105100Y-71762853D01*
X156244481Y-71855985D01*
X156363015Y-71974519D01*
X156456147Y-72113900D01*
X156520297Y-72268772D01*
X156553000Y-72433184D01*
X156553000Y-72600816D01*
X156520297Y-72765228D01*
X156456147Y-72920100D01*
X156363015Y-73059481D01*
X156244481Y-73178015D01*
X156105100Y-73271147D01*
X155950228Y-73335297D01*
X155785816Y-73368000D01*
X155618184Y-73368000D01*
X155453772Y-73335297D01*
X155298900Y-73271147D01*
X155159519Y-73178015D01*
X155040985Y-73059481D01*
X154947853Y-72920100D01*
X154883703Y-72765228D01*
X154851000Y-72600816D01*
X154851000Y-72433184D01*
X154883703Y-72268772D01*
X154947853Y-72113900D01*
X155040985Y-71974519D01*
X155159519Y-71855985D01*
X155298900Y-71762853D01*
X155453772Y-71698703D01*
X155618184Y-71666000D01*
X155785816Y-71666000D01*
X155950228Y-71698703D01*
G37*
G36*
X153410228Y-71698703D02*
G01*
X153565100Y-71762853D01*
X153704481Y-71855985D01*
X153823015Y-71974519D01*
X153916147Y-72113900D01*
X153980297Y-72268772D01*
X154013000Y-72433184D01*
X154013000Y-72600816D01*
X153980297Y-72765228D01*
X153916147Y-72920100D01*
X153823015Y-73059481D01*
X153704481Y-73178015D01*
X153565100Y-73271147D01*
X153410228Y-73335297D01*
X153245816Y-73368000D01*
X153078184Y-73368000D01*
X152913772Y-73335297D01*
X152758900Y-73271147D01*
X152619519Y-73178015D01*
X152500985Y-73059481D01*
X152407853Y-72920100D01*
X152343703Y-72765228D01*
X152311000Y-72600816D01*
X152311000Y-72433184D01*
X152343703Y-72268772D01*
X152407853Y-72113900D01*
X152500985Y-71974519D01*
X152619519Y-71855985D01*
X152758900Y-71762853D01*
X152913772Y-71698703D01*
X153078184Y-71666000D01*
X153245816Y-71666000D01*
X153410228Y-71698703D01*
G37*
G36*
X150870228Y-71698703D02*
G01*
X151025100Y-71762853D01*
X151164481Y-71855985D01*
X151283015Y-71974519D01*
X151376147Y-72113900D01*
X151440297Y-72268772D01*
X151473000Y-72433184D01*
X151473000Y-72600816D01*
X151440297Y-72765228D01*
X151376147Y-72920100D01*
X151283015Y-73059481D01*
X151164481Y-73178015D01*
X151025100Y-73271147D01*
X150870228Y-73335297D01*
X150705816Y-73368000D01*
X150538184Y-73368000D01*
X150373772Y-73335297D01*
X150218900Y-73271147D01*
X150079519Y-73178015D01*
X149960985Y-73059481D01*
X149867853Y-72920100D01*
X149803703Y-72765228D01*
X149771000Y-72600816D01*
X149771000Y-72433184D01*
X149803703Y-72268772D01*
X149867853Y-72113900D01*
X149960985Y-71974519D01*
X150079519Y-71855985D01*
X150218900Y-71762853D01*
X150373772Y-71698703D01*
X150538184Y-71666000D01*
X150705816Y-71666000D01*
X150870228Y-71698703D01*
G37*
G36*
X144834468Y-71053565D02*
G01*
X144873138Y-71065296D01*
X144908777Y-71084346D01*
X144940017Y-71109983D01*
X144965654Y-71141223D01*
X144984704Y-71176862D01*
X144996435Y-71215532D01*
X145001000Y-71261888D01*
X145001000Y-72338112D01*
X144996435Y-72384468D01*
X144984704Y-72423138D01*
X144965654Y-72458777D01*
X144940017Y-72490017D01*
X144908777Y-72515654D01*
X144873138Y-72534704D01*
X144834468Y-72546435D01*
X144788112Y-72551000D01*
X144136888Y-72551000D01*
X144090532Y-72546435D01*
X144051862Y-72534704D01*
X144016223Y-72515654D01*
X143984983Y-72490017D01*
X143959346Y-72458777D01*
X143940296Y-72423138D01*
X143928565Y-72384468D01*
X143924000Y-72338112D01*
X143924000Y-71261888D01*
X143928565Y-71215532D01*
X143940296Y-71176862D01*
X143959346Y-71141223D01*
X143984983Y-71109983D01*
X144016223Y-71084346D01*
X144051862Y-71065296D01*
X144090532Y-71053565D01*
X144136888Y-71049000D01*
X144788112Y-71049000D01*
X144834468Y-71053565D01*
G37*
G36*
X146709468Y-71053565D02*
G01*
X146748138Y-71065296D01*
X146783777Y-71084346D01*
X146815017Y-71109983D01*
X146840654Y-71141223D01*
X146859704Y-71176862D01*
X146871435Y-71215532D01*
X146876000Y-71261888D01*
X146876000Y-72338112D01*
X146871435Y-72384468D01*
X146859704Y-72423138D01*
X146840654Y-72458777D01*
X146815017Y-72490017D01*
X146783777Y-72515654D01*
X146748138Y-72534704D01*
X146709468Y-72546435D01*
X146663112Y-72551000D01*
X146011888Y-72551000D01*
X145965532Y-72546435D01*
X145926862Y-72534704D01*
X145891223Y-72515654D01*
X145859983Y-72490017D01*
X145834346Y-72458777D01*
X145815296Y-72423138D01*
X145803565Y-72384468D01*
X145799000Y-72338112D01*
X145799000Y-71261888D01*
X145803565Y-71215532D01*
X145815296Y-71176862D01*
X145834346Y-71141223D01*
X145859983Y-71109983D01*
X145891223Y-71084346D01*
X145926862Y-71065296D01*
X145965532Y-71053565D01*
X146011888Y-71049000D01*
X146663112Y-71049000D01*
X146709468Y-71053565D01*
G37*
G36*
X125859928Y-71556764D02*
G01*
X125881009Y-71563160D01*
X125900445Y-71573548D01*
X125917476Y-71587524D01*
X125931452Y-71604555D01*
X125941840Y-71623991D01*
X125948236Y-71645072D01*
X125951000Y-71673140D01*
X125951000Y-72136860D01*
X125948236Y-72164928D01*
X125941840Y-72186009D01*
X125931452Y-72205445D01*
X125917476Y-72222476D01*
X125900445Y-72236452D01*
X125881009Y-72246840D01*
X125859928Y-72253236D01*
X125831860Y-72256000D01*
X124018140Y-72256000D01*
X123990072Y-72253236D01*
X123968991Y-72246840D01*
X123949555Y-72236452D01*
X123932524Y-72222476D01*
X123918548Y-72205445D01*
X123908160Y-72186009D01*
X123901764Y-72164928D01*
X123899000Y-72136860D01*
X123899000Y-71673140D01*
X123901764Y-71645072D01*
X123908160Y-71623991D01*
X123918548Y-71604555D01*
X123932524Y-71587524D01*
X123949555Y-71573548D01*
X123968991Y-71563160D01*
X123990072Y-71556764D01*
X124018140Y-71554000D01*
X125831860Y-71554000D01*
X125859928Y-71556764D01*
G37*
G36*
X130809928Y-71556764D02*
G01*
X130831009Y-71563160D01*
X130850445Y-71573548D01*
X130867476Y-71587524D01*
X130881452Y-71604555D01*
X130891840Y-71623991D01*
X130898236Y-71645072D01*
X130901000Y-71673140D01*
X130901000Y-72136860D01*
X130898236Y-72164928D01*
X130891840Y-72186009D01*
X130881452Y-72205445D01*
X130867476Y-72222476D01*
X130850445Y-72236452D01*
X130831009Y-72246840D01*
X130809928Y-72253236D01*
X130781860Y-72256000D01*
X128968140Y-72256000D01*
X128940072Y-72253236D01*
X128918991Y-72246840D01*
X128899555Y-72236452D01*
X128882524Y-72222476D01*
X128868548Y-72205445D01*
X128858160Y-72186009D01*
X128851764Y-72164928D01*
X128849000Y-72136860D01*
X128849000Y-71673140D01*
X128851764Y-71645072D01*
X128858160Y-71623991D01*
X128868548Y-71604555D01*
X128882524Y-71587524D01*
X128899555Y-71573548D01*
X128918991Y-71563160D01*
X128940072Y-71556764D01*
X128968140Y-71554000D01*
X130781860Y-71554000D01*
X130809928Y-71556764D01*
G37*
G36*
X141326000Y-72201000D02*
G01*
X135074000Y-72201000D01*
X135074000Y-70499000D01*
X141326000Y-70499000D01*
X141326000Y-72201000D01*
G37*
G36*
X148784468Y-70903565D02*
G01*
X148823138Y-70915296D01*
X148858777Y-70934346D01*
X148890017Y-70959983D01*
X148915654Y-70991223D01*
X148934704Y-71026862D01*
X148946435Y-71065532D01*
X148951000Y-71111888D01*
X148951000Y-71763112D01*
X148946435Y-71809468D01*
X148934704Y-71848138D01*
X148915654Y-71883777D01*
X148890017Y-71915017D01*
X148858777Y-71940654D01*
X148823138Y-71959704D01*
X148784468Y-71971435D01*
X148738112Y-71976000D01*
X147661888Y-71976000D01*
X147615532Y-71971435D01*
X147576862Y-71959704D01*
X147541223Y-71940654D01*
X147509983Y-71915017D01*
X147484346Y-71883777D01*
X147465296Y-71848138D01*
X147453565Y-71809468D01*
X147449000Y-71763112D01*
X147449000Y-71111888D01*
X147453565Y-71065532D01*
X147465296Y-71026862D01*
X147484346Y-70991223D01*
X147509983Y-70959983D01*
X147541223Y-70934346D01*
X147576862Y-70915296D01*
X147615532Y-70903565D01*
X147661888Y-70899000D01*
X148738112Y-70899000D01*
X148784468Y-70903565D01*
G37*
G36*
X133368604Y-70328347D02*
G01*
X133405144Y-70339432D01*
X133438821Y-70357433D01*
X133468341Y-70381659D01*
X133492567Y-70411179D01*
X133510568Y-70444856D01*
X133521653Y-70481396D01*
X133526000Y-70525538D01*
X133526000Y-71474462D01*
X133521653Y-71518604D01*
X133510568Y-71555144D01*
X133492567Y-71588821D01*
X133468341Y-71618341D01*
X133438821Y-71642567D01*
X133405144Y-71660568D01*
X133368604Y-71671653D01*
X133324462Y-71676000D01*
X131875538Y-71676000D01*
X131831396Y-71671653D01*
X131794856Y-71660568D01*
X131761179Y-71642567D01*
X131731659Y-71618341D01*
X131707433Y-71588821D01*
X131689432Y-71555144D01*
X131678347Y-71518604D01*
X131674000Y-71474462D01*
X131674000Y-70525538D01*
X131678347Y-70481396D01*
X131689432Y-70444856D01*
X131707433Y-70411179D01*
X131731659Y-70381659D01*
X131761179Y-70357433D01*
X131794856Y-70339432D01*
X131831396Y-70328347D01*
X131875538Y-70324000D01*
X133324462Y-70324000D01*
X133368604Y-70328347D01*
G37*
G36*
X122309199Y-68599954D02*
G01*
X122321450Y-68600556D01*
X122339869Y-68600556D01*
X122362149Y-68602750D01*
X122446233Y-68619476D01*
X122467660Y-68625976D01*
X122546858Y-68658780D01*
X122552303Y-68661691D01*
X122552309Y-68661693D01*
X122561169Y-68666429D01*
X122561173Y-68666432D01*
X122566614Y-68669340D01*
X122637899Y-68716971D01*
X122655204Y-68731172D01*
X122715828Y-68791796D01*
X122730029Y-68809101D01*
X122777660Y-68880386D01*
X122780568Y-68885827D01*
X122780571Y-68885831D01*
X122785307Y-68894691D01*
X122785309Y-68894697D01*
X122788220Y-68900142D01*
X122821024Y-68979340D01*
X122827524Y-69000767D01*
X122844250Y-69084851D01*
X122846444Y-69107131D01*
X122846444Y-69125550D01*
X122847046Y-69137801D01*
X122848852Y-69156139D01*
X122848852Y-69643860D01*
X122847263Y-69659999D01*
X122844348Y-69669608D01*
X122839610Y-69678472D01*
X122833237Y-69686237D01*
X122820794Y-69696448D01*
X122810425Y-69703378D01*
X122793098Y-69720705D01*
X122779485Y-69741080D01*
X122770109Y-69763720D01*
X122765329Y-69787753D01*
X122765330Y-69812257D01*
X122770112Y-69836290D01*
X122779490Y-69858929D01*
X122793105Y-69879302D01*
X122810432Y-69896629D01*
X122820802Y-69903558D01*
X122833237Y-69913763D01*
X122839610Y-69921528D01*
X122844348Y-69930392D01*
X122847263Y-69940001D01*
X122848852Y-69956140D01*
X122848852Y-70443862D01*
X122847046Y-70462199D01*
X122846444Y-70474450D01*
X122846444Y-70492869D01*
X122844250Y-70515149D01*
X122827524Y-70599233D01*
X122821024Y-70620660D01*
X122788220Y-70699858D01*
X122785309Y-70705303D01*
X122785307Y-70705309D01*
X122780571Y-70714169D01*
X122780568Y-70714173D01*
X122777660Y-70719614D01*
X122730029Y-70790899D01*
X122715828Y-70808204D01*
X122655204Y-70868828D01*
X122637899Y-70883029D01*
X122566614Y-70930660D01*
X122561173Y-70933568D01*
X122561169Y-70933571D01*
X122552309Y-70938307D01*
X122552303Y-70938309D01*
X122546858Y-70941220D01*
X122467660Y-70974024D01*
X122446233Y-70980524D01*
X122362149Y-70997250D01*
X122339869Y-70999444D01*
X122321450Y-70999444D01*
X122309199Y-71000046D01*
X122290862Y-71001852D01*
X121803138Y-71001852D01*
X121784801Y-71000046D01*
X121772550Y-70999444D01*
X121754131Y-70999444D01*
X121731851Y-70997250D01*
X121647767Y-70980524D01*
X121626340Y-70974024D01*
X121547142Y-70941220D01*
X121541697Y-70938309D01*
X121541691Y-70938307D01*
X121532831Y-70933571D01*
X121532827Y-70933568D01*
X121527386Y-70930660D01*
X121456101Y-70883029D01*
X121438796Y-70868828D01*
X121378172Y-70808204D01*
X121363971Y-70790899D01*
X121316340Y-70719614D01*
X121313432Y-70714173D01*
X121313429Y-70714169D01*
X121308693Y-70705309D01*
X121308691Y-70705303D01*
X121305780Y-70699858D01*
X121272976Y-70620660D01*
X121266476Y-70599233D01*
X121249750Y-70515149D01*
X121247556Y-70492869D01*
X121247556Y-70474450D01*
X121246954Y-70462199D01*
X121245148Y-70443862D01*
X121245148Y-69956140D01*
X121246737Y-69940001D01*
X121249652Y-69930392D01*
X121254390Y-69921528D01*
X121260763Y-69913763D01*
X121273206Y-69903552D01*
X121283575Y-69896622D01*
X121300902Y-69879295D01*
X121314515Y-69858920D01*
X121323891Y-69836280D01*
X121328671Y-69812247D01*
X121328670Y-69787743D01*
X121323888Y-69763710D01*
X121314510Y-69741071D01*
X121300895Y-69720698D01*
X121283568Y-69703371D01*
X121273198Y-69696442D01*
X121260763Y-69686237D01*
X121254390Y-69678472D01*
X121249652Y-69669608D01*
X121246737Y-69659999D01*
X121245148Y-69643860D01*
X121245148Y-69156139D01*
X121246954Y-69137801D01*
X121247556Y-69125550D01*
X121247556Y-69107131D01*
X121249750Y-69084851D01*
X121266476Y-69000767D01*
X121272976Y-68979340D01*
X121305780Y-68900142D01*
X121308691Y-68894697D01*
X121308693Y-68894691D01*
X121313429Y-68885831D01*
X121313432Y-68885827D01*
X121316340Y-68880386D01*
X121363971Y-68809101D01*
X121378172Y-68791796D01*
X121438796Y-68731172D01*
X121456101Y-68716971D01*
X121527386Y-68669340D01*
X121532827Y-68666432D01*
X121532831Y-68666429D01*
X121541691Y-68661693D01*
X121541697Y-68661691D01*
X121547142Y-68658780D01*
X121626340Y-68625976D01*
X121647767Y-68619476D01*
X121731851Y-68602750D01*
X121754131Y-68600556D01*
X121772550Y-68600556D01*
X121784801Y-68599954D01*
X121803139Y-68598148D01*
X122290861Y-68598148D01*
X122309199Y-68599954D01*
G37*
G36*
X130809928Y-70286764D02*
G01*
X130831009Y-70293160D01*
X130850445Y-70303548D01*
X130867476Y-70317524D01*
X130881452Y-70334555D01*
X130891840Y-70353991D01*
X130898236Y-70375072D01*
X130901000Y-70403140D01*
X130901000Y-70866860D01*
X130898236Y-70894928D01*
X130891840Y-70916009D01*
X130881452Y-70935445D01*
X130867476Y-70952476D01*
X130850445Y-70966452D01*
X130831009Y-70976840D01*
X130809928Y-70983236D01*
X130781860Y-70986000D01*
X128968140Y-70986000D01*
X128940072Y-70983236D01*
X128918991Y-70976840D01*
X128899555Y-70966452D01*
X128882524Y-70952476D01*
X128868548Y-70935445D01*
X128858160Y-70916009D01*
X128851764Y-70894928D01*
X128849000Y-70866860D01*
X128849000Y-70403140D01*
X128851764Y-70375072D01*
X128858160Y-70353991D01*
X128868548Y-70334555D01*
X128882524Y-70317524D01*
X128899555Y-70303548D01*
X128918991Y-70293160D01*
X128940072Y-70286764D01*
X128968140Y-70284000D01*
X130781860Y-70284000D01*
X130809928Y-70286764D01*
G37*
G36*
X125859928Y-70286764D02*
G01*
X125881009Y-70293160D01*
X125900445Y-70303548D01*
X125917476Y-70317524D01*
X125931452Y-70334555D01*
X125941840Y-70353991D01*
X125948236Y-70375072D01*
X125951000Y-70403140D01*
X125951000Y-70866860D01*
X125948236Y-70894928D01*
X125941840Y-70916009D01*
X125931452Y-70935445D01*
X125917476Y-70952476D01*
X125900445Y-70966452D01*
X125881009Y-70976840D01*
X125859928Y-70983236D01*
X125831860Y-70986000D01*
X124018140Y-70986000D01*
X123990072Y-70983236D01*
X123968991Y-70976840D01*
X123949555Y-70966452D01*
X123932524Y-70952476D01*
X123918548Y-70935445D01*
X123908160Y-70916009D01*
X123901764Y-70894928D01*
X123899000Y-70866860D01*
X123899000Y-70403140D01*
X123901764Y-70375072D01*
X123908160Y-70353991D01*
X123918548Y-70334555D01*
X123932524Y-70317524D01*
X123949555Y-70303548D01*
X123968991Y-70293160D01*
X123990072Y-70286764D01*
X124018140Y-70284000D01*
X125831860Y-70284000D01*
X125859928Y-70286764D01*
G37*
G36*
X154201000Y-70751000D02*
G01*
X153099000Y-70751000D01*
X153099000Y-69649000D01*
X154201000Y-69649000D01*
X154201000Y-70751000D01*
G37*
G36*
X151701000Y-70751000D02*
G01*
X150599000Y-70751000D01*
X150599000Y-69649000D01*
X151701000Y-69649000D01*
X151701000Y-70751000D01*
G37*
G36*
X158909468Y-69253565D02*
G01*
X158948138Y-69265296D01*
X158983777Y-69284346D01*
X159015017Y-69309983D01*
X159040654Y-69341223D01*
X159059704Y-69376862D01*
X159071435Y-69415532D01*
X159076000Y-69461888D01*
X159076000Y-70538112D01*
X159071435Y-70584468D01*
X159059704Y-70623138D01*
X159040654Y-70658777D01*
X159015017Y-70690017D01*
X158983777Y-70715654D01*
X158948138Y-70734704D01*
X158909468Y-70746435D01*
X158863112Y-70751000D01*
X158211888Y-70751000D01*
X158165532Y-70746435D01*
X158126862Y-70734704D01*
X158091223Y-70715654D01*
X158059983Y-70690017D01*
X158034346Y-70658777D01*
X158015296Y-70623138D01*
X158003565Y-70584468D01*
X157999000Y-70538112D01*
X157999000Y-69461888D01*
X158003565Y-69415532D01*
X158015296Y-69376862D01*
X158034346Y-69341223D01*
X158059983Y-69309983D01*
X158091223Y-69284346D01*
X158126862Y-69265296D01*
X158165532Y-69253565D01*
X158211888Y-69249000D01*
X158863112Y-69249000D01*
X158909468Y-69253565D01*
G37*
G36*
X157034468Y-69253565D02*
G01*
X157073138Y-69265296D01*
X157108777Y-69284346D01*
X157140017Y-69309983D01*
X157165654Y-69341223D01*
X157184704Y-69376862D01*
X157196435Y-69415532D01*
X157201000Y-69461888D01*
X157201000Y-70538112D01*
X157196435Y-70584468D01*
X157184704Y-70623138D01*
X157165654Y-70658777D01*
X157140017Y-70690017D01*
X157108777Y-70715654D01*
X157073138Y-70734704D01*
X157034468Y-70746435D01*
X156988112Y-70751000D01*
X156336888Y-70751000D01*
X156290532Y-70746435D01*
X156251862Y-70734704D01*
X156216223Y-70715654D01*
X156184983Y-70690017D01*
X156159346Y-70658777D01*
X156140296Y-70623138D01*
X156128565Y-70584468D01*
X156124000Y-70538112D01*
X156124000Y-69461888D01*
X156128565Y-69415532D01*
X156140296Y-69376862D01*
X156159346Y-69341223D01*
X156184983Y-69309983D01*
X156216223Y-69284346D01*
X156251862Y-69265296D01*
X156290532Y-69253565D01*
X156336888Y-69249000D01*
X156988112Y-69249000D01*
X157034468Y-69253565D01*
G37*
G36*
X146701000Y-70319000D02*
G01*
X145699000Y-70319000D01*
X145699000Y-69417000D01*
X146701000Y-69417000D01*
X146701000Y-70319000D01*
G37*
G36*
X148784468Y-69028565D02*
G01*
X148823138Y-69040296D01*
X148858777Y-69059346D01*
X148890017Y-69084983D01*
X148915654Y-69116223D01*
X148934704Y-69151862D01*
X148946435Y-69190532D01*
X148951000Y-69236888D01*
X148951000Y-69888112D01*
X148946435Y-69934468D01*
X148934704Y-69973138D01*
X148915654Y-70008777D01*
X148890017Y-70040017D01*
X148858777Y-70065654D01*
X148823138Y-70084704D01*
X148784468Y-70096435D01*
X148738112Y-70101000D01*
X147661888Y-70101000D01*
X147615532Y-70096435D01*
X147576862Y-70084704D01*
X147541223Y-70065654D01*
X147509983Y-70040017D01*
X147484346Y-70008777D01*
X147465296Y-69973138D01*
X147453565Y-69934468D01*
X147449000Y-69888112D01*
X147449000Y-69236888D01*
X147453565Y-69190532D01*
X147465296Y-69151862D01*
X147484346Y-69116223D01*
X147509983Y-69084983D01*
X147541223Y-69059346D01*
X147576862Y-69040296D01*
X147615532Y-69028565D01*
X147661888Y-69024000D01*
X148738112Y-69024000D01*
X148784468Y-69028565D01*
G37*
G36*
X125859928Y-69016764D02*
G01*
X125881009Y-69023160D01*
X125900445Y-69033548D01*
X125917476Y-69047524D01*
X125931452Y-69064555D01*
X125941840Y-69083991D01*
X125948236Y-69105072D01*
X125951000Y-69133140D01*
X125951000Y-69596860D01*
X125948236Y-69624928D01*
X125941840Y-69646009D01*
X125931452Y-69665445D01*
X125917476Y-69682476D01*
X125900445Y-69696452D01*
X125881009Y-69706840D01*
X125859928Y-69713236D01*
X125831860Y-69716000D01*
X124018140Y-69716000D01*
X123990072Y-69713236D01*
X123968991Y-69706840D01*
X123949555Y-69696452D01*
X123932524Y-69682476D01*
X123918548Y-69665445D01*
X123908160Y-69646009D01*
X123901764Y-69624928D01*
X123899000Y-69596860D01*
X123899000Y-69133140D01*
X123901764Y-69105072D01*
X123908160Y-69083991D01*
X123918548Y-69064555D01*
X123932524Y-69047524D01*
X123949555Y-69033548D01*
X123968991Y-69023160D01*
X123990072Y-69016764D01*
X124018140Y-69014000D01*
X125831860Y-69014000D01*
X125859928Y-69016764D01*
G37*
G36*
X130809928Y-69016764D02*
G01*
X130831009Y-69023160D01*
X130850445Y-69033548D01*
X130867476Y-69047524D01*
X130881452Y-69064555D01*
X130891840Y-69083991D01*
X130898236Y-69105072D01*
X130901000Y-69133140D01*
X130901000Y-69596860D01*
X130898236Y-69624928D01*
X130891840Y-69646009D01*
X130881452Y-69665445D01*
X130867476Y-69682476D01*
X130850445Y-69696452D01*
X130831009Y-69706840D01*
X130809928Y-69713236D01*
X130781860Y-69716000D01*
X128968140Y-69716000D01*
X128940072Y-69713236D01*
X128918991Y-69706840D01*
X128899555Y-69696452D01*
X128882524Y-69682476D01*
X128868548Y-69665445D01*
X128858160Y-69646009D01*
X128851764Y-69624928D01*
X128849000Y-69596860D01*
X128849000Y-69133140D01*
X128851764Y-69105072D01*
X128858160Y-69083991D01*
X128868548Y-69064555D01*
X128882524Y-69047524D01*
X128899555Y-69033548D01*
X128918991Y-69023160D01*
X128940072Y-69016764D01*
X128968140Y-69014000D01*
X130781860Y-69014000D01*
X130809928Y-69016764D01*
G37*
G36*
X144701000Y-69369000D02*
G01*
X143699000Y-69369000D01*
X143699000Y-68467000D01*
X144701000Y-68467000D01*
X144701000Y-69369000D01*
G37*
G36*
X133368604Y-67528347D02*
G01*
X133405144Y-67539432D01*
X133438821Y-67557433D01*
X133468341Y-67581659D01*
X133492567Y-67611179D01*
X133510568Y-67644856D01*
X133521653Y-67681396D01*
X133526000Y-67725538D01*
X133526000Y-68674462D01*
X133521653Y-68718604D01*
X133510568Y-68755144D01*
X133492567Y-68788821D01*
X133468341Y-68818341D01*
X133438821Y-68842567D01*
X133405144Y-68860568D01*
X133368604Y-68871653D01*
X133324462Y-68876000D01*
X131875538Y-68876000D01*
X131831396Y-68871653D01*
X131794856Y-68860568D01*
X131761179Y-68842567D01*
X131731659Y-68818341D01*
X131707433Y-68788821D01*
X131689432Y-68755144D01*
X131678347Y-68718604D01*
X131674000Y-68674462D01*
X131674000Y-67725538D01*
X131678347Y-67681396D01*
X131689432Y-67644856D01*
X131707433Y-67611179D01*
X131731659Y-67581659D01*
X131761179Y-67557433D01*
X131794856Y-67539432D01*
X131831396Y-67528347D01*
X131875538Y-67524000D01*
X133324462Y-67524000D01*
X133368604Y-67528347D01*
G37*
G36*
X130809928Y-67746764D02*
G01*
X130831009Y-67753160D01*
X130850445Y-67763548D01*
X130867476Y-67777524D01*
X130881452Y-67794555D01*
X130891840Y-67813991D01*
X130898236Y-67835072D01*
X130901000Y-67863140D01*
X130901000Y-68326860D01*
X130898236Y-68354928D01*
X130891840Y-68376009D01*
X130881452Y-68395445D01*
X130867476Y-68412476D01*
X130850445Y-68426452D01*
X130831009Y-68436840D01*
X130809928Y-68443236D01*
X130781860Y-68446000D01*
X128968140Y-68446000D01*
X128940072Y-68443236D01*
X128918991Y-68436840D01*
X128899555Y-68426452D01*
X128882524Y-68412476D01*
X128868548Y-68395445D01*
X128858160Y-68376009D01*
X128851764Y-68354928D01*
X128849000Y-68326860D01*
X128849000Y-67863140D01*
X128851764Y-67835072D01*
X128858160Y-67813991D01*
X128868548Y-67794555D01*
X128882524Y-67777524D01*
X128899555Y-67763548D01*
X128918991Y-67753160D01*
X128940072Y-67746764D01*
X128968140Y-67744000D01*
X130781860Y-67744000D01*
X130809928Y-67746764D01*
G37*
G36*
X125859928Y-67746764D02*
G01*
X125881009Y-67753160D01*
X125900445Y-67763548D01*
X125917476Y-67777524D01*
X125931452Y-67794555D01*
X125941840Y-67813991D01*
X125948236Y-67835072D01*
X125951000Y-67863140D01*
X125951000Y-68326860D01*
X125948236Y-68354928D01*
X125941840Y-68376009D01*
X125931452Y-68395445D01*
X125917476Y-68412476D01*
X125900445Y-68426452D01*
X125881009Y-68436840D01*
X125859928Y-68443236D01*
X125831860Y-68446000D01*
X124018140Y-68446000D01*
X123990072Y-68443236D01*
X123968991Y-68436840D01*
X123949555Y-68426452D01*
X123932524Y-68412476D01*
X123918548Y-68395445D01*
X123908160Y-68376009D01*
X123901764Y-68354928D01*
X123899000Y-68326860D01*
X123899000Y-67863140D01*
X123901764Y-67835072D01*
X123908160Y-67813991D01*
X123918548Y-67794555D01*
X123932524Y-67777524D01*
X123949555Y-67763548D01*
X123968991Y-67753160D01*
X123990072Y-67746764D01*
X124018140Y-67744000D01*
X125831860Y-67744000D01*
X125859928Y-67746764D01*
G37*
G36*
X146701000Y-68419000D02*
G01*
X145699000Y-68419000D01*
X145699000Y-67517000D01*
X146701000Y-67517000D01*
X146701000Y-68419000D01*
G37*
G36*
X148684468Y-67303565D02*
G01*
X148723138Y-67315296D01*
X148758777Y-67334346D01*
X148790017Y-67359983D01*
X148815654Y-67391223D01*
X148834704Y-67426862D01*
X148846435Y-67465532D01*
X148851000Y-67511888D01*
X148851000Y-68163112D01*
X148846435Y-68209468D01*
X148834704Y-68248138D01*
X148815654Y-68283777D01*
X148790017Y-68315017D01*
X148758777Y-68340654D01*
X148723138Y-68359704D01*
X148684468Y-68371435D01*
X148638112Y-68376000D01*
X147561888Y-68376000D01*
X147515532Y-68371435D01*
X147476862Y-68359704D01*
X147441223Y-68340654D01*
X147409983Y-68315017D01*
X147384346Y-68283777D01*
X147365296Y-68248138D01*
X147353565Y-68209468D01*
X147349000Y-68163112D01*
X147349000Y-67511888D01*
X147353565Y-67465532D01*
X147365296Y-67426862D01*
X147384346Y-67391223D01*
X147409983Y-67359983D01*
X147441223Y-67334346D01*
X147476862Y-67315296D01*
X147515532Y-67303565D01*
X147561888Y-67299000D01*
X148638112Y-67299000D01*
X148684468Y-67303565D01*
G37*
G36*
X154109468Y-66653565D02*
G01*
X154148138Y-66665296D01*
X154183777Y-66684346D01*
X154215017Y-66709983D01*
X154240654Y-66741223D01*
X154259704Y-66776862D01*
X154271435Y-66815532D01*
X154276000Y-66861888D01*
X154276000Y-67938112D01*
X154271435Y-67984468D01*
X154259704Y-68023138D01*
X154240654Y-68058777D01*
X154215017Y-68090017D01*
X154183777Y-68115654D01*
X154148138Y-68134704D01*
X154109468Y-68146435D01*
X154063112Y-68151000D01*
X153411888Y-68151000D01*
X153365532Y-68146435D01*
X153326862Y-68134704D01*
X153291223Y-68115654D01*
X153259983Y-68090017D01*
X153234346Y-68058777D01*
X153215296Y-68023138D01*
X153203565Y-67984468D01*
X153199000Y-67938112D01*
X153199000Y-66861888D01*
X153203565Y-66815532D01*
X153215296Y-66776862D01*
X153234346Y-66741223D01*
X153259983Y-66709983D01*
X153291223Y-66684346D01*
X153326862Y-66665296D01*
X153365532Y-66653565D01*
X153411888Y-66649000D01*
X154063112Y-66649000D01*
X154109468Y-66653565D01*
G37*
G36*
X158909468Y-66653565D02*
G01*
X158948138Y-66665296D01*
X158983777Y-66684346D01*
X159015017Y-66709983D01*
X159040654Y-66741223D01*
X159059704Y-66776862D01*
X159071435Y-66815532D01*
X159076000Y-66861888D01*
X159076000Y-67938112D01*
X159071435Y-67984468D01*
X159059704Y-68023138D01*
X159040654Y-68058777D01*
X159015017Y-68090017D01*
X158983777Y-68115654D01*
X158948138Y-68134704D01*
X158909468Y-68146435D01*
X158863112Y-68151000D01*
X158211888Y-68151000D01*
X158165532Y-68146435D01*
X158126862Y-68134704D01*
X158091223Y-68115654D01*
X158059983Y-68090017D01*
X158034346Y-68058777D01*
X158015296Y-68023138D01*
X158003565Y-67984468D01*
X157999000Y-67938112D01*
X157999000Y-66861888D01*
X158003565Y-66815532D01*
X158015296Y-66776862D01*
X158034346Y-66741223D01*
X158059983Y-66709983D01*
X158091223Y-66684346D01*
X158126862Y-66665296D01*
X158165532Y-66653565D01*
X158211888Y-66649000D01*
X158863112Y-66649000D01*
X158909468Y-66653565D01*
G37*
G36*
X157034468Y-66653565D02*
G01*
X157073138Y-66665296D01*
X157108777Y-66684346D01*
X157140017Y-66709983D01*
X157165654Y-66741223D01*
X157184704Y-66776862D01*
X157196435Y-66815532D01*
X157201000Y-66861888D01*
X157201000Y-67938112D01*
X157196435Y-67984468D01*
X157184704Y-68023138D01*
X157165654Y-68058777D01*
X157140017Y-68090017D01*
X157108777Y-68115654D01*
X157073138Y-68134704D01*
X157034468Y-68146435D01*
X156988112Y-68151000D01*
X156336888Y-68151000D01*
X156290532Y-68146435D01*
X156251862Y-68134704D01*
X156216223Y-68115654D01*
X156184983Y-68090017D01*
X156159346Y-68058777D01*
X156140296Y-68023138D01*
X156128565Y-67984468D01*
X156124000Y-67938112D01*
X156124000Y-66861888D01*
X156128565Y-66815532D01*
X156140296Y-66776862D01*
X156159346Y-66741223D01*
X156184983Y-66709983D01*
X156216223Y-66684346D01*
X156251862Y-66665296D01*
X156290532Y-66653565D01*
X156336888Y-66649000D01*
X156988112Y-66649000D01*
X157034468Y-66653565D01*
G37*
G36*
X152234468Y-66653565D02*
G01*
X152273138Y-66665296D01*
X152308777Y-66684346D01*
X152340017Y-66709983D01*
X152365654Y-66741223D01*
X152384704Y-66776862D01*
X152396435Y-66815532D01*
X152401000Y-66861888D01*
X152401000Y-67938112D01*
X152396435Y-67984468D01*
X152384704Y-68023138D01*
X152365654Y-68058777D01*
X152340017Y-68090017D01*
X152308777Y-68115654D01*
X152273138Y-68134704D01*
X152234468Y-68146435D01*
X152188112Y-68151000D01*
X151536888Y-68151000D01*
X151490532Y-68146435D01*
X151451862Y-68134704D01*
X151416223Y-68115654D01*
X151384983Y-68090017D01*
X151359346Y-68058777D01*
X151340296Y-68023138D01*
X151328565Y-67984468D01*
X151324000Y-67938112D01*
X151324000Y-66861888D01*
X151328565Y-66815532D01*
X151340296Y-66776862D01*
X151359346Y-66741223D01*
X151384983Y-66709983D01*
X151416223Y-66684346D01*
X151451862Y-66665296D01*
X151490532Y-66653565D01*
X151536888Y-66649000D01*
X152188112Y-66649000D01*
X152234468Y-66653565D01*
G37*
G36*
X144734468Y-65353565D02*
G01*
X144773138Y-65365296D01*
X144808777Y-65384346D01*
X144840017Y-65409983D01*
X144865654Y-65441223D01*
X144884704Y-65476862D01*
X144896435Y-65515532D01*
X144901000Y-65561888D01*
X144901000Y-66638112D01*
X144896435Y-66684468D01*
X144884704Y-66723138D01*
X144865654Y-66758777D01*
X144840017Y-66790017D01*
X144808777Y-66815654D01*
X144773138Y-66834704D01*
X144734468Y-66846435D01*
X144688112Y-66851000D01*
X144036888Y-66851000D01*
X143990532Y-66846435D01*
X143951862Y-66834704D01*
X143916223Y-66815654D01*
X143884983Y-66790017D01*
X143859346Y-66758777D01*
X143840296Y-66723138D01*
X143828565Y-66684468D01*
X143824000Y-66638112D01*
X143824000Y-65561888D01*
X143828565Y-65515532D01*
X143840296Y-65476862D01*
X143859346Y-65441223D01*
X143884983Y-65409983D01*
X143916223Y-65384346D01*
X143951862Y-65365296D01*
X143990532Y-65353565D01*
X144036888Y-65349000D01*
X144688112Y-65349000D01*
X144734468Y-65353565D01*
G37*
G36*
X146609468Y-65353565D02*
G01*
X146648138Y-65365296D01*
X146683777Y-65384346D01*
X146715017Y-65409983D01*
X146740654Y-65441223D01*
X146759704Y-65476862D01*
X146771435Y-65515532D01*
X146776000Y-65561888D01*
X146776000Y-66638112D01*
X146771435Y-66684468D01*
X146759704Y-66723138D01*
X146740654Y-66758777D01*
X146715017Y-66790017D01*
X146683777Y-66815654D01*
X146648138Y-66834704D01*
X146609468Y-66846435D01*
X146563112Y-66851000D01*
X145911888Y-66851000D01*
X145865532Y-66846435D01*
X145826862Y-66834704D01*
X145791223Y-66815654D01*
X145759983Y-66790017D01*
X145734346Y-66758777D01*
X145715296Y-66723138D01*
X145703565Y-66684468D01*
X145699000Y-66638112D01*
X145699000Y-65561888D01*
X145703565Y-65515532D01*
X145715296Y-65476862D01*
X145734346Y-65441223D01*
X145759983Y-65409983D01*
X145791223Y-65384346D01*
X145826862Y-65365296D01*
X145865532Y-65353565D01*
X145911888Y-65349000D01*
X146563112Y-65349000D01*
X146609468Y-65353565D01*
G37*
G36*
X148684468Y-65428565D02*
G01*
X148723138Y-65440296D01*
X148758777Y-65459346D01*
X148790017Y-65484983D01*
X148815654Y-65516223D01*
X148834704Y-65551862D01*
X148846435Y-65590532D01*
X148851000Y-65636888D01*
X148851000Y-66288112D01*
X148846435Y-66334468D01*
X148834704Y-66373138D01*
X148815654Y-66408777D01*
X148790017Y-66440017D01*
X148758777Y-66465654D01*
X148723138Y-66484704D01*
X148684468Y-66496435D01*
X148638112Y-66501000D01*
X147561888Y-66501000D01*
X147515532Y-66496435D01*
X147476862Y-66484704D01*
X147441223Y-66465654D01*
X147409983Y-66440017D01*
X147384346Y-66408777D01*
X147365296Y-66373138D01*
X147353565Y-66334468D01*
X147349000Y-66288112D01*
X147349000Y-65636888D01*
X147353565Y-65590532D01*
X147365296Y-65551862D01*
X147384346Y-65516223D01*
X147409983Y-65484983D01*
X147441223Y-65459346D01*
X147476862Y-65440296D01*
X147515532Y-65428565D01*
X147561888Y-65424000D01*
X148638112Y-65424000D01*
X148684468Y-65428565D01*
G37*
G36*
X151473000Y-65748000D02*
G01*
X149771000Y-65748000D01*
X149771000Y-64046000D01*
X151473000Y-64046000D01*
X151473000Y-65748000D01*
G37*
G36*
X153410228Y-64078703D02*
G01*
X153565100Y-64142853D01*
X153704481Y-64235985D01*
X153823015Y-64354519D01*
X153916147Y-64493900D01*
X153980297Y-64648772D01*
X154013000Y-64813184D01*
X154013000Y-64980816D01*
X153980297Y-65145228D01*
X153916147Y-65300100D01*
X153823015Y-65439481D01*
X153704481Y-65558015D01*
X153565100Y-65651147D01*
X153410228Y-65715297D01*
X153245816Y-65748000D01*
X153078184Y-65748000D01*
X152913772Y-65715297D01*
X152758900Y-65651147D01*
X152619519Y-65558015D01*
X152500985Y-65439481D01*
X152407853Y-65300100D01*
X152343703Y-65145228D01*
X152311000Y-64980816D01*
X152311000Y-64813184D01*
X152343703Y-64648772D01*
X152407853Y-64493900D01*
X152500985Y-64354519D01*
X152619519Y-64235985D01*
X152758900Y-64142853D01*
X152913772Y-64078703D01*
X153078184Y-64046000D01*
X153245816Y-64046000D01*
X153410228Y-64078703D01*
G37*
G36*
X155950228Y-64078703D02*
G01*
X156105100Y-64142853D01*
X156244481Y-64235985D01*
X156363015Y-64354519D01*
X156456147Y-64493900D01*
X156520297Y-64648772D01*
X156553000Y-64813184D01*
X156553000Y-64980816D01*
X156520297Y-65145228D01*
X156456147Y-65300100D01*
X156363015Y-65439481D01*
X156244481Y-65558015D01*
X156105100Y-65651147D01*
X155950228Y-65715297D01*
X155785816Y-65748000D01*
X155618184Y-65748000D01*
X155453772Y-65715297D01*
X155298900Y-65651147D01*
X155159519Y-65558015D01*
X155040985Y-65439481D01*
X154947853Y-65300100D01*
X154883703Y-65145228D01*
X154851000Y-64980816D01*
X154851000Y-64813184D01*
X154883703Y-64648772D01*
X154947853Y-64493900D01*
X155040985Y-64354519D01*
X155159519Y-64235985D01*
X155298900Y-64142853D01*
X155453772Y-64078703D01*
X155618184Y-64046000D01*
X155785816Y-64046000D01*
X155950228Y-64078703D01*
G37*
G36*
X158490228Y-64078703D02*
G01*
X158645100Y-64142853D01*
X158784481Y-64235985D01*
X158903015Y-64354519D01*
X158996147Y-64493900D01*
X159060297Y-64648772D01*
X159093000Y-64813184D01*
X159093000Y-64980816D01*
X159060297Y-65145228D01*
X158996147Y-65300100D01*
X158903015Y-65439481D01*
X158784481Y-65558015D01*
X158645100Y-65651147D01*
X158490228Y-65715297D01*
X158325816Y-65748000D01*
X158158184Y-65748000D01*
X157993772Y-65715297D01*
X157838900Y-65651147D01*
X157699519Y-65558015D01*
X157580985Y-65439481D01*
X157487853Y-65300100D01*
X157423703Y-65145228D01*
X157391000Y-64980816D01*
X157391000Y-64813184D01*
X157423703Y-64648772D01*
X157487853Y-64493900D01*
X157580985Y-64354519D01*
X157699519Y-64235985D01*
X157838900Y-64142853D01*
X157993772Y-64078703D01*
X158158184Y-64046000D01*
X158325816Y-64046000D01*
X158490228Y-64078703D01*
G37*
G36*
X135601000Y-65441000D02*
G01*
X133799000Y-65441000D01*
X133799000Y-63639000D01*
X135601000Y-63639000D01*
X135601000Y-65441000D01*
G37*
G36*
X124653512Y-63643927D02*
G01*
X124802812Y-63673624D01*
X124966784Y-63741544D01*
X125114354Y-63840147D01*
X125239853Y-63965646D01*
X125338456Y-64113216D01*
X125406376Y-64277188D01*
X125441000Y-64451259D01*
X125441000Y-64628741D01*
X125406376Y-64802812D01*
X125338456Y-64966784D01*
X125239853Y-65114354D01*
X125114354Y-65239853D01*
X124966784Y-65338456D01*
X124802812Y-65406376D01*
X124653512Y-65436073D01*
X124628742Y-65441000D01*
X124451258Y-65441000D01*
X124426488Y-65436073D01*
X124277188Y-65406376D01*
X124113216Y-65338456D01*
X123965646Y-65239853D01*
X123840147Y-65114354D01*
X123741544Y-64966784D01*
X123673624Y-64802812D01*
X123639000Y-64628741D01*
X123639000Y-64451259D01*
X123673624Y-64277188D01*
X123741544Y-64113216D01*
X123840147Y-63965646D01*
X123965646Y-63840147D01*
X124113216Y-63741544D01*
X124277188Y-63673624D01*
X124426488Y-63643927D01*
X124451258Y-63639000D01*
X124628742Y-63639000D01*
X124653512Y-63643927D01*
G37*
G36*
X129733512Y-63643927D02*
G01*
X129882812Y-63673624D01*
X130046784Y-63741544D01*
X130194354Y-63840147D01*
X130319853Y-63965646D01*
X130418456Y-64113216D01*
X130486376Y-64277188D01*
X130521000Y-64451259D01*
X130521000Y-64628741D01*
X130486376Y-64802812D01*
X130418456Y-64966784D01*
X130319853Y-65114354D01*
X130194354Y-65239853D01*
X130046784Y-65338456D01*
X129882812Y-65406376D01*
X129733512Y-65436073D01*
X129708742Y-65441000D01*
X129531258Y-65441000D01*
X129506488Y-65436073D01*
X129357188Y-65406376D01*
X129193216Y-65338456D01*
X129045646Y-65239853D01*
X128920147Y-65114354D01*
X128821544Y-64966784D01*
X128753624Y-64802812D01*
X128719000Y-64628741D01*
X128719000Y-64451259D01*
X128753624Y-64277188D01*
X128821544Y-64113216D01*
X128920147Y-63965646D01*
X129045646Y-63840147D01*
X129193216Y-63741544D01*
X129357188Y-63673624D01*
X129506488Y-63643927D01*
X129531258Y-63639000D01*
X129708742Y-63639000D01*
X129733512Y-63643927D01*
G37*
G36*
X132273512Y-63643927D02*
G01*
X132422812Y-63673624D01*
X132586784Y-63741544D01*
X132734354Y-63840147D01*
X132859853Y-63965646D01*
X132958456Y-64113216D01*
X133026376Y-64277188D01*
X133061000Y-64451259D01*
X133061000Y-64628741D01*
X133026376Y-64802812D01*
X132958456Y-64966784D01*
X132859853Y-65114354D01*
X132734354Y-65239853D01*
X132586784Y-65338456D01*
X132422812Y-65406376D01*
X132273512Y-65436073D01*
X132248742Y-65441000D01*
X132071258Y-65441000D01*
X132046488Y-65436073D01*
X131897188Y-65406376D01*
X131733216Y-65338456D01*
X131585646Y-65239853D01*
X131460147Y-65114354D01*
X131361544Y-64966784D01*
X131293624Y-64802812D01*
X131259000Y-64628741D01*
X131259000Y-64451259D01*
X131293624Y-64277188D01*
X131361544Y-64113216D01*
X131460147Y-63965646D01*
X131585646Y-63840147D01*
X131733216Y-63741544D01*
X131897188Y-63673624D01*
X132046488Y-63643927D01*
X132071258Y-63639000D01*
X132248742Y-63639000D01*
X132273512Y-63643927D01*
G37*
G36*
X122113512Y-63643927D02*
G01*
X122262812Y-63673624D01*
X122426784Y-63741544D01*
X122574354Y-63840147D01*
X122699853Y-63965646D01*
X122798456Y-64113216D01*
X122866376Y-64277188D01*
X122901000Y-64451259D01*
X122901000Y-64628741D01*
X122866376Y-64802812D01*
X122798456Y-64966784D01*
X122699853Y-65114354D01*
X122574354Y-65239853D01*
X122426784Y-65338456D01*
X122262812Y-65406376D01*
X122113512Y-65436073D01*
X122088742Y-65441000D01*
X121911258Y-65441000D01*
X121886488Y-65436073D01*
X121737188Y-65406376D01*
X121573216Y-65338456D01*
X121425646Y-65239853D01*
X121300147Y-65114354D01*
X121201544Y-64966784D01*
X121133624Y-64802812D01*
X121099000Y-64628741D01*
X121099000Y-64451259D01*
X121133624Y-64277188D01*
X121201544Y-64113216D01*
X121300147Y-63965646D01*
X121425646Y-63840147D01*
X121573216Y-63741544D01*
X121737188Y-63673624D01*
X121886488Y-63643927D01*
X121911258Y-63639000D01*
X122088742Y-63639000D01*
X122113512Y-63643927D01*
G37*
G36*
X127193512Y-63643927D02*
G01*
X127342812Y-63673624D01*
X127506784Y-63741544D01*
X127654354Y-63840147D01*
X127779853Y-63965646D01*
X127878456Y-64113216D01*
X127946376Y-64277188D01*
X127981000Y-64451259D01*
X127981000Y-64628741D01*
X127946376Y-64802812D01*
X127878456Y-64966784D01*
X127779853Y-65114354D01*
X127654354Y-65239853D01*
X127506784Y-65338456D01*
X127342812Y-65406376D01*
X127193512Y-65436073D01*
X127168742Y-65441000D01*
X126991258Y-65441000D01*
X126966488Y-65436073D01*
X126817188Y-65406376D01*
X126653216Y-65338456D01*
X126505646Y-65239853D01*
X126380147Y-65114354D01*
X126281544Y-64966784D01*
X126213624Y-64802812D01*
X126179000Y-64628741D01*
X126179000Y-64451259D01*
X126213624Y-64277188D01*
X126281544Y-64113216D01*
X126380147Y-63965646D01*
X126505646Y-63840147D01*
X126653216Y-63741544D01*
X126817188Y-63673624D01*
X126966488Y-63643927D01*
X126991258Y-63639000D01*
X127168742Y-63639000D01*
X127193512Y-63643927D01*
G37*
G36*
X143384468Y-62603565D02*
G01*
X143423138Y-62615296D01*
X143458777Y-62634346D01*
X143490017Y-62659983D01*
X143515654Y-62691223D01*
X143534704Y-62726862D01*
X143546435Y-62765532D01*
X143551000Y-62811888D01*
X143551000Y-63463112D01*
X143546435Y-63509468D01*
X143534704Y-63548138D01*
X143515654Y-63583777D01*
X143490017Y-63615017D01*
X143458777Y-63640654D01*
X143423138Y-63659704D01*
X143384468Y-63671435D01*
X143338112Y-63676000D01*
X142261888Y-63676000D01*
X142215532Y-63671435D01*
X142176862Y-63659704D01*
X142141223Y-63640654D01*
X142109983Y-63615017D01*
X142084346Y-63583777D01*
X142065296Y-63548138D01*
X142053565Y-63509468D01*
X142049000Y-63463112D01*
X142049000Y-62811888D01*
X142053565Y-62765532D01*
X142065296Y-62726862D01*
X142084346Y-62691223D01*
X142109983Y-62659983D01*
X142141223Y-62634346D01*
X142176862Y-62615296D01*
X142215532Y-62603565D01*
X142261888Y-62599000D01*
X143338112Y-62599000D01*
X143384468Y-62603565D01*
G37*
G36*
X141184468Y-62603565D02*
G01*
X141223138Y-62615296D01*
X141258777Y-62634346D01*
X141290017Y-62659983D01*
X141315654Y-62691223D01*
X141334704Y-62726862D01*
X141346435Y-62765532D01*
X141351000Y-62811888D01*
X141351000Y-63463112D01*
X141346435Y-63509468D01*
X141334704Y-63548138D01*
X141315654Y-63583777D01*
X141290017Y-63615017D01*
X141258777Y-63640654D01*
X141223138Y-63659704D01*
X141184468Y-63671435D01*
X141138112Y-63676000D01*
X140061888Y-63676000D01*
X140015532Y-63671435D01*
X139976862Y-63659704D01*
X139941223Y-63640654D01*
X139909983Y-63615017D01*
X139884346Y-63583777D01*
X139865296Y-63548138D01*
X139853565Y-63509468D01*
X139849000Y-63463112D01*
X139849000Y-62811888D01*
X139853565Y-62765532D01*
X139865296Y-62726862D01*
X139884346Y-62691223D01*
X139909983Y-62659983D01*
X139941223Y-62634346D01*
X139976862Y-62615296D01*
X140015532Y-62603565D01*
X140061888Y-62599000D01*
X141138112Y-62599000D01*
X141184468Y-62603565D01*
G37*
G36*
X138984468Y-62603565D02*
G01*
X139023138Y-62615296D01*
X139058777Y-62634346D01*
X139090017Y-62659983D01*
X139115654Y-62691223D01*
X139134704Y-62726862D01*
X139146435Y-62765532D01*
X139151000Y-62811888D01*
X139151000Y-63463112D01*
X139146435Y-63509468D01*
X139134704Y-63548138D01*
X139115654Y-63583777D01*
X139090017Y-63615017D01*
X139058777Y-63640654D01*
X139023138Y-63659704D01*
X138984468Y-63671435D01*
X138938112Y-63676000D01*
X137861888Y-63676000D01*
X137815532Y-63671435D01*
X137776862Y-63659704D01*
X137741223Y-63640654D01*
X137709983Y-63615017D01*
X137684346Y-63583777D01*
X137665296Y-63548138D01*
X137653565Y-63509468D01*
X137649000Y-63463112D01*
X137649000Y-62811888D01*
X137653565Y-62765532D01*
X137665296Y-62726862D01*
X137684346Y-62691223D01*
X137709983Y-62659983D01*
X137741223Y-62634346D01*
X137776862Y-62615296D01*
X137815532Y-62603565D01*
X137861888Y-62599000D01*
X138938112Y-62599000D01*
X138984468Y-62603565D01*
G37*
G36*
X124653512Y-61103927D02*
G01*
X124802812Y-61133624D01*
X124966784Y-61201544D01*
X125114354Y-61300147D01*
X125239853Y-61425646D01*
X125338456Y-61573216D01*
X125406376Y-61737188D01*
X125441000Y-61911259D01*
X125441000Y-62088741D01*
X125406376Y-62262812D01*
X125338456Y-62426784D01*
X125239853Y-62574354D01*
X125114354Y-62699853D01*
X124966784Y-62798456D01*
X124802812Y-62866376D01*
X124653512Y-62896073D01*
X124628742Y-62901000D01*
X124451258Y-62901000D01*
X124426488Y-62896073D01*
X124277188Y-62866376D01*
X124113216Y-62798456D01*
X123965646Y-62699853D01*
X123840147Y-62574354D01*
X123741544Y-62426784D01*
X123673624Y-62262812D01*
X123639000Y-62088741D01*
X123639000Y-61911259D01*
X123673624Y-61737188D01*
X123741544Y-61573216D01*
X123840147Y-61425646D01*
X123965646Y-61300147D01*
X124113216Y-61201544D01*
X124277188Y-61133624D01*
X124426488Y-61103927D01*
X124451258Y-61099000D01*
X124628742Y-61099000D01*
X124653512Y-61103927D01*
G37*
G36*
X155133512Y-61103927D02*
G01*
X155282812Y-61133624D01*
X155446784Y-61201544D01*
X155594354Y-61300147D01*
X155719853Y-61425646D01*
X155818456Y-61573216D01*
X155886376Y-61737188D01*
X155921000Y-61911259D01*
X155921000Y-62088741D01*
X155886376Y-62262812D01*
X155818456Y-62426784D01*
X155719853Y-62574354D01*
X155594354Y-62699853D01*
X155446784Y-62798456D01*
X155282812Y-62866376D01*
X155133512Y-62896073D01*
X155108742Y-62901000D01*
X154931258Y-62901000D01*
X154906488Y-62896073D01*
X154757188Y-62866376D01*
X154593216Y-62798456D01*
X154445646Y-62699853D01*
X154320147Y-62574354D01*
X154221544Y-62426784D01*
X154153624Y-62262812D01*
X154119000Y-62088741D01*
X154119000Y-61911259D01*
X154153624Y-61737188D01*
X154221544Y-61573216D01*
X154320147Y-61425646D01*
X154445646Y-61300147D01*
X154593216Y-61201544D01*
X154757188Y-61133624D01*
X154906488Y-61103927D01*
X154931258Y-61099000D01*
X155108742Y-61099000D01*
X155133512Y-61103927D01*
G37*
G36*
X158461000Y-62901000D02*
G01*
X156659000Y-62901000D01*
X156659000Y-61099000D01*
X158461000Y-61099000D01*
X158461000Y-62901000D01*
G37*
G36*
X134813512Y-61103927D02*
G01*
X134962812Y-61133624D01*
X135126784Y-61201544D01*
X135274354Y-61300147D01*
X135399853Y-61425646D01*
X135498456Y-61573216D01*
X135566376Y-61737188D01*
X135601000Y-61911259D01*
X135601000Y-62088741D01*
X135566376Y-62262812D01*
X135498456Y-62426784D01*
X135399853Y-62574354D01*
X135274354Y-62699853D01*
X135126784Y-62798456D01*
X134962812Y-62866376D01*
X134813512Y-62896073D01*
X134788742Y-62901000D01*
X134611258Y-62901000D01*
X134586488Y-62896073D01*
X134437188Y-62866376D01*
X134273216Y-62798456D01*
X134125646Y-62699853D01*
X134000147Y-62574354D01*
X133901544Y-62426784D01*
X133833624Y-62262812D01*
X133799000Y-62088741D01*
X133799000Y-61911259D01*
X133833624Y-61737188D01*
X133901544Y-61573216D01*
X134000147Y-61425646D01*
X134125646Y-61300147D01*
X134273216Y-61201544D01*
X134437188Y-61133624D01*
X134586488Y-61103927D01*
X134611258Y-61099000D01*
X134788742Y-61099000D01*
X134813512Y-61103927D01*
G37*
G36*
X122113512Y-61103927D02*
G01*
X122262812Y-61133624D01*
X122426784Y-61201544D01*
X122574354Y-61300147D01*
X122699853Y-61425646D01*
X122798456Y-61573216D01*
X122866376Y-61737188D01*
X122901000Y-61911259D01*
X122901000Y-62088741D01*
X122866376Y-62262812D01*
X122798456Y-62426784D01*
X122699853Y-62574354D01*
X122574354Y-62699853D01*
X122426784Y-62798456D01*
X122262812Y-62866376D01*
X122113512Y-62896073D01*
X122088742Y-62901000D01*
X121911258Y-62901000D01*
X121886488Y-62896073D01*
X121737188Y-62866376D01*
X121573216Y-62798456D01*
X121425646Y-62699853D01*
X121300147Y-62574354D01*
X121201544Y-62426784D01*
X121133624Y-62262812D01*
X121099000Y-62088741D01*
X121099000Y-61911259D01*
X121133624Y-61737188D01*
X121201544Y-61573216D01*
X121300147Y-61425646D01*
X121425646Y-61300147D01*
X121573216Y-61201544D01*
X121737188Y-61133624D01*
X121886488Y-61103927D01*
X121911258Y-61099000D01*
X122088742Y-61099000D01*
X122113512Y-61103927D01*
G37*
G36*
X132273512Y-61103927D02*
G01*
X132422812Y-61133624D01*
X132586784Y-61201544D01*
X132734354Y-61300147D01*
X132859853Y-61425646D01*
X132958456Y-61573216D01*
X133026376Y-61737188D01*
X133061000Y-61911259D01*
X133061000Y-62088741D01*
X133026376Y-62262812D01*
X132958456Y-62426784D01*
X132859853Y-62574354D01*
X132734354Y-62699853D01*
X132586784Y-62798456D01*
X132422812Y-62866376D01*
X132273512Y-62896073D01*
X132248742Y-62901000D01*
X132071258Y-62901000D01*
X132046488Y-62896073D01*
X131897188Y-62866376D01*
X131733216Y-62798456D01*
X131585646Y-62699853D01*
X131460147Y-62574354D01*
X131361544Y-62426784D01*
X131293624Y-62262812D01*
X131259000Y-62088741D01*
X131259000Y-61911259D01*
X131293624Y-61737188D01*
X131361544Y-61573216D01*
X131460147Y-61425646D01*
X131585646Y-61300147D01*
X131733216Y-61201544D01*
X131897188Y-61133624D01*
X132046488Y-61103927D01*
X132071258Y-61099000D01*
X132248742Y-61099000D01*
X132273512Y-61103927D01*
G37*
G36*
X129733512Y-61103927D02*
G01*
X129882812Y-61133624D01*
X130046784Y-61201544D01*
X130194354Y-61300147D01*
X130319853Y-61425646D01*
X130418456Y-61573216D01*
X130486376Y-61737188D01*
X130521000Y-61911259D01*
X130521000Y-62088741D01*
X130486376Y-62262812D01*
X130418456Y-62426784D01*
X130319853Y-62574354D01*
X130194354Y-62699853D01*
X130046784Y-62798456D01*
X129882812Y-62866376D01*
X129733512Y-62896073D01*
X129708742Y-62901000D01*
X129531258Y-62901000D01*
X129506488Y-62896073D01*
X129357188Y-62866376D01*
X129193216Y-62798456D01*
X129045646Y-62699853D01*
X128920147Y-62574354D01*
X128821544Y-62426784D01*
X128753624Y-62262812D01*
X128719000Y-62088741D01*
X128719000Y-61911259D01*
X128753624Y-61737188D01*
X128821544Y-61573216D01*
X128920147Y-61425646D01*
X129045646Y-61300147D01*
X129193216Y-61201544D01*
X129357188Y-61133624D01*
X129506488Y-61103927D01*
X129531258Y-61099000D01*
X129708742Y-61099000D01*
X129733512Y-61103927D01*
G37*
G36*
X127193512Y-61103927D02*
G01*
X127342812Y-61133624D01*
X127506784Y-61201544D01*
X127654354Y-61300147D01*
X127779853Y-61425646D01*
X127878456Y-61573216D01*
X127946376Y-61737188D01*
X127981000Y-61911259D01*
X127981000Y-62088741D01*
X127946376Y-62262812D01*
X127878456Y-62426784D01*
X127779853Y-62574354D01*
X127654354Y-62699853D01*
X127506784Y-62798456D01*
X127342812Y-62866376D01*
X127193512Y-62896073D01*
X127168742Y-62901000D01*
X126991258Y-62901000D01*
X126966488Y-62896073D01*
X126817188Y-62866376D01*
X126653216Y-62798456D01*
X126505646Y-62699853D01*
X126380147Y-62574354D01*
X126281544Y-62426784D01*
X126213624Y-62262812D01*
X126179000Y-62088741D01*
X126179000Y-61911259D01*
X126213624Y-61737188D01*
X126281544Y-61573216D01*
X126380147Y-61425646D01*
X126505646Y-61300147D01*
X126653216Y-61201544D01*
X126817188Y-61133624D01*
X126966488Y-61103927D01*
X126991258Y-61099000D01*
X127168742Y-61099000D01*
X127193512Y-61103927D01*
G37*
G36*
X143384468Y-60728565D02*
G01*
X143423138Y-60740296D01*
X143458777Y-60759346D01*
X143490017Y-60784983D01*
X143515654Y-60816223D01*
X143534704Y-60851862D01*
X143546435Y-60890532D01*
X143551000Y-60936888D01*
X143551000Y-61588112D01*
X143546435Y-61634468D01*
X143534704Y-61673138D01*
X143515654Y-61708777D01*
X143490017Y-61740017D01*
X143458777Y-61765654D01*
X143423138Y-61784704D01*
X143384468Y-61796435D01*
X143338112Y-61801000D01*
X142261888Y-61801000D01*
X142215532Y-61796435D01*
X142176862Y-61784704D01*
X142141223Y-61765654D01*
X142109983Y-61740017D01*
X142084346Y-61708777D01*
X142065296Y-61673138D01*
X142053565Y-61634468D01*
X142049000Y-61588112D01*
X142049000Y-60936888D01*
X142053565Y-60890532D01*
X142065296Y-60851862D01*
X142084346Y-60816223D01*
X142109983Y-60784983D01*
X142141223Y-60759346D01*
X142176862Y-60740296D01*
X142215532Y-60728565D01*
X142261888Y-60724000D01*
X143338112Y-60724000D01*
X143384468Y-60728565D01*
G37*
G36*
X141184468Y-60728565D02*
G01*
X141223138Y-60740296D01*
X141258777Y-60759346D01*
X141290017Y-60784983D01*
X141315654Y-60816223D01*
X141334704Y-60851862D01*
X141346435Y-60890532D01*
X141351000Y-60936888D01*
X141351000Y-61588112D01*
X141346435Y-61634468D01*
X141334704Y-61673138D01*
X141315654Y-61708777D01*
X141290017Y-61740017D01*
X141258777Y-61765654D01*
X141223138Y-61784704D01*
X141184468Y-61796435D01*
X141138112Y-61801000D01*
X140061888Y-61801000D01*
X140015532Y-61796435D01*
X139976862Y-61784704D01*
X139941223Y-61765654D01*
X139909983Y-61740017D01*
X139884346Y-61708777D01*
X139865296Y-61673138D01*
X139853565Y-61634468D01*
X139849000Y-61588112D01*
X139849000Y-60936888D01*
X139853565Y-60890532D01*
X139865296Y-60851862D01*
X139884346Y-60816223D01*
X139909983Y-60784983D01*
X139941223Y-60759346D01*
X139976862Y-60740296D01*
X140015532Y-60728565D01*
X140061888Y-60724000D01*
X141138112Y-60724000D01*
X141184468Y-60728565D01*
G37*
G36*
X138984468Y-60728565D02*
G01*
X139023138Y-60740296D01*
X139058777Y-60759346D01*
X139090017Y-60784983D01*
X139115654Y-60816223D01*
X139134704Y-60851862D01*
X139146435Y-60890532D01*
X139151000Y-60936888D01*
X139151000Y-61588112D01*
X139146435Y-61634468D01*
X139134704Y-61673138D01*
X139115654Y-61708777D01*
X139090017Y-61740017D01*
X139058777Y-61765654D01*
X139023138Y-61784704D01*
X138984468Y-61796435D01*
X138938112Y-61801000D01*
X137861888Y-61801000D01*
X137815532Y-61796435D01*
X137776862Y-61784704D01*
X137741223Y-61765654D01*
X137709983Y-61740017D01*
X137684346Y-61708777D01*
X137665296Y-61673138D01*
X137653565Y-61634468D01*
X137649000Y-61588112D01*
X137649000Y-60936888D01*
X137653565Y-60890532D01*
X137665296Y-60851862D01*
X137684346Y-60816223D01*
X137709983Y-60784983D01*
X137741223Y-60759346D01*
X137776862Y-60740296D01*
X137815532Y-60728565D01*
X137861888Y-60724000D01*
X138938112Y-60724000D01*
X138984468Y-60728565D01*
G37*
M02*
