M48
; DRILL file {KiCad 5.1.5} date wto, 28 kwi 2020, 00:33:36
; FORMAT={-:-/ absolute / inch / decimal}
; #@! TF.CreationDate,2020-04-28T00:33:36+02:00
; #@! TF.GenerationSoftware,Kicad,Pcbnew,5.1.5
; #@! TF.FileFunction,Plated,1,2,PTH
FMAT,2
INCH
T1C0.0118
T2C0.0315
T3C0.0394
%
G90
G05
T1
X4.7539Y-2.3917
X4.76Y-2.64
X4.7638Y-3.2283
X4.765Y-3.0709
X4.8524Y-3.0512
X4.875Y-3.31
X4.8985Y-2.98
X4.9003Y-2.8252
X4.925Y-3.23
X4.93Y-3.115
X4.945Y-3.02
X4.95Y-2.485
X5.0197Y-2.6378
X5.02Y-2.685
X5.02Y-2.79
X5.025Y-3.325
X5.04Y-3.23
X5.05Y-2.485
X5.09Y-3.08
X5.1129Y-2.9082
X5.145Y-2.485
X5.187Y-3.4055
X5.195Y-3.235
X5.215Y-3.055
X5.225Y-2.82
X5.2461Y-3.3169
X5.255Y-3.1493
X5.3278Y-3.512
X5.33Y-2.72
X5.35Y-2.525
X5.385Y-2.975
X5.41Y-2.915
X5.41Y-3.12
X5.4331Y-3.0217
X5.435Y-2.525
X5.44Y-2.78
X5.4402Y-3.0948
X5.4528Y-2.9134
X5.455Y-3.235
X5.4919Y-3.0207
X5.4921Y-3.376
X5.5015Y-2.7776
X5.505Y-2.915
X5.52Y-2.525
X5.5315Y-3.5138
X5.5345Y-3.11
X5.535Y-2.755
X5.5463Y-3.0474
X5.565Y-3.08
X5.565Y-3.235
X5.57Y-3.38
X5.5777Y-2.7512
X5.5868Y-3.2678
X5.5906Y-2.9035
X5.5906Y-2.9823
X5.605Y-2.64
X5.625Y-2.59
X5.635Y-2.715
X5.6398Y-3.1988
X5.6398Y-3.3366
X5.655Y-3.165
X5.714Y-3.446
X5.72Y-2.395
X5.72Y-3.195
X5.72Y-3.5138
X5.735Y-2.985
X5.755Y-3.3735
X5.82Y-2.395
X5.822Y-3.0837
X5.875Y-3.09
X5.8957Y-2.9035
X5.8957Y-3.1496
X5.9139Y-2.3947
X5.9154Y-2.9823
X5.9252Y-3.1201
X5.9252Y-3.1988
X5.935Y-3.5138
X5.94Y-3.35
X5.9578Y-3.0618
X5.98Y-2.8245
X5.985Y-2.5
X5.9873Y-2.91
X5.99Y-3.025
X5.9916Y-3.2308
X5.9941Y-3.1693
X6.0335Y-3.1988
X6.035Y-2.7461
X6.0531Y-3.3268
X6.06Y-2.395
X6.0827Y-3.1988
X6.125Y-3.325
X6.1417Y-2.4902
X6.1811Y-3.3169
X6.2697Y-2.5
X6.2697Y-2.9232
X6.2697Y-3.0709
X6.2697Y-3.2087
X6.2697Y-3.3169
T2
X5.93Y-2.555
X5.93Y-2.855
X6.03Y-2.555
X6.03Y-2.855
X6.13Y-2.555
X6.13Y-2.855
X6.23Y-2.555
X6.23Y-2.855
X5.085Y-2.95
X5.085Y-3.1421
T3
X5.1Y-3.365
X5.1Y-3.465
X4.95Y-3.365
X4.95Y-3.465
X5.275Y-3.265
X5.275Y-3.365
X5.275Y-3.465
X5.375Y-3.265
X5.375Y-3.365
X5.375Y-3.465
X6.02Y-3.47
X6.12Y-3.47
X6.22Y-3.47
X6.12Y-2.435
X6.22Y-2.435
X4.8Y-2.435
X4.8Y-2.535
X4.9Y-2.435
X4.9Y-2.535
X5.0Y-2.435
X5.0Y-2.535
X5.1Y-2.435
X5.1Y-2.535
X5.2Y-2.435
X5.2Y-2.535
X4.8Y-3.365
X4.8Y-3.465
X5.57Y-2.435
X5.67Y-2.435
X5.77Y-2.435
X5.87Y-2.435
X5.97Y-2.435
T0
M30
