G04 #@! TF.GenerationSoftware,KiCad,Pcbnew,5.1.5*
G04 #@! TF.CreationDate,2020-04-28T00:33:20+02:00*
G04 #@! TF.ProjectId,avr-wave,6176722d-7761-4766-952e-6b696361645f,2*
G04 #@! TF.SameCoordinates,Original*
G04 #@! TF.FileFunction,Legend,Bot*
G04 #@! TF.FilePolarity,Positive*
%FSLAX46Y46*%
G04 Gerber Fmt 4.6, Leading zero omitted, Abs format (unit mm)*
G04 Created by KiCad (PCBNEW 5.1.5) date 2020-04-28 00:33:20*
%MOMM*%
%LPD*%
G04 APERTURE LIST*
%ADD10C,0.150000*%
%ADD11C,0.120000*%
G04 APERTURE END LIST*
D10*
X158726190Y-66734523D02*
X158726190Y-67341666D01*
X158766666Y-67463095D01*
X158847619Y-67544047D01*
X158969047Y-67584523D01*
X159050000Y-67584523D01*
X157916666Y-67584523D02*
X158321428Y-67584523D01*
X158321428Y-66734523D01*
X157147619Y-67503571D02*
X157188095Y-67544047D01*
X157309523Y-67584523D01*
X157390476Y-67584523D01*
X157511904Y-67544047D01*
X157592857Y-67463095D01*
X157633333Y-67382142D01*
X157673809Y-67220238D01*
X157673809Y-67098809D01*
X157633333Y-66936904D01*
X157592857Y-66855952D01*
X157511904Y-66775000D01*
X157390476Y-66734523D01*
X157309523Y-66734523D01*
X157188095Y-66775000D01*
X157147619Y-66815476D01*
X156540476Y-66734523D02*
X156540476Y-67341666D01*
X156580952Y-67463095D01*
X156661904Y-67544047D01*
X156783333Y-67584523D01*
X156864285Y-67584523D01*
X155730952Y-67584523D02*
X156135714Y-67584523D01*
X156135714Y-66734523D01*
X154961904Y-67503571D02*
X155002380Y-67544047D01*
X155123809Y-67584523D01*
X155204761Y-67584523D01*
X155326190Y-67544047D01*
X155407142Y-67463095D01*
X155447619Y-67382142D01*
X155488095Y-67220238D01*
X155488095Y-67098809D01*
X155447619Y-66936904D01*
X155407142Y-66855952D01*
X155326190Y-66775000D01*
X155204761Y-66734523D01*
X155123809Y-66734523D01*
X155002380Y-66775000D01*
X154961904Y-66815476D01*
X154354761Y-66734523D02*
X154354761Y-67341666D01*
X154395238Y-67463095D01*
X154476190Y-67544047D01*
X154597619Y-67584523D01*
X154678571Y-67584523D01*
X153545238Y-67584523D02*
X153950000Y-67584523D01*
X153950000Y-66734523D01*
X152776190Y-67503571D02*
X152816666Y-67544047D01*
X152938095Y-67584523D01*
X153019047Y-67584523D01*
X153140476Y-67544047D01*
X153221428Y-67463095D01*
X153261904Y-67382142D01*
X153302380Y-67220238D01*
X153302380Y-67098809D01*
X153261904Y-66936904D01*
X153221428Y-66855952D01*
X153140476Y-66775000D01*
X153019047Y-66734523D01*
X152938095Y-66734523D01*
X152816666Y-66775000D01*
X152776190Y-66815476D01*
X152169047Y-66734523D02*
X152169047Y-67341666D01*
X152209523Y-67463095D01*
X152290476Y-67544047D01*
X152411904Y-67584523D01*
X152492857Y-67584523D01*
X151359523Y-67584523D02*
X151764285Y-67584523D01*
X151764285Y-66734523D01*
X150590476Y-67503571D02*
X150630952Y-67544047D01*
X150752380Y-67584523D01*
X150833333Y-67584523D01*
X150954761Y-67544047D01*
X151035714Y-67463095D01*
X151076190Y-67382142D01*
X151116666Y-67220238D01*
X151116666Y-67098809D01*
X151076190Y-66936904D01*
X151035714Y-66855952D01*
X150954761Y-66775000D01*
X150833333Y-66734523D01*
X150752380Y-66734523D01*
X150630952Y-66775000D01*
X150590476Y-66815476D01*
X126610714Y-83615571D02*
X126503571Y-83651285D01*
X126325000Y-83651285D01*
X126253571Y-83615571D01*
X126217857Y-83579857D01*
X126182142Y-83508428D01*
X126182142Y-83437000D01*
X126217857Y-83365571D01*
X126253571Y-83329857D01*
X126325000Y-83294142D01*
X126467857Y-83258428D01*
X126539285Y-83222714D01*
X126575000Y-83187000D01*
X126610714Y-83115571D01*
X126610714Y-83044142D01*
X126575000Y-82972714D01*
X126539285Y-82937000D01*
X126467857Y-82901285D01*
X126289285Y-82901285D01*
X126182142Y-82937000D01*
X125860714Y-83258428D02*
X125610714Y-83258428D01*
X125503571Y-83651285D02*
X125860714Y-83651285D01*
X125860714Y-82901285D01*
X125503571Y-82901285D01*
X124825000Y-83651285D02*
X125182142Y-83651285D01*
X125182142Y-82901285D01*
X123860714Y-82901285D02*
X123789285Y-82901285D01*
X123717857Y-82937000D01*
X123682142Y-82972714D01*
X123646428Y-83044142D01*
X123610714Y-83187000D01*
X123610714Y-83365571D01*
X123646428Y-83508428D01*
X123682142Y-83579857D01*
X123717857Y-83615571D01*
X123789285Y-83651285D01*
X123860714Y-83651285D01*
X123932142Y-83615571D01*
X123967857Y-83579857D01*
X124003571Y-83508428D01*
X124039285Y-83365571D01*
X124039285Y-83187000D01*
X124003571Y-83044142D01*
X123967857Y-82972714D01*
X123932142Y-82937000D01*
X123860714Y-82901285D01*
X122325000Y-83651285D02*
X122753571Y-83651285D01*
X122539285Y-83651285D02*
X122539285Y-82901285D01*
X122610714Y-83008428D01*
X122682142Y-83079857D01*
X122753571Y-83115571D01*
X121467857Y-82972714D02*
X121432142Y-82937000D01*
X121360714Y-82901285D01*
X121182142Y-82901285D01*
X121110714Y-82937000D01*
X121075000Y-82972714D01*
X121039285Y-83044142D01*
X121039285Y-83115571D01*
X121075000Y-83222714D01*
X121503571Y-83651285D01*
X121039285Y-83651285D01*
X132522142Y-66760285D02*
X132522142Y-66010285D01*
X132272142Y-66546000D01*
X132022142Y-66010285D01*
X132022142Y-66760285D01*
X131700714Y-66546000D02*
X131343571Y-66546000D01*
X131772142Y-66760285D02*
X131522142Y-66010285D01*
X131272142Y-66760285D01*
X131022142Y-66760285D02*
X131022142Y-66010285D01*
X130665000Y-66760285D02*
X130665000Y-66010285D01*
X130236428Y-66760285D01*
X130236428Y-66010285D01*
X128879285Y-66688857D02*
X128915000Y-66724571D01*
X129022142Y-66760285D01*
X129093571Y-66760285D01*
X129200714Y-66724571D01*
X129272142Y-66653142D01*
X129307857Y-66581714D01*
X129343571Y-66438857D01*
X129343571Y-66331714D01*
X129307857Y-66188857D01*
X129272142Y-66117428D01*
X129200714Y-66046000D01*
X129093571Y-66010285D01*
X129022142Y-66010285D01*
X128915000Y-66046000D01*
X128879285Y-66081714D01*
X128415000Y-66010285D02*
X128272142Y-66010285D01*
X128200714Y-66046000D01*
X128129285Y-66117428D01*
X128093571Y-66260285D01*
X128093571Y-66510285D01*
X128129285Y-66653142D01*
X128200714Y-66724571D01*
X128272142Y-66760285D01*
X128415000Y-66760285D01*
X128486428Y-66724571D01*
X128557857Y-66653142D01*
X128593571Y-66510285D01*
X128593571Y-66260285D01*
X128557857Y-66117428D01*
X128486428Y-66046000D01*
X128415000Y-66010285D01*
X127772142Y-66760285D02*
X127772142Y-66010285D01*
X127343571Y-66760285D01*
X127343571Y-66010285D01*
X126986428Y-66760285D02*
X126986428Y-66010285D01*
X126557857Y-66760285D01*
X126557857Y-66010285D01*
X146216571Y-64006000D02*
X145859428Y-64006000D01*
X146288000Y-64220285D02*
X146038000Y-63470285D01*
X145788000Y-64220285D01*
X145538000Y-64220285D02*
X145538000Y-63470285D01*
X145359428Y-63470285D01*
X145252285Y-63506000D01*
X145180857Y-63577428D01*
X145145142Y-63648857D01*
X145109428Y-63791714D01*
X145109428Y-63898857D01*
X145145142Y-64041714D01*
X145180857Y-64113142D01*
X145252285Y-64184571D01*
X145359428Y-64220285D01*
X145538000Y-64220285D01*
X144359428Y-64148857D02*
X144395142Y-64184571D01*
X144502285Y-64220285D01*
X144573714Y-64220285D01*
X144680857Y-64184571D01*
X144752285Y-64113142D01*
X144788000Y-64041714D01*
X144823714Y-63898857D01*
X144823714Y-63791714D01*
X144788000Y-63648857D01*
X144752285Y-63577428D01*
X144680857Y-63506000D01*
X144573714Y-63470285D01*
X144502285Y-63470285D01*
X144395142Y-63506000D01*
X144359428Y-63541714D01*
X158323000Y-86231000D02*
X157965857Y-86231000D01*
X158394428Y-86445285D02*
X158144428Y-85695285D01*
X157894428Y-86445285D01*
X157644428Y-85695285D02*
X157644428Y-86302428D01*
X157608714Y-86373857D01*
X157573000Y-86409571D01*
X157501571Y-86445285D01*
X157358714Y-86445285D01*
X157287285Y-86409571D01*
X157251571Y-86373857D01*
X157215857Y-86302428D01*
X157215857Y-85695285D01*
X156858714Y-86445285D02*
X156858714Y-85695285D01*
X156680142Y-85695285D01*
X156573000Y-85731000D01*
X156501571Y-85802428D01*
X156465857Y-85873857D01*
X156430142Y-86016714D01*
X156430142Y-86123857D01*
X156465857Y-86266714D01*
X156501571Y-86338142D01*
X156573000Y-86409571D01*
X156680142Y-86445285D01*
X156858714Y-86445285D01*
X156108714Y-86445285D02*
X156108714Y-85695285D01*
X155608714Y-85695285D02*
X155465857Y-85695285D01*
X155394428Y-85731000D01*
X155323000Y-85802428D01*
X155287285Y-85945285D01*
X155287285Y-86195285D01*
X155323000Y-86338142D01*
X155394428Y-86409571D01*
X155465857Y-86445285D01*
X155608714Y-86445285D01*
X155680142Y-86409571D01*
X155751571Y-86338142D01*
X155787285Y-86195285D01*
X155787285Y-85945285D01*
X155751571Y-85802428D01*
X155680142Y-85731000D01*
X155608714Y-85695285D01*
X154251571Y-85695285D02*
X154108714Y-85695285D01*
X154037285Y-85731000D01*
X153965857Y-85802428D01*
X153930142Y-85945285D01*
X153930142Y-86195285D01*
X153965857Y-86338142D01*
X154037285Y-86409571D01*
X154108714Y-86445285D01*
X154251571Y-86445285D01*
X154323000Y-86409571D01*
X154394428Y-86338142D01*
X154430142Y-86195285D01*
X154430142Y-85945285D01*
X154394428Y-85802428D01*
X154323000Y-85731000D01*
X154251571Y-85695285D01*
X153608714Y-85695285D02*
X153608714Y-86302428D01*
X153573000Y-86373857D01*
X153537285Y-86409571D01*
X153465857Y-86445285D01*
X153323000Y-86445285D01*
X153251571Y-86409571D01*
X153215857Y-86373857D01*
X153180142Y-86302428D01*
X153180142Y-85695285D01*
X152930142Y-85695285D02*
X152501571Y-85695285D01*
X152715857Y-86445285D02*
X152715857Y-85695285D01*
X138559000Y-87542428D02*
X138559000Y-87185285D01*
X138344714Y-87613857D02*
X139094714Y-87363857D01*
X138344714Y-87113857D01*
X139094714Y-86971000D02*
X138344714Y-86721000D01*
X139094714Y-86471000D01*
X138344714Y-85792428D02*
X138701857Y-86042428D01*
X138344714Y-86221000D02*
X139094714Y-86221000D01*
X139094714Y-85935285D01*
X139059000Y-85863857D01*
X139023285Y-85828142D01*
X138951857Y-85792428D01*
X138844714Y-85792428D01*
X138773285Y-85828142D01*
X138737571Y-85863857D01*
X138701857Y-85935285D01*
X138701857Y-86221000D01*
X138344714Y-84899571D02*
X139094714Y-84899571D01*
X138380428Y-84578142D02*
X138344714Y-84471000D01*
X138344714Y-84292428D01*
X138380428Y-84221000D01*
X138416142Y-84185285D01*
X138487571Y-84149571D01*
X138559000Y-84149571D01*
X138630428Y-84185285D01*
X138666142Y-84221000D01*
X138701857Y-84292428D01*
X138737571Y-84435285D01*
X138773285Y-84506714D01*
X138809000Y-84542428D01*
X138880428Y-84578142D01*
X138951857Y-84578142D01*
X139023285Y-84542428D01*
X139059000Y-84506714D01*
X139094714Y-84435285D01*
X139094714Y-84256714D01*
X139059000Y-84149571D01*
X138344714Y-83828142D02*
X139094714Y-83828142D01*
X139094714Y-83542428D01*
X139059000Y-83471000D01*
X139023285Y-83435285D01*
X138951857Y-83399571D01*
X138844714Y-83399571D01*
X138773285Y-83435285D01*
X138737571Y-83471000D01*
X138701857Y-83542428D01*
X138701857Y-83828142D01*
X158227714Y-74637285D02*
X158227714Y-75387285D01*
X157870571Y-75030142D02*
X157834857Y-75101571D01*
X157763428Y-75137285D01*
X158227714Y-75030142D02*
X158192000Y-75101571D01*
X158120571Y-75137285D01*
X157977714Y-75137285D01*
X157906285Y-75101571D01*
X157870571Y-75030142D01*
X157870571Y-74637285D01*
X157477714Y-75101571D02*
X157406285Y-75137285D01*
X157263428Y-75137285D01*
X157192000Y-75101571D01*
X157156285Y-75030142D01*
X157156285Y-74994428D01*
X157192000Y-74923000D01*
X157263428Y-74887285D01*
X157370571Y-74887285D01*
X157442000Y-74851571D01*
X157477714Y-74780142D01*
X157477714Y-74744428D01*
X157442000Y-74673000D01*
X157370571Y-74637285D01*
X157263428Y-74637285D01*
X157192000Y-74673000D01*
X156906285Y-74637285D02*
X156727714Y-75137285D01*
X156549142Y-74637285D02*
X156727714Y-75137285D01*
X156799142Y-75315857D01*
X156834857Y-75351571D01*
X156906285Y-75387285D01*
X156263428Y-74637285D02*
X156263428Y-75137285D01*
X156263428Y-74708714D02*
X156227714Y-74673000D01*
X156156285Y-74637285D01*
X156049142Y-74637285D01*
X155977714Y-74673000D01*
X155942000Y-74744428D01*
X155942000Y-75137285D01*
X155692000Y-74637285D02*
X155406285Y-74637285D01*
X155584857Y-74387285D02*
X155584857Y-75030142D01*
X155549142Y-75101571D01*
X155477714Y-75137285D01*
X155406285Y-75137285D01*
X155156285Y-75137285D02*
X155156285Y-74387285D01*
X154834857Y-75137285D02*
X154834857Y-74744428D01*
X154870571Y-74673000D01*
X154942000Y-74637285D01*
X155049142Y-74637285D01*
X155120571Y-74673000D01*
X155156285Y-74708714D01*
X153977714Y-74637285D02*
X153799142Y-75137285D01*
X153620571Y-74637285D01*
X152942000Y-75137285D02*
X153370571Y-75137285D01*
X153156285Y-75137285D02*
X153156285Y-74387285D01*
X153227714Y-74494428D01*
X153299142Y-74565857D01*
X153370571Y-74601571D01*
X152620571Y-75065857D02*
X152584857Y-75101571D01*
X152620571Y-75137285D01*
X152656285Y-75101571D01*
X152620571Y-75065857D01*
X152620571Y-75137285D01*
X152120571Y-74387285D02*
X152049142Y-74387285D01*
X151977714Y-74423000D01*
X151942000Y-74458714D01*
X151906285Y-74530142D01*
X151870571Y-74673000D01*
X151870571Y-74851571D01*
X151906285Y-74994428D01*
X151942000Y-75065857D01*
X151977714Y-75101571D01*
X152049142Y-75137285D01*
X152120571Y-75137285D01*
X152192000Y-75101571D01*
X152227714Y-75065857D01*
X152263428Y-74994428D01*
X152299142Y-74851571D01*
X152299142Y-74673000D01*
X152263428Y-74530142D01*
X152227714Y-74458714D01*
X152192000Y-74423000D01*
X152120571Y-74387285D01*
X159281285Y-75662285D02*
X159281285Y-76198000D01*
X159317000Y-76305142D01*
X159388428Y-76376571D01*
X159495571Y-76412285D01*
X159567000Y-76412285D01*
X158602714Y-76412285D02*
X158602714Y-76019428D01*
X158638428Y-75948000D01*
X158709857Y-75912285D01*
X158852714Y-75912285D01*
X158924142Y-75948000D01*
X158602714Y-76376571D02*
X158674142Y-76412285D01*
X158852714Y-76412285D01*
X158924142Y-76376571D01*
X158959857Y-76305142D01*
X158959857Y-76233714D01*
X158924142Y-76162285D01*
X158852714Y-76126571D01*
X158674142Y-76126571D01*
X158602714Y-76090857D01*
X157924142Y-76376571D02*
X157995571Y-76412285D01*
X158138428Y-76412285D01*
X158209857Y-76376571D01*
X158245571Y-76340857D01*
X158281285Y-76269428D01*
X158281285Y-76055142D01*
X158245571Y-75983714D01*
X158209857Y-75948000D01*
X158138428Y-75912285D01*
X157995571Y-75912285D01*
X157924142Y-75948000D01*
X157317000Y-76376571D02*
X157388428Y-76412285D01*
X157531285Y-76412285D01*
X157602714Y-76376571D01*
X157638428Y-76305142D01*
X157638428Y-76019428D01*
X157602714Y-75948000D01*
X157531285Y-75912285D01*
X157388428Y-75912285D01*
X157317000Y-75948000D01*
X157281285Y-76019428D01*
X157281285Y-76090857D01*
X157638428Y-76162285D01*
X156959857Y-76412285D02*
X156959857Y-75662285D01*
X156888428Y-76126571D02*
X156674142Y-76412285D01*
X156674142Y-75912285D02*
X156959857Y-76198000D01*
X155852714Y-75662285D02*
X155674142Y-76412285D01*
X155531285Y-75876571D01*
X155388428Y-76412285D01*
X155209857Y-75662285D01*
X154924142Y-76412285D02*
X154924142Y-75912285D01*
X154924142Y-75662285D02*
X154959857Y-75698000D01*
X154924142Y-75733714D01*
X154888428Y-75698000D01*
X154924142Y-75662285D01*
X154924142Y-75733714D01*
X154281285Y-76376571D02*
X154352714Y-76412285D01*
X154495571Y-76412285D01*
X154567000Y-76376571D01*
X154602714Y-76305142D01*
X154602714Y-76019428D01*
X154567000Y-75948000D01*
X154495571Y-75912285D01*
X154352714Y-75912285D01*
X154281285Y-75948000D01*
X154245571Y-76019428D01*
X154245571Y-76090857D01*
X154602714Y-76162285D01*
X153602714Y-76376571D02*
X153674142Y-76412285D01*
X153817000Y-76412285D01*
X153888428Y-76376571D01*
X153924142Y-76340857D01*
X153959857Y-76269428D01*
X153959857Y-76055142D01*
X153924142Y-75983714D01*
X153888428Y-75948000D01*
X153817000Y-75912285D01*
X153674142Y-75912285D01*
X153602714Y-75948000D01*
X153352714Y-75912285D02*
X152959857Y-75912285D01*
X153352714Y-76412285D01*
X152959857Y-76412285D01*
X152567000Y-76412285D02*
X152638428Y-76376571D01*
X152674142Y-76340857D01*
X152709857Y-76269428D01*
X152709857Y-76055142D01*
X152674142Y-75983714D01*
X152638428Y-75948000D01*
X152567000Y-75912285D01*
X152459857Y-75912285D01*
X152388428Y-75948000D01*
X152352714Y-75983714D01*
X152317000Y-76055142D01*
X152317000Y-76269428D01*
X152352714Y-76340857D01*
X152388428Y-76376571D01*
X152459857Y-76412285D01*
X152567000Y-76412285D01*
X151995571Y-76412285D02*
X151995571Y-75912285D01*
X151995571Y-76055142D02*
X151959857Y-75983714D01*
X151924142Y-75948000D01*
X151852714Y-75912285D01*
X151781285Y-75912285D01*
X151245571Y-76376571D02*
X151317000Y-76412285D01*
X151459857Y-76412285D01*
X151531285Y-76376571D01*
X151567000Y-76305142D01*
X151567000Y-76019428D01*
X151531285Y-75948000D01*
X151459857Y-75912285D01*
X151317000Y-75912285D01*
X151245571Y-75948000D01*
X151209857Y-76019428D01*
X151209857Y-76090857D01*
X151567000Y-76162285D01*
X150888428Y-76412285D02*
X150888428Y-75662285D01*
X150817000Y-76126571D02*
X150602714Y-76412285D01*
X150602714Y-75912285D02*
X150888428Y-76198000D01*
X157067000Y-76937285D02*
X156995571Y-76937285D01*
X156924142Y-76973000D01*
X156888428Y-77008714D01*
X156852714Y-77080142D01*
X156817000Y-77223000D01*
X156817000Y-77401571D01*
X156852714Y-77544428D01*
X156888428Y-77615857D01*
X156924142Y-77651571D01*
X156995571Y-77687285D01*
X157067000Y-77687285D01*
X157138428Y-77651571D01*
X157174142Y-77615857D01*
X157209857Y-77544428D01*
X157245571Y-77401571D01*
X157245571Y-77223000D01*
X157209857Y-77080142D01*
X157174142Y-77008714D01*
X157138428Y-76973000D01*
X157067000Y-76937285D01*
X156102714Y-77687285D02*
X156531285Y-77687285D01*
X156317000Y-77687285D02*
X156317000Y-76937285D01*
X156388428Y-77044428D01*
X156459857Y-77115857D01*
X156531285Y-77151571D01*
X155781285Y-77615857D02*
X155745571Y-77651571D01*
X155781285Y-77687285D01*
X155817000Y-77651571D01*
X155781285Y-77615857D01*
X155781285Y-77687285D01*
X155459857Y-77008714D02*
X155424142Y-76973000D01*
X155352714Y-76937285D01*
X155174142Y-76937285D01*
X155102714Y-76973000D01*
X155067000Y-77008714D01*
X155031285Y-77080142D01*
X155031285Y-77151571D01*
X155067000Y-77258714D01*
X155495571Y-77687285D01*
X155031285Y-77687285D01*
X154567000Y-76937285D02*
X154495571Y-76937285D01*
X154424142Y-76973000D01*
X154388428Y-77008714D01*
X154352714Y-77080142D01*
X154317000Y-77223000D01*
X154317000Y-77401571D01*
X154352714Y-77544428D01*
X154388428Y-77615857D01*
X154424142Y-77651571D01*
X154495571Y-77687285D01*
X154567000Y-77687285D01*
X154638428Y-77651571D01*
X154674142Y-77615857D01*
X154709857Y-77544428D01*
X154745571Y-77401571D01*
X154745571Y-77223000D01*
X154709857Y-77080142D01*
X154674142Y-77008714D01*
X154638428Y-76973000D01*
X154567000Y-76937285D01*
X154031285Y-77008714D02*
X153995571Y-76973000D01*
X153924142Y-76937285D01*
X153745571Y-76937285D01*
X153674142Y-76973000D01*
X153638428Y-77008714D01*
X153602714Y-77080142D01*
X153602714Y-77151571D01*
X153638428Y-77258714D01*
X154067000Y-77687285D01*
X153602714Y-77687285D01*
X153138428Y-76937285D02*
X153067000Y-76937285D01*
X152995571Y-76973000D01*
X152959857Y-77008714D01*
X152924142Y-77080142D01*
X152888428Y-77223000D01*
X152888428Y-77401571D01*
X152924142Y-77544428D01*
X152959857Y-77615857D01*
X152995571Y-77651571D01*
X153067000Y-77687285D01*
X153138428Y-77687285D01*
X153209857Y-77651571D01*
X153245571Y-77615857D01*
X153281285Y-77544428D01*
X153317000Y-77401571D01*
X153317000Y-77223000D01*
X153281285Y-77080142D01*
X153245571Y-77008714D01*
X153209857Y-76973000D01*
X153138428Y-76937285D01*
D11*
X147508578Y-72960000D02*
X146991422Y-72960000D01*
X147508578Y-71540000D02*
X146991422Y-71540000D01*
X135580000Y-60291000D02*
X135580000Y-62976000D01*
X133660000Y-60291000D02*
X135580000Y-60291000D01*
X133660000Y-62976000D02*
X133660000Y-60291000D01*
X137739000Y-60291000D02*
X137739000Y-62976000D01*
X135819000Y-60291000D02*
X137739000Y-60291000D01*
X135819000Y-62976000D02*
X135819000Y-60291000D01*
X139898000Y-60291000D02*
X139898000Y-62976000D01*
X137978000Y-60291000D02*
X139898000Y-60291000D01*
X137978000Y-62976000D02*
X137978000Y-60291000D01*
X131684000Y-80570000D02*
G75*
G02X126634000Y-80570000I-2525000J0D01*
G01*
X131684000Y-74170000D02*
G75*
G03X126634000Y-74170000I-2525000J0D01*
G01*
X131684000Y-74170000D02*
X131684000Y-80570000D01*
X126634000Y-74170000D02*
X126634000Y-80570000D01*
X149292000Y-71357000D02*
X149292000Y-69707000D01*
X159572000Y-71357000D02*
X149292000Y-71357000D01*
X159572000Y-66057000D02*
X159572000Y-71357000D01*
X149292000Y-66057000D02*
X159572000Y-66057000D01*
X149292000Y-67707000D02*
X149292000Y-66057000D01*
X149292000Y-69707000D02*
G75*
G03X149292000Y-67707000I0J1000000D01*
G01*
X159318000Y-63179000D02*
X159318000Y-61849000D01*
X157988000Y-63179000D02*
X159318000Y-63179000D01*
X156718000Y-63179000D02*
X156718000Y-60519000D01*
X156718000Y-60519000D02*
X154118000Y-60519000D01*
X156718000Y-63179000D02*
X154118000Y-63179000D01*
X154118000Y-63179000D02*
X154118000Y-60519000D01*
X159318000Y-89468000D02*
X159318000Y-88138000D01*
X157988000Y-89468000D02*
X159318000Y-89468000D01*
X156718000Y-89468000D02*
X156718000Y-86808000D01*
X156718000Y-86808000D02*
X151578000Y-86808000D01*
X156718000Y-89468000D02*
X151578000Y-89468000D01*
X151578000Y-89468000D02*
X151578000Y-86808000D01*
X152968000Y-63179000D02*
X152968000Y-61849000D01*
X151638000Y-63179000D02*
X152968000Y-63179000D01*
X150368000Y-63179000D02*
X150368000Y-60519000D01*
X150368000Y-60519000D02*
X140148000Y-60519000D01*
X150368000Y-63179000D02*
X140148000Y-63179000D01*
X140148000Y-63179000D02*
X140148000Y-60519000D01*
X133410000Y-61849000D02*
X133410000Y-60519000D01*
X133410000Y-60519000D02*
X132080000Y-60519000D01*
X133410000Y-63119000D02*
X130810000Y-63119000D01*
X130810000Y-63119000D02*
X130810000Y-60519000D01*
X130810000Y-60519000D02*
X120590000Y-60519000D01*
X120590000Y-65719000D02*
X120590000Y-60519000D01*
X133410000Y-65719000D02*
X120590000Y-65719000D01*
X133410000Y-65719000D02*
X133410000Y-63119000D01*
X132655000Y-89341000D02*
X133985000Y-89341000D01*
X132655000Y-88011000D02*
X132655000Y-89341000D01*
X135255000Y-89341000D02*
X137855000Y-89341000D01*
X135255000Y-86741000D02*
X135255000Y-89341000D01*
X132655000Y-86741000D02*
X135255000Y-86741000D01*
X137855000Y-89341000D02*
X137855000Y-81601000D01*
X132655000Y-86741000D02*
X132655000Y-81601000D01*
X132655000Y-81601000D02*
X137855000Y-81601000D01*
X130870000Y-84141000D02*
X129540000Y-84141000D01*
X130870000Y-85471000D02*
X130870000Y-84141000D01*
X130870000Y-86741000D02*
X128210000Y-86741000D01*
X128210000Y-86741000D02*
X128210000Y-89341000D01*
X130870000Y-86741000D02*
X130870000Y-89341000D01*
X130870000Y-89341000D02*
X128210000Y-89341000D01*
X127060000Y-84141000D02*
X125730000Y-84141000D01*
X127060000Y-85471000D02*
X127060000Y-84141000D01*
X127060000Y-86741000D02*
X124400000Y-86741000D01*
X124400000Y-86741000D02*
X124400000Y-89341000D01*
X127060000Y-86741000D02*
X127060000Y-89341000D01*
X127060000Y-89341000D02*
X124400000Y-89341000D01*
X123250000Y-84141000D02*
X121920000Y-84141000D01*
X123250000Y-85471000D02*
X123250000Y-84141000D01*
X123250000Y-86741000D02*
X120590000Y-86741000D01*
X120590000Y-86741000D02*
X120590000Y-89341000D01*
X123250000Y-86741000D02*
X123250000Y-89341000D01*
X123250000Y-89341000D02*
X120590000Y-89341000D01*
D10*
X144982142Y-72589285D02*
X145232142Y-72232142D01*
X145410714Y-72589285D02*
X145410714Y-71839285D01*
X145125000Y-71839285D01*
X145053571Y-71875000D01*
X145017857Y-71910714D01*
X144982142Y-71982142D01*
X144982142Y-72089285D01*
X145017857Y-72160714D01*
X145053571Y-72196428D01*
X145125000Y-72232142D01*
X145410714Y-72232142D01*
X144267857Y-72589285D02*
X144696428Y-72589285D01*
X144482142Y-72589285D02*
X144482142Y-71839285D01*
X144553571Y-71946428D01*
X144625000Y-72017857D01*
X144696428Y-72053571D01*
X143839285Y-72160714D02*
X143910714Y-72125000D01*
X143946428Y-72089285D01*
X143982142Y-72017857D01*
X143982142Y-71982142D01*
X143946428Y-71910714D01*
X143910714Y-71875000D01*
X143839285Y-71839285D01*
X143696428Y-71839285D01*
X143625000Y-71875000D01*
X143589285Y-71910714D01*
X143553571Y-71982142D01*
X143553571Y-72017857D01*
X143589285Y-72089285D01*
X143625000Y-72125000D01*
X143696428Y-72160714D01*
X143839285Y-72160714D01*
X143910714Y-72196428D01*
X143946428Y-72232142D01*
X143982142Y-72303571D01*
X143982142Y-72446428D01*
X143946428Y-72517857D01*
X143910714Y-72553571D01*
X143839285Y-72589285D01*
X143696428Y-72589285D01*
X143625000Y-72553571D01*
X143589285Y-72517857D01*
X143553571Y-72446428D01*
X143553571Y-72303571D01*
X143589285Y-72232142D01*
X143625000Y-72196428D01*
X143696428Y-72160714D01*
X134959285Y-63835428D02*
X134209285Y-63835428D01*
X134209285Y-64014000D01*
X134245000Y-64121142D01*
X134316428Y-64192571D01*
X134387857Y-64228285D01*
X134530714Y-64264000D01*
X134637857Y-64264000D01*
X134780714Y-64228285D01*
X134852142Y-64192571D01*
X134923571Y-64121142D01*
X134959285Y-64014000D01*
X134959285Y-63835428D01*
X134209285Y-64514000D02*
X134209285Y-65014000D01*
X134959285Y-64692571D01*
X137118285Y-63835428D02*
X136368285Y-63835428D01*
X136368285Y-64014000D01*
X136404000Y-64121142D01*
X136475428Y-64192571D01*
X136546857Y-64228285D01*
X136689714Y-64264000D01*
X136796857Y-64264000D01*
X136939714Y-64228285D01*
X137011142Y-64192571D01*
X137082571Y-64121142D01*
X137118285Y-64014000D01*
X137118285Y-63835428D01*
X136368285Y-64906857D02*
X136368285Y-64764000D01*
X136404000Y-64692571D01*
X136439714Y-64656857D01*
X136546857Y-64585428D01*
X136689714Y-64549714D01*
X136975428Y-64549714D01*
X137046857Y-64585428D01*
X137082571Y-64621142D01*
X137118285Y-64692571D01*
X137118285Y-64835428D01*
X137082571Y-64906857D01*
X137046857Y-64942571D01*
X136975428Y-64978285D01*
X136796857Y-64978285D01*
X136725428Y-64942571D01*
X136689714Y-64906857D01*
X136654000Y-64835428D01*
X136654000Y-64692571D01*
X136689714Y-64621142D01*
X136725428Y-64585428D01*
X136796857Y-64549714D01*
X139277285Y-63835428D02*
X138527285Y-63835428D01*
X138527285Y-64014000D01*
X138563000Y-64121142D01*
X138634428Y-64192571D01*
X138705857Y-64228285D01*
X138848714Y-64264000D01*
X138955857Y-64264000D01*
X139098714Y-64228285D01*
X139170142Y-64192571D01*
X139241571Y-64121142D01*
X139277285Y-64014000D01*
X139277285Y-63835428D01*
X138527285Y-64942571D02*
X138527285Y-64585428D01*
X138884428Y-64549714D01*
X138848714Y-64585428D01*
X138813000Y-64656857D01*
X138813000Y-64835428D01*
X138848714Y-64906857D01*
X138884428Y-64942571D01*
X138955857Y-64978285D01*
X139134428Y-64978285D01*
X139205857Y-64942571D01*
X139241571Y-64906857D01*
X139277285Y-64835428D01*
X139277285Y-64656857D01*
X139241571Y-64585428D01*
X139205857Y-64549714D01*
X129516142Y-70848142D02*
X129516142Y-71205285D01*
X129766142Y-70455285D02*
X129516142Y-70848142D01*
X129266142Y-70455285D01*
X128623285Y-71205285D02*
X129051857Y-71205285D01*
X128837571Y-71205285D02*
X128837571Y-70455285D01*
X128909000Y-70562428D01*
X128980428Y-70633857D01*
X129051857Y-70669571D01*
X148179285Y-68135571D02*
X148786428Y-68135571D01*
X148857857Y-68171285D01*
X148893571Y-68207000D01*
X148929285Y-68278428D01*
X148929285Y-68421285D01*
X148893571Y-68492714D01*
X148857857Y-68528428D01*
X148786428Y-68564142D01*
X148179285Y-68564142D01*
X148250714Y-68885571D02*
X148215000Y-68921285D01*
X148179285Y-68992714D01*
X148179285Y-69171285D01*
X148215000Y-69242714D01*
X148250714Y-69278428D01*
X148322142Y-69314142D01*
X148393571Y-69314142D01*
X148500714Y-69278428D01*
X148929285Y-68849857D01*
X148929285Y-69314142D01*
X157222000Y-63470285D02*
X157222000Y-64006000D01*
X157257714Y-64113142D01*
X157329142Y-64184571D01*
X157436285Y-64220285D01*
X157507714Y-64220285D01*
X156472000Y-64220285D02*
X156900571Y-64220285D01*
X156686285Y-64220285D02*
X156686285Y-63470285D01*
X156757714Y-63577428D01*
X156829142Y-63648857D01*
X156900571Y-63684571D01*
X151126000Y-87727285D02*
X151126000Y-88263000D01*
X151161714Y-88370142D01*
X151233142Y-88441571D01*
X151340285Y-88477285D01*
X151411714Y-88477285D01*
X150411714Y-87727285D02*
X150768857Y-87727285D01*
X150804571Y-88084428D01*
X150768857Y-88048714D01*
X150697428Y-88013000D01*
X150518857Y-88013000D01*
X150447428Y-88048714D01*
X150411714Y-88084428D01*
X150376000Y-88155857D01*
X150376000Y-88334428D01*
X150411714Y-88405857D01*
X150447428Y-88441571D01*
X150518857Y-88477285D01*
X150697428Y-88477285D01*
X150768857Y-88441571D01*
X150804571Y-88405857D01*
X142744000Y-63470285D02*
X142744000Y-64006000D01*
X142779714Y-64113142D01*
X142851142Y-64184571D01*
X142958285Y-64220285D01*
X143029714Y-64220285D01*
X142065428Y-63720285D02*
X142065428Y-64220285D01*
X142244000Y-63434571D02*
X142422571Y-63970285D01*
X141958285Y-63970285D01*
X122170000Y-66010285D02*
X122170000Y-66546000D01*
X122205714Y-66653142D01*
X122277142Y-66724571D01*
X122384285Y-66760285D01*
X122455714Y-66760285D01*
X121884285Y-66010285D02*
X121420000Y-66010285D01*
X121670000Y-66296000D01*
X121562857Y-66296000D01*
X121491428Y-66331714D01*
X121455714Y-66367428D01*
X121420000Y-66438857D01*
X121420000Y-66617428D01*
X121455714Y-66688857D01*
X121491428Y-66724571D01*
X121562857Y-66760285D01*
X121777142Y-66760285D01*
X121848571Y-66724571D01*
X121884285Y-66688857D01*
X135632000Y-80488285D02*
X135632000Y-81024000D01*
X135667714Y-81131142D01*
X135739142Y-81202571D01*
X135846285Y-81238285D01*
X135917714Y-81238285D01*
X135310571Y-80559714D02*
X135274857Y-80524000D01*
X135203428Y-80488285D01*
X135024857Y-80488285D01*
X134953428Y-80524000D01*
X134917714Y-80559714D01*
X134882000Y-80631142D01*
X134882000Y-80702571D01*
X134917714Y-80809714D01*
X135346285Y-81238285D01*
X134882000Y-81238285D01*
M02*
